<?xml version="1.0" encoding="UTF-8" standalone="no"?>
<!DOCTYPE svg PUBLIC "-//W3C//DTD SVG 1.1//EN"
 "http://www.w3.org/Graphics/SVG/1.1/DTD/svg11.dtd">
<!-- Generated by graphviz version 2.43.0 (0)
 -->
<!-- Pages: 1 -->
<svg width="288pt" height="271pt"
 viewBox="0.00 0.00 288.00 271.31" xmlns="http://www.w3.org/2000/svg" xmlns:xlink="http://www.w3.org/1999/xlink">
<g id="graph0" class="graph" transform="scale(1 1) rotate(0) translate(4 267.31)">
<polygon fill="white" stroke="transparent" points="-4,4 -4,-267.31 284,-267.31 284,4 -4,4"/>
<text text-anchor="middle" x="140" y="-252.11" font-family="Times,serif" font-size="14.00">07e89d2865862925fb7a9a97da6c0046</text>
<!-- 0 -->
<g id="node1" class="node">
<title>0</title>
<ellipse fill="none" stroke="#cecece" cx="88.5" cy="-39.4" rx="27" ry="18"/>
<text text-anchor="middle" x="88.5" y="-35.7" font-family="Times,serif" font-size="14.00">0</text>
</g>
<!-- 1 -->
<g id="node2" class="node">
<title>1</title>
<ellipse fill="none" stroke="#8967ce" cx="156.9" cy="-18" rx="27" ry="18"/>
<text text-anchor="middle" x="156.9" y="-14.3" font-family="Times,serif" font-size="14.00">1</text>
</g>
<!-- 0&#45;&#45;1 -->
<g id="edge1" class="edge">
<title>0&#45;&#45;1</title>
<path fill="none" stroke="#4400ce" d="M113.2,-31.67C119.32,-29.76 125.88,-27.7 132.01,-25.79"/>
<text text-anchor="middle" x="124.6" y="-19.13" font-family="Times,serif" font-size="12.00">2</text>
</g>
<!-- 3 -->
<g id="node3" class="node">
<title>3</title>
<ellipse fill="none" stroke="#4400ce" cx="141.68" cy="-89.51" rx="27" ry="18"/>
<text text-anchor="middle" x="141.68" y="-85.81" font-family="Times,serif" font-size="14.00">3</text>
</g>
<!-- 0&#45;&#45;3 -->
<g id="edge2" class="edge">
<title>0&#45;&#45;3</title>
<path fill="none" stroke="#4400ce" d="M104.17,-54.16C111.04,-60.63 119.07,-68.2 125.94,-74.68"/>
<text text-anchor="middle" x="111.06" y="-67.82" font-family="Times,serif" font-size="12.00">5</text>
</g>
<!-- 1&#45;&#45;3 -->
<g id="edge3" class="edge">
<title>1&#45;&#45;3</title>
<path fill="none" stroke="#4400ce" d="M153.06,-36.04C150.77,-46.8 147.87,-60.42 145.58,-71.22"/>
<text text-anchor="middle" x="145.32" y="-57.03" font-family="Times,serif" font-size="12.00">4</text>
</g>
<!-- 6 -->
<g id="node4" class="node">
<title>6</title>
<ellipse fill="none" stroke="#4400ce" cx="162.68" cy="-159.93" rx="27" ry="18"/>
<text text-anchor="middle" x="162.68" y="-156.23" font-family="Times,serif" font-size="14.00">6</text>
</g>
<!-- 3&#45;&#45;6 -->
<g id="edge4" class="edge">
<title>3&#45;&#45;6</title>
<path fill="none" stroke="#4400ce" d="M146.98,-107.28C150.14,-117.87 154.14,-131.28 157.31,-141.92"/>
<text text-anchor="middle" x="148.15" y="-128" font-family="Times,serif" font-size="12.00">7</text>
</g>
<!-- 8 -->
<g id="node5" class="node">
<title>8</title>
<ellipse fill="none" stroke="#4400ce" cx="191.5" cy="-226.31" rx="27" ry="18"/>
<text text-anchor="middle" x="191.5" y="-222.61" font-family="Times,serif" font-size="14.00">8</text>
</g>
<!-- 6&#45;&#45;8 -->
<g id="edge5" class="edge">
<title>6&#45;&#45;8</title>
<path fill="none" stroke="#4400ce" d="M170.25,-177.37C174.45,-187.05 179.66,-199.05 183.88,-208.75"/>
<text text-anchor="middle" x="173.06" y="-196.46" font-family="Times,serif" font-size="12.00">9</text>
</g>
</g>
</svg>
