<?xml version="1.0" encoding="UTF-8" standalone="no"?>
<!DOCTYPE svg PUBLIC "-//W3C//DTD SVG 1.1//EN"
 "http://www.w3.org/Graphics/SVG/1.1/DTD/svg11.dtd">
<!-- Generated by graphviz version 2.43.0 (0)
 -->
<!-- Pages: 1 -->
<svg width="457pt" height="653pt"
 viewBox="0.00 0.00 457.44 652.72" xmlns="http://www.w3.org/2000/svg" xmlns:xlink="http://www.w3.org/1999/xlink">
<g id="graph0" class="graph" transform="scale(1 1) rotate(0) translate(4 648.72)">
<polygon fill="white" stroke="transparent" points="-4,4 -4,-648.72 453.44,-648.72 453.44,4 -4,4"/>
<text text-anchor="middle" x="224.72" y="-633.52" font-family="Times,serif" font-size="14.00">0d83f767bcea19b17397deba4c776407</text>
<!-- 0 -->
<g id="node1" class="node">
<title>0</title>
<ellipse fill="none" stroke="#cecece" cx="27" cy="-607.72" rx="27" ry="18"/>
<text text-anchor="middle" x="27" y="-604.02" font-family="Times,serif" font-size="14.00">0</text>
</g>
<!-- 1 -->
<g id="node2" class="node">
<title>1</title>
<ellipse fill="none" stroke="#8967ce" cx="83.89" cy="-563.17" rx="27" ry="18"/>
<text text-anchor="middle" x="83.89" y="-559.47" font-family="Times,serif" font-size="14.00">1</text>
</g>
<!-- 0&#45;&#45;1 -->
<g id="edge1" class="edge">
<title>0&#45;&#45;1</title>
<path fill="none" stroke="#4400ce" d="M44.69,-593.87C51.47,-588.56 59.21,-582.49 66.02,-577.17"/>
<text text-anchor="middle" x="51.35" y="-575.92" font-family="Times,serif" font-size="12.00">2</text>
</g>
<!-- 3 -->
<g id="node3" class="node">
<title>3</title>
<ellipse fill="none" stroke="#4400ce" cx="135.63" cy="-512.76" rx="27" ry="18"/>
<text text-anchor="middle" x="135.63" y="-509.06" font-family="Times,serif" font-size="14.00">3</text>
</g>
<!-- 1&#45;&#45;3 -->
<g id="edge2" class="edge">
<title>1&#45;&#45;3</title>
<path fill="none" stroke="#4400ce" d="M99.41,-548.05C105.96,-541.67 113.57,-534.26 120.12,-527.88"/>
<text text-anchor="middle" x="113.76" y="-541.36" font-family="Times,serif" font-size="12.00">4</text>
</g>
<!-- 5 -->
<g id="node4" class="node">
<title>5</title>
<ellipse fill="none" stroke="#4400ce" cx="186.28" cy="-461.14" rx="27" ry="18"/>
<text text-anchor="middle" x="186.28" y="-457.44" font-family="Times,serif" font-size="14.00">5</text>
</g>
<!-- 3&#45;&#45;5 -->
<g id="edge3" class="edge">
<title>3&#45;&#45;5</title>
<path fill="none" stroke="#4400ce" d="M150.55,-497.56C157.09,-490.89 164.75,-483.09 171.29,-476.42"/>
<text text-anchor="middle" x="156.92" y="-477.39" font-family="Times,serif" font-size="12.00">6</text>
</g>
<!-- 7 -->
<g id="node5" class="node">
<title>7</title>
<ellipse fill="none" stroke="#4400ce" cx="231.8" cy="-404.91" rx="27" ry="18"/>
<text text-anchor="middle" x="231.8" y="-401.21" font-family="Times,serif" font-size="14.00">7</text>
</g>
<!-- 5&#45;&#45;7 -->
<g id="edge4" class="edge">
<title>5&#45;&#45;7</title>
<path fill="none" stroke="#4400ce" d="M199.2,-445.18C205.3,-437.65 212.56,-428.67 218.68,-421.11"/>
<text text-anchor="middle" x="204.94" y="-423.55" font-family="Times,serif" font-size="12.00">8</text>
</g>
<!-- 9 -->
<g id="node6" class="node">
<title>9</title>
<ellipse fill="none" stroke="#4400ce" cx="271.46" cy="-344.45" rx="27" ry="18"/>
<text text-anchor="middle" x="271.46" y="-340.75" font-family="Times,serif" font-size="14.00">9</text>
</g>
<!-- 7&#45;&#45;9 -->
<g id="edge5" class="edge">
<title>7&#45;&#45;9</title>
<path fill="none" stroke="#4400ce" d="M242.63,-388.39C248.23,-379.86 255.04,-369.48 260.63,-360.95"/>
<text text-anchor="middle" x="243.63" y="-365.07" font-family="Times,serif" font-size="12.00">10</text>
</g>
<!-- 11 -->
<g id="node7" class="node">
<title>11</title>
<ellipse fill="none" stroke="#4400ce" cx="306.84" cy="-281.45" rx="27" ry="18"/>
<text text-anchor="middle" x="306.84" y="-277.75" font-family="Times,serif" font-size="14.00">11</text>
</g>
<!-- 9&#45;&#45;11 -->
<g id="edge6" class="edge">
<title>9&#45;&#45;11</title>
<path fill="none" stroke="#4400ce" d="M280.94,-327.57C286.01,-318.53 292.25,-307.43 297.33,-298.38"/>
<text text-anchor="middle" x="281.13" y="-316.38" font-family="Times,serif" font-size="12.00">12</text>
</g>
<!-- 13 -->
<g id="node8" class="node">
<title>13</title>
<ellipse fill="none" stroke="#4400ce" cx="344.06" cy="-219.54" rx="27" ry="18"/>
<text text-anchor="middle" x="344.06" y="-215.84" font-family="Times,serif" font-size="14.00">13</text>
</g>
<!-- 11&#45;&#45;13 -->
<g id="edge7" class="edge">
<title>11&#45;&#45;13</title>
<path fill="none" stroke="#4400ce" d="M317.01,-264.54C322.26,-255.8 328.65,-245.17 333.9,-236.44"/>
<text text-anchor="middle" x="317.45" y="-253.89" font-family="Times,serif" font-size="12.00">14</text>
</g>
<!-- 15 -->
<g id="node9" class="node">
<title>15</title>
<ellipse fill="none" stroke="#4400ce" cx="374.1" cy="-153.84" rx="27" ry="18"/>
<text text-anchor="middle" x="374.1" y="-150.14" font-family="Times,serif" font-size="14.00">15</text>
</g>
<!-- 13&#45;&#45;15 -->
<g id="edge8" class="edge">
<title>13&#45;&#45;15</title>
<path fill="none" stroke="#4400ce" d="M351.95,-202.28C356.33,-192.7 361.77,-180.81 366.16,-171.21"/>
<text text-anchor="middle" x="351.05" y="-190.14" font-family="Times,serif" font-size="12.00">16</text>
</g>
<!-- 17 -->
<g id="node10" class="node">
<title>17</title>
<ellipse fill="none" stroke="#4400ce" cx="402.54" cy="-87.45" rx="27" ry="18"/>
<text text-anchor="middle" x="402.54" y="-83.75" font-family="Times,serif" font-size="14.00">17</text>
</g>
<!-- 15&#45;&#45;17 -->
<g id="edge9" class="edge">
<title>15&#45;&#45;17</title>
<path fill="none" stroke="#4400ce" d="M381.57,-136.4C385.72,-126.72 390.87,-114.71 395.02,-105.01"/>
<text text-anchor="middle" x="380.3" y="-124.1" font-family="Times,serif" font-size="12.00">18</text>
</g>
<!-- 19 -->
<g id="node11" class="node">
<title>19</title>
<ellipse fill="none" stroke="#4400ce" cx="422.44" cy="-18" rx="27" ry="18"/>
<text text-anchor="middle" x="422.44" y="-14.3" font-family="Times,serif" font-size="14.00">19</text>
</g>
<!-- 17&#45;&#45;19 -->
<g id="edge10" class="edge">
<title>17&#45;&#45;19</title>
<path fill="none" stroke="#4400ce" d="M407.67,-69.57C410.61,-59.28 414.31,-46.39 417.26,-36.07"/>
<text text-anchor="middle" x="404.47" y="-56.22" font-family="Times,serif" font-size="12.00">20</text>
</g>
</g>
</svg>
