<?xml version="1.0" encoding="UTF-8" standalone="no"?>
<!DOCTYPE svg PUBLIC "-//W3C//DTD SVG 1.1//EN"
 "http://www.w3.org/Graphics/SVG/1.1/DTD/svg11.dtd">
<!-- Generated by graphviz version 2.43.0 (0)
 -->
<!-- Pages: 1 -->
<svg width="280pt" height="362pt"
 viewBox="0.00 0.00 280.00 362.29" xmlns="http://www.w3.org/2000/svg" xmlns:xlink="http://www.w3.org/1999/xlink">
<g id="graph0" class="graph" transform="scale(1 1) rotate(0) translate(4 358.29)">
<polygon fill="white" stroke="transparent" points="-4,4 -4,-358.29 276,-358.29 276,4 -4,4"/>
<text text-anchor="middle" x="136" y="-343.09" font-family="Times,serif" font-size="14.00">1132fc30a7ff48d5d534475ecd928d36</text>
<!-- 0 -->
<g id="node1" class="node">
<title>0</title>
<ellipse fill="none" stroke="#cecece" cx="177.88" cy="-18" rx="27" ry="18"/>
<text text-anchor="middle" x="177.88" y="-14.3" font-family="Times,serif" font-size="14.00">0</text>
</g>
<!-- 1 -->
<g id="node2" class="node">
<title>1</title>
<ellipse fill="none" stroke="#8967ce" cx="175.21" cy="-91.04" rx="27" ry="18"/>
<text text-anchor="middle" x="175.21" y="-87.34" font-family="Times,serif" font-size="14.00">1</text>
</g>
<!-- 0&#45;&#45;1 -->
<g id="edge1" class="edge">
<title>0&#45;&#45;1</title>
<path fill="none" stroke="#4400ce" d="M177.22,-36.06C176.81,-47.29 176.28,-61.7 175.87,-72.94"/>
<text text-anchor="middle" x="172.55" y="-57.9" font-family="Times,serif" font-size="12.00">2</text>
</g>
<!-- 3 -->
<g id="node3" class="node">
<title>3</title>
<ellipse fill="none" stroke="#4400ce" cx="156.92" cy="-163.26" rx="27" ry="18"/>
<text text-anchor="middle" x="156.92" y="-159.56" font-family="Times,serif" font-size="14.00">3</text>
</g>
<!-- 1&#45;&#45;3 -->
<g id="edge2" class="edge">
<title>1&#45;&#45;3</title>
<path fill="none" stroke="#4400ce" d="M170.69,-108.9C167.87,-120.01 164.27,-134.25 161.45,-145.36"/>
<text text-anchor="middle" x="162.07" y="-130.53" font-family="Times,serif" font-size="12.00">4</text>
</g>
<!-- 5 -->
<g id="node4" class="node">
<title>5</title>
<ellipse fill="none" stroke="#4400ce" cx="139.58" cy="-240.48" rx="27" ry="18"/>
<text text-anchor="middle" x="139.58" y="-236.78" font-family="Times,serif" font-size="14.00">5</text>
</g>
<!-- 3&#45;&#45;5 -->
<g id="edge3" class="edge">
<title>3&#45;&#45;5</title>
<path fill="none" stroke="#4400ce" d="M152.9,-181.17C150.09,-193.64 146.37,-210.21 143.58,-222.67"/>
<text text-anchor="middle" x="144.24" y="-205.32" font-family="Times,serif" font-size="12.00">6</text>
</g>
<!-- 7 -->
<g id="node5" class="node">
<title>7</title>
<ellipse fill="none" stroke="#4400ce" cx="214.08" cy="-273.96" rx="27" ry="18"/>
<text text-anchor="middle" x="214.08" y="-270.26" font-family="Times,serif" font-size="14.00">7</text>
</g>
<!-- 5&#45;&#45;7 -->
<g id="edge4" class="edge">
<title>5&#45;&#45;7</title>
<path fill="none" stroke="#4400ce" d="M162.34,-250.71C171.58,-254.86 182.23,-259.65 191.46,-263.79"/>
<text text-anchor="middle" x="172.9" y="-260.65" font-family="Times,serif" font-size="12.00">8</text>
</g>
<!-- 9 -->
<g id="node6" class="node">
<title>9</title>
<ellipse fill="none" stroke="#4400ce" cx="122.2" cy="-317.29" rx="27" ry="18"/>
<text text-anchor="middle" x="122.2" y="-313.59" font-family="Times,serif" font-size="14.00">9</text>
</g>
<!-- 5&#45;&#45;9 -->
<g id="edge5" class="edge">
<title>5&#45;&#45;9</title>
<path fill="none" stroke="#4400ce" d="M135.55,-258.29C132.76,-270.61 129.06,-286.95 126.27,-299.3"/>
<text text-anchor="middle" x="122.91" y="-282.2" font-family="Times,serif" font-size="12.00">10</text>
</g>
<!-- 11 -->
<g id="node7" class="node">
<title>11</title>
<ellipse fill="none" stroke="#4400ce" cx="57.92" cy="-239.07" rx="27" ry="18"/>
<text text-anchor="middle" x="57.92" y="-235.37" font-family="Times,serif" font-size="14.00">11</text>
</g>
<!-- 5&#45;&#45;11 -->
<g id="edge6" class="edge">
<title>5&#45;&#45;11</title>
<path fill="none" stroke="#4400ce" d="M112.39,-240.01C103.57,-239.86 93.8,-239.69 84.99,-239.54"/>
<text text-anchor="middle" x="102.69" y="-230.17" font-family="Times,serif" font-size="12.00">12</text>
</g>
</g>
</svg>
