<?xml version="1.0" encoding="UTF-8" standalone="no"?>
<!DOCTYPE svg PUBLIC "-//W3C//DTD SVG 1.1//EN"
 "http://www.w3.org/Graphics/SVG/1.1/DTD/svg11.dtd">
<!-- Generated by graphviz version 2.43.0 (0)
 -->
<!-- Pages: 1 -->
<svg width="464pt" height="564pt"
 viewBox="0.00 0.00 463.51 564.06" xmlns="http://www.w3.org/2000/svg" xmlns:xlink="http://www.w3.org/1999/xlink">
<g id="graph0" class="graph" transform="scale(1 1) rotate(0) translate(4 560.06)">
<polygon fill="white" stroke="transparent" points="-4,4 -4,-560.06 459.51,-560.06 459.51,4 -4,4"/>
<text text-anchor="middle" x="227.75" y="-544.86" font-family="Times,serif" font-size="14.00">13c76c229c0606a802af1d62b3af70fa</text>
<!-- 0 -->
<g id="node1" class="node">
<title>0</title>
<ellipse fill="none" stroke="#cecece" cx="27" cy="-519.06" rx="27" ry="18"/>
<text text-anchor="middle" x="27" y="-515.36" font-family="Times,serif" font-size="14.00">0</text>
</g>
<!-- 1 -->
<g id="node2" class="node">
<title>1</title>
<ellipse fill="none" stroke="#8967ce" cx="86.19" cy="-477.6" rx="27" ry="18"/>
<text text-anchor="middle" x="86.19" y="-473.9" font-family="Times,serif" font-size="14.00">1</text>
</g>
<!-- 0&#45;&#45;1 -->
<g id="edge1" class="edge">
<title>0&#45;&#45;1</title>
<path fill="none" stroke="#4400ce" d="M45.73,-505.94C52.64,-501.1 60.46,-495.62 67.38,-490.77"/>
<text text-anchor="middle" x="52.55" y="-488.76" font-family="Times,serif" font-size="12.00">2</text>
</g>
<!-- 3 -->
<g id="node3" class="node">
<title>3</title>
<ellipse fill="none" stroke="#4400ce" cx="139.81" cy="-429.2" rx="27" ry="18"/>
<text text-anchor="middle" x="139.81" y="-425.5" font-family="Times,serif" font-size="14.00">3</text>
</g>
<!-- 1&#45;&#45;3 -->
<g id="edge2" class="edge">
<title>1&#45;&#45;3</title>
<path fill="none" stroke="#4400ce" d="M102.28,-463.08C109.06,-456.95 116.95,-449.83 123.73,-443.71"/>
<text text-anchor="middle" x="117" y="-456.79" font-family="Times,serif" font-size="12.00">4</text>
</g>
<!-- 5 -->
<g id="node4" class="node">
<title>5</title>
<ellipse fill="none" stroke="#4400ce" cx="192.87" cy="-380.04" rx="27" ry="18"/>
<text text-anchor="middle" x="192.87" y="-376.34" font-family="Times,serif" font-size="14.00">5</text>
</g>
<!-- 3&#45;&#45;5 -->
<g id="edge3" class="edge">
<title>3&#45;&#45;5</title>
<path fill="none" stroke="#4400ce" d="M155.73,-414.45C162.45,-408.22 170.25,-401 176.96,-394.77"/>
<text text-anchor="middle" x="170.35" y="-408.01" font-family="Times,serif" font-size="12.00">6</text>
</g>
<!-- 7 -->
<g id="node5" class="node">
<title>7</title>
<ellipse fill="none" stroke="#4400ce" cx="240.33" cy="-325.42" rx="27" ry="18"/>
<text text-anchor="middle" x="240.33" y="-321.72" font-family="Times,serif" font-size="14.00">7</text>
</g>
<!-- 5&#45;&#45;7 -->
<g id="edge4" class="edge">
<title>5&#45;&#45;7</title>
<path fill="none" stroke="#4400ce" d="M206.6,-364.24C212.84,-357.06 220.21,-348.57 226.47,-341.37"/>
<text text-anchor="middle" x="220.53" y="-356.21" font-family="Times,serif" font-size="12.00">8</text>
</g>
<!-- 9 -->
<g id="node6" class="node">
<title>9</title>
<ellipse fill="none" stroke="#4400ce" cx="281.24" cy="-265.81" rx="27" ry="18"/>
<text text-anchor="middle" x="281.24" y="-262.11" font-family="Times,serif" font-size="14.00">9</text>
</g>
<!-- 7&#45;&#45;9 -->
<g id="edge5" class="edge">
<title>7&#45;&#45;9</title>
<path fill="none" stroke="#4400ce" d="M251.73,-308.81C257.4,-300.55 264.24,-290.58 269.91,-282.32"/>
<text text-anchor="middle" x="252.82" y="-285.97" font-family="Times,serif" font-size="12.00">10</text>
</g>
<!-- 11 -->
<g id="node7" class="node">
<title>11</title>
<ellipse fill="none" stroke="#4400ce" cx="316.94" cy="-203.01" rx="27" ry="18"/>
<text text-anchor="middle" x="316.94" y="-199.31" font-family="Times,serif" font-size="14.00">11</text>
</g>
<!-- 9&#45;&#45;11 -->
<g id="edge6" class="edge">
<title>9&#45;&#45;11</title>
<path fill="none" stroke="#4400ce" d="M291,-248.65C296.04,-239.78 302.16,-229 307.2,-220.15"/>
<text text-anchor="middle" x="291.1" y="-237.8" font-family="Times,serif" font-size="12.00">12</text>
</g>
<!-- 13 -->
<g id="node8" class="node">
<title>13</title>
<ellipse fill="none" stroke="#4400ce" cx="356.68" cy="-142.74" rx="27" ry="18"/>
<text text-anchor="middle" x="356.68" y="-139.04" font-family="Times,serif" font-size="14.00">13</text>
</g>
<!-- 11&#45;&#45;13 -->
<g id="edge7" class="edge">
<title>11&#45;&#45;13</title>
<path fill="none" stroke="#4400ce" d="M328.01,-186.22C333.52,-177.86 340.17,-167.78 345.67,-159.44"/>
<text text-anchor="middle" x="328.84" y="-176.23" font-family="Times,serif" font-size="12.00">14</text>
</g>
<!-- 15 -->
<g id="node9" class="node">
<title>15</title>
<ellipse fill="none" stroke="#4400ce" cx="387.94" cy="-77.64" rx="27" ry="18"/>
<text text-anchor="middle" x="387.94" y="-73.94" font-family="Times,serif" font-size="14.00">15</text>
</g>
<!-- 13&#45;&#45;15 -->
<g id="edge8" class="edge">
<title>13&#45;&#45;15</title>
<path fill="none" stroke="#4400ce" d="M365.06,-125.29C369.55,-115.95 375.05,-104.48 379.54,-95.13"/>
<text text-anchor="middle" x="364.3" y="-113.61" font-family="Times,serif" font-size="12.00">16</text>
</g>
<!-- 17 -->
<g id="node10" class="node">
<title>17</title>
<ellipse fill="none" stroke="#4400ce" cx="428.51" cy="-18" rx="27" ry="18"/>
<text text-anchor="middle" x="428.51" y="-14.3" font-family="Times,serif" font-size="14.00">17</text>
</g>
<!-- 15&#45;&#45;17 -->
<g id="edge9" class="edge">
<title>15&#45;&#45;17</title>
<path fill="none" stroke="#4400ce" d="M399.24,-61.03C404.87,-52.75 411.65,-42.78 417.27,-34.52"/>
<text text-anchor="middle" x="416.25" y="-51.17" font-family="Times,serif" font-size="12.00">18</text>
</g>
</g>
</svg>
