<?xml version="1.0" encoding="UTF-8" standalone="no"?>
<!DOCTYPE svg PUBLIC "-//W3C//DTD SVG 1.1//EN"
 "http://www.w3.org/Graphics/SVG/1.1/DTD/svg11.dtd">
<!-- Generated by graphviz version 2.43.0 (0)
 -->
<!-- Pages: 1 -->
<svg width="448pt" height="540pt"
 viewBox="0.00 0.00 447.53 540.48" xmlns="http://www.w3.org/2000/svg" xmlns:xlink="http://www.w3.org/1999/xlink">
<g id="graph0" class="graph" transform="scale(1 1) rotate(0) translate(4 536.48)">
<polygon fill="white" stroke="transparent" points="-4,4 -4,-536.48 443.53,-536.48 443.53,4 -4,4"/>
<text text-anchor="middle" x="219.77" y="-521.28" font-family="Times,serif" font-size="14.00">1ffb90b1876f3dcf8afe831e2ff8e1d4</text>
<!-- 0 -->
<g id="node1" class="node">
<title>0</title>
<ellipse fill="none" stroke="#cecece" cx="27" cy="-495.48" rx="27" ry="18"/>
<text text-anchor="middle" x="27" y="-491.78" font-family="Times,serif" font-size="14.00">0</text>
</g>
<!-- 1 -->
<g id="node2" class="node">
<title>1</title>
<ellipse fill="none" stroke="#8967ce" cx="84.19" cy="-451.11" rx="27" ry="18"/>
<text text-anchor="middle" x="84.19" y="-447.41" font-family="Times,serif" font-size="14.00">1</text>
</g>
<!-- 0&#45;&#45;1 -->
<g id="edge1" class="edge">
<title>0&#45;&#45;1</title>
<path fill="none" stroke="#4400ce" d="M44.78,-481.68C51.6,-476.39 59.39,-470.35 66.23,-465.05"/>
<text text-anchor="middle" x="51.51" y="-463.77" font-family="Times,serif" font-size="12.00">2</text>
</g>
<!-- 3 -->
<g id="node3" class="node">
<title>3</title>
<ellipse fill="none" stroke="#4400ce" cx="132.88" cy="-397.61" rx="27" ry="18"/>
<text text-anchor="middle" x="132.88" y="-393.91" font-family="Times,serif" font-size="14.00">3</text>
</g>
<!-- 1&#45;&#45;3 -->
<g id="edge2" class="edge">
<title>1&#45;&#45;3</title>
<path fill="none" stroke="#4400ce" d="M98.28,-435.63C104.68,-428.6 112.24,-420.29 118.66,-413.23"/>
<text text-anchor="middle" x="104.47" y="-414.83" font-family="Times,serif" font-size="12.00">4</text>
</g>
<!-- 5 -->
<g id="node4" class="node">
<title>5</title>
<ellipse fill="none" stroke="#4400ce" cx="181.97" cy="-344.28" rx="27" ry="18"/>
<text text-anchor="middle" x="181.97" y="-340.58" font-family="Times,serif" font-size="14.00">5</text>
</g>
<!-- 3&#45;&#45;5 -->
<g id="edge3" class="edge">
<title>3&#45;&#45;5</title>
<path fill="none" stroke="#4400ce" d="M147.08,-382.18C153.53,-375.17 161.16,-366.89 167.63,-359.85"/>
<text text-anchor="middle" x="161.35" y="-374.42" font-family="Times,serif" font-size="12.00">6</text>
</g>
<!-- 7 -->
<g id="node5" class="node">
<title>7</title>
<ellipse fill="none" stroke="#4400ce" cx="222.98" cy="-284.41" rx="27" ry="18"/>
<text text-anchor="middle" x="222.98" y="-280.71" font-family="Times,serif" font-size="14.00">7</text>
</g>
<!-- 5&#45;&#45;7 -->
<g id="edge4" class="edge">
<title>5&#45;&#45;7</title>
<path fill="none" stroke="#4400ce" d="M193.39,-327.6C199.08,-319.3 205.94,-309.29 211.62,-300.99"/>
<text text-anchor="middle" x="206.5" y="-317.7" font-family="Times,serif" font-size="12.00">8</text>
</g>
<!-- 9 -->
<g id="node6" class="node">
<title>9</title>
<ellipse fill="none" stroke="#4400ce" cx="258.68" cy="-220.96" rx="27" ry="18"/>
<text text-anchor="middle" x="258.68" y="-217.26" font-family="Times,serif" font-size="14.00">9</text>
</g>
<!-- 7&#45;&#45;9 -->
<g id="edge5" class="edge">
<title>7&#45;&#45;9</title>
<path fill="none" stroke="#4400ce" d="M232.55,-267.4C237.67,-258.3 243.96,-247.12 249.09,-238.01"/>
<text text-anchor="middle" x="232.82" y="-256.11" font-family="Times,serif" font-size="12.00">10</text>
</g>
<!-- 11 -->
<g id="node7" class="node">
<title>11</title>
<ellipse fill="none" stroke="#4400ce" cx="294.74" cy="-156.91" rx="27" ry="18"/>
<text text-anchor="middle" x="294.74" y="-153.21" font-family="Times,serif" font-size="14.00">11</text>
</g>
<!-- 9&#45;&#45;11 -->
<g id="edge6" class="edge">
<title>9&#45;&#45;11</title>
<path fill="none" stroke="#4400ce" d="M268.34,-203.79C273.52,-194.6 279.87,-183.31 285.05,-174.12"/>
<text text-anchor="middle" x="268.7" y="-192.35" font-family="Times,serif" font-size="12.00">12</text>
</g>
<!-- 13 -->
<g id="node8" class="node">
<title>13</title>
<ellipse fill="none" stroke="#4400ce" cx="334.03" cy="-90.89" rx="27" ry="18"/>
<text text-anchor="middle" x="334.03" y="-87.19" font-family="Times,serif" font-size="14.00">13</text>
</g>
<!-- 11&#45;&#45;13 -->
<g id="edge7" class="edge">
<title>11&#45;&#45;13</title>
<path fill="none" stroke="#4400ce" d="M304.86,-139.9C310.68,-130.12 317.97,-117.87 323.81,-108.06"/>
<text text-anchor="middle" x="306.33" y="-127.38" font-family="Times,serif" font-size="12.00">14</text>
</g>
<!-- 15 -->
<g id="node9" class="node">
<title>15</title>
<ellipse fill="none" stroke="#4400ce" cx="303.91" cy="-18" rx="27" ry="18"/>
<text text-anchor="middle" x="303.91" y="-14.3" font-family="Times,serif" font-size="14.00">15</text>
</g>
<!-- 13&#45;&#45;15 -->
<g id="edge8" class="edge">
<title>13&#45;&#45;15</title>
<path fill="none" stroke="#4400ce" d="M326.73,-73.24C322,-61.78 315.85,-46.91 311.13,-35.48"/>
<text text-anchor="middle" x="310.93" y="-57.76" font-family="Times,serif" font-size="12.00">16</text>
</g>
<!-- 17 -->
<g id="node10" class="node">
<title>17</title>
<ellipse fill="none" stroke="#4400ce" cx="412.53" cy="-83.33" rx="27" ry="18"/>
<text text-anchor="middle" x="412.53" y="-79.63" font-family="Times,serif" font-size="14.00">17</text>
</g>
<!-- 13&#45;&#45;17 -->
<g id="edge9" class="edge">
<title>13&#45;&#45;17</title>
<path fill="none" stroke="#4400ce" d="M361.04,-88.29C369.03,-87.52 377.76,-86.68 385.73,-85.91"/>
<text text-anchor="middle" x="377.39" y="-77.5" font-family="Times,serif" font-size="12.00">18</text>
</g>
</g>
</svg>
