<?xml version="1.0" encoding="UTF-8" standalone="no"?>
<!DOCTYPE svg PUBLIC "-//W3C//DTD SVG 1.1//EN"
 "http://www.w3.org/Graphics/SVG/1.1/DTD/svg11.dtd">
<!-- Generated by graphviz version 2.43.0 (0)
 -->
<!-- Pages: 1 -->
<svg width="288pt" height="341pt"
 viewBox="0.00 0.00 288.00 341.48" xmlns="http://www.w3.org/2000/svg" xmlns:xlink="http://www.w3.org/1999/xlink">
<g id="graph0" class="graph" transform="scale(1 1) rotate(0) translate(4 337.48)">
<polygon fill="white" stroke="transparent" points="-4,4 -4,-337.48 284,-337.48 284,4 -4,4"/>
<text text-anchor="middle" x="140" y="-322.28" font-family="Times,serif" font-size="14.00">21c88f36d7624e203d32302b9d92ce76</text>
<!-- 0 -->
<g id="node1" class="node">
<title>0</title>
<ellipse fill="none" stroke="#cecece" cx="192.88" cy="-18" rx="27" ry="18"/>
<text text-anchor="middle" x="192.88" y="-14.3" font-family="Times,serif" font-size="14.00">0</text>
</g>
<!-- 1 -->
<g id="node2" class="node">
<title>1</title>
<ellipse fill="none" stroke="#8967ce" cx="182.31" cy="-91.42" rx="27" ry="18"/>
<text text-anchor="middle" x="182.31" y="-87.72" font-family="Times,serif" font-size="14.00">1</text>
</g>
<!-- 0&#45;&#45;1 -->
<g id="edge1" class="edge">
<title>0&#45;&#45;1</title>
<path fill="none" stroke="#4400ce" d="M190.27,-36.15C188.63,-47.53 186.52,-62.14 184.89,-73.48"/>
<text text-anchor="middle" x="183.58" y="-58.21" font-family="Times,serif" font-size="12.00">2</text>
</g>
<!-- 3 -->
<g id="node3" class="node">
<title>3</title>
<ellipse fill="none" stroke="#4400ce" cx="174.91" cy="-169.8" rx="27" ry="18"/>
<text text-anchor="middle" x="174.91" y="-166.1" font-family="Times,serif" font-size="14.00">3</text>
</g>
<!-- 1&#45;&#45;3 -->
<g id="edge2" class="edge">
<title>1&#45;&#45;3</title>
<path fill="none" stroke="#4400ce" d="M180.59,-109.6C179.39,-122.26 177.81,-139.08 176.61,-151.72"/>
<text text-anchor="middle" x="174.6" y="-134.06" font-family="Times,serif" font-size="12.00">4</text>
</g>
<!-- 5 -->
<g id="node4" class="node">
<title>5</title>
<ellipse fill="none" stroke="#4400ce" cx="108.96" cy="-217.45" rx="27" ry="18"/>
<text text-anchor="middle" x="108.96" y="-213.75" font-family="Times,serif" font-size="14.00">5</text>
</g>
<!-- 3&#45;&#45;5 -->
<g id="edge3" class="edge">
<title>3&#45;&#45;5</title>
<path fill="none" stroke="#4400ce" d="M156.54,-183.07C147.54,-189.57 136.73,-197.38 127.69,-203.92"/>
<text text-anchor="middle" x="138.11" y="-183.9" font-family="Times,serif" font-size="12.00">6</text>
</g>
<!-- 11 -->
<g id="node5" class="node">
<title>11</title>
<ellipse fill="none" stroke="#4400ce" cx="248.86" cy="-200.95" rx="27" ry="18"/>
<text text-anchor="middle" x="248.86" y="-197.25" font-family="Times,serif" font-size="14.00">11</text>
</g>
<!-- 3&#45;&#45;11 -->
<g id="edge4" class="edge">
<title>3&#45;&#45;11</title>
<path fill="none" stroke="#4400ce" d="M197.9,-179.48C206.81,-183.23 216.98,-187.52 225.88,-191.27"/>
<text text-anchor="middle" x="211.89" y="-175.77" font-family="Times,serif" font-size="12.00">12</text>
</g>
<!-- 7 -->
<g id="node6" class="node">
<title>7</title>
<ellipse fill="none" stroke="#4400ce" cx="106.83" cy="-296.48" rx="27" ry="18"/>
<text text-anchor="middle" x="106.83" y="-292.78" font-family="Times,serif" font-size="14.00">7</text>
</g>
<!-- 5&#45;&#45;7 -->
<g id="edge5" class="edge">
<title>5&#45;&#45;7</title>
<path fill="none" stroke="#4400ce" d="M108.47,-235.78C108.12,-248.55 107.66,-265.5 107.32,-278.25"/>
<text text-anchor="middle" x="103.89" y="-260.41" font-family="Times,serif" font-size="12.00">8</text>
</g>
<!-- 9 -->
<g id="node7" class="node">
<title>9</title>
<ellipse fill="none" stroke="#4400ce" cx="31.14" cy="-203.82" rx="27" ry="18"/>
<text text-anchor="middle" x="31.14" y="-200.12" font-family="Times,serif" font-size="14.00">9</text>
</g>
<!-- 5&#45;&#45;9 -->
<g id="edge6" class="edge">
<title>5&#45;&#45;9</title>
<path fill="none" stroke="#4400ce" d="M82.61,-212.84C74.5,-211.42 65.57,-209.85 57.46,-208.43"/>
<text text-anchor="middle" x="74.04" y="-201.04" font-family="Times,serif" font-size="12.00">10</text>
</g>
</g>
</svg>
