<?xml version="1.0" encoding="UTF-8" standalone="no"?>
<!DOCTYPE svg PUBLIC "-//W3C//DTD SVG 1.1//EN"
 "http://www.w3.org/Graphics/SVG/1.1/DTD/svg11.dtd">
<!-- Generated by graphviz version 2.43.0 (0)
 -->
<!-- Pages: 1 -->
<svg width="427pt" height="436pt"
 viewBox="0.00 0.00 427.24 436.40" xmlns="http://www.w3.org/2000/svg" xmlns:xlink="http://www.w3.org/1999/xlink">
<g id="graph0" class="graph" transform="scale(1 1) rotate(0) translate(4 432.4)">
<polygon fill="white" stroke="transparent" points="-4,4 -4,-432.4 423.24,-432.4 423.24,4 -4,4"/>
<text text-anchor="middle" x="209.62" y="-417.2" font-family="Times,serif" font-size="14.00">2c6b5d4460ab8ef9c1e58b75351fa002</text>
<!-- 0 -->
<g id="node1" class="node">
<title>0</title>
<ellipse fill="none" stroke="#cecece" cx="116.2" cy="-391.4" rx="27" ry="18"/>
<text text-anchor="middle" x="116.2" y="-387.7" font-family="Times,serif" font-size="14.00">0</text>
</g>
<!-- 1 -->
<g id="node2" class="node">
<title>1</title>
<ellipse fill="none" stroke="#8967ce" cx="104.99" cy="-313.38" rx="27" ry="18"/>
<text text-anchor="middle" x="104.99" y="-309.68" font-family="Times,serif" font-size="14.00">1</text>
</g>
<!-- 0&#45;&#45;1 -->
<g id="edge1" class="edge">
<title>0&#45;&#45;1</title>
<path fill="none" stroke="#4400ce" d="M113.6,-373.3C111.79,-360.7 109.38,-343.96 107.58,-331.37"/>
<text text-anchor="middle" x="106.59" y="-355.74" font-family="Times,serif" font-size="12.00">2</text>
</g>
<!-- 3 -->
<g id="node3" class="node">
<title>3</title>
<ellipse fill="none" stroke="#4400ce" cx="27" cy="-301.74" rx="27" ry="18"/>
<text text-anchor="middle" x="27" y="-298.04" font-family="Times,serif" font-size="14.00">3</text>
</g>
<!-- 1&#45;&#45;3 -->
<g id="edge2" class="edge">
<title>1&#45;&#45;3</title>
<path fill="none" stroke="#4400ce" d="M78.59,-309.44C70.45,-308.22 61.51,-306.89 53.38,-305.68"/>
<text text-anchor="middle" x="61.98" y="-310.96" font-family="Times,serif" font-size="12.00">4</text>
</g>
<!-- 5 -->
<g id="node4" class="node">
<title>5</title>
<ellipse fill="none" stroke="#4400ce" cx="160.02" cy="-259.5" rx="27" ry="18"/>
<text text-anchor="middle" x="160.02" y="-255.8" font-family="Times,serif" font-size="14.00">5</text>
</g>
<!-- 1&#45;&#45;5 -->
<g id="edge3" class="edge">
<title>1&#45;&#45;5</title>
<path fill="none" stroke="#4400ce" d="M120.32,-298.37C127.95,-290.89 137.15,-281.89 144.77,-274.42"/>
<text text-anchor="middle" x="128.55" y="-276.8" font-family="Times,serif" font-size="12.00">6</text>
</g>
<!-- 7 -->
<g id="node5" class="node">
<title>7</title>
<ellipse fill="none" stroke="#4400ce" cx="212.81" cy="-207.68" rx="27" ry="18"/>
<text text-anchor="middle" x="212.81" y="-203.98" font-family="Times,serif" font-size="14.00">7</text>
</g>
<!-- 5&#45;&#45;7 -->
<g id="edge4" class="edge">
<title>5&#45;&#45;7</title>
<path fill="none" stroke="#4400ce" d="M175.29,-244.51C182.23,-237.69 190.43,-229.64 197.39,-222.81"/>
<text text-anchor="middle" x="182.34" y="-224.06" font-family="Times,serif" font-size="12.00">8</text>
</g>
<!-- 9 -->
<g id="node6" class="node">
<title>9</title>
<ellipse fill="none" stroke="#4400ce" cx="262.33" cy="-152.68" rx="27" ry="18"/>
<text text-anchor="middle" x="262.33" y="-148.98" font-family="Times,serif" font-size="14.00">9</text>
</g>
<!-- 7&#45;&#45;9 -->
<g id="edge5" class="edge">
<title>7&#45;&#45;9</title>
<path fill="none" stroke="#4400ce" d="M226.87,-192.06C233.62,-184.57 241.68,-175.61 248.41,-168.14"/>
<text text-anchor="middle" x="229.64" y="-170.5" font-family="Times,serif" font-size="12.00">10</text>
</g>
<!-- 11 -->
<g id="node7" class="node">
<title>11</title>
<ellipse fill="none" stroke="#4400ce" cx="313.8" cy="-95.44" rx="27" ry="18"/>
<text text-anchor="middle" x="313.8" y="-91.74" font-family="Times,serif" font-size="14.00">11</text>
</g>
<!-- 9&#45;&#45;11 -->
<g id="edge6" class="edge">
<title>9&#45;&#45;11</title>
<path fill="none" stroke="#4400ce" d="M276.39,-137.03C283.66,-128.96 292.49,-119.13 299.76,-111.06"/>
<text text-anchor="middle" x="296.07" y="-127.45" font-family="Times,serif" font-size="12.00">12</text>
</g>
<!-- 13 -->
<g id="node8" class="node">
<title>13</title>
<ellipse fill="none" stroke="#4400ce" cx="392.24" cy="-103.31" rx="27" ry="18"/>
<text text-anchor="middle" x="392.24" y="-99.61" font-family="Times,serif" font-size="14.00">13</text>
</g>
<!-- 11&#45;&#45;13 -->
<g id="edge7" class="edge">
<title>11&#45;&#45;13</title>
<path fill="none" stroke="#4400ce" d="M340.8,-98.14C348.77,-98.94 357.5,-99.82 365.46,-100.62"/>
<text text-anchor="middle" x="357.13" y="-89.78" font-family="Times,serif" font-size="12.00">14</text>
</g>
<!-- 15 -->
<g id="node9" class="node">
<title>15</title>
<ellipse fill="none" stroke="#4400ce" cx="298.87" cy="-18" rx="27" ry="18"/>
<text text-anchor="middle" x="298.87" y="-14.3" font-family="Times,serif" font-size="14.00">15</text>
</g>
<!-- 11&#45;&#45;15 -->
<g id="edge8" class="edge">
<title>11&#45;&#45;15</title>
<path fill="none" stroke="#4400ce" d="M310.34,-77.48C307.93,-64.97 304.72,-48.35 302.31,-35.86"/>
<text text-anchor="middle" x="298.33" y="-60.07" font-family="Times,serif" font-size="12.00">16</text>
</g>
</g>
</svg>
