<?xml version="1.0" encoding="UTF-8" standalone="no"?>
<!DOCTYPE svg PUBLIC "-//W3C//DTD SVG 1.1//EN"
 "http://www.w3.org/Graphics/SVG/1.1/DTD/svg11.dtd">
<!-- Generated by graphviz version 2.43.0 (0)
 -->
<!-- Pages: 1 -->
<svg width="288pt" height="551pt"
 viewBox="0.00 0.00 288.00 550.73" xmlns="http://www.w3.org/2000/svg" xmlns:xlink="http://www.w3.org/1999/xlink">
<g id="graph0" class="graph" transform="scale(1 1) rotate(0) translate(4 546.73)">
<polygon fill="white" stroke="transparent" points="-4,4 -4,-546.73 284,-546.73 284,4 -4,4"/>
<text text-anchor="middle" x="140" y="-531.53" font-family="Times,serif" font-size="14.00">33fb4abbe27a1a31781db442c950063a</text>
<!-- 0 -->
<g id="node1" class="node">
<title>0</title>
<ellipse fill="none" stroke="#cecece" cx="67.23" cy="-362.63" rx="27" ry="18"/>
<text text-anchor="middle" x="67.23" y="-358.93" font-family="Times,serif" font-size="14.00">0</text>
</g>
<!-- 1 -->
<g id="node2" class="node">
<title>1</title>
<ellipse fill="none" stroke="#8967ce" cx="63.89" cy="-435.18" rx="27" ry="18"/>
<text text-anchor="middle" x="63.89" y="-431.48" font-family="Times,serif" font-size="14.00">1</text>
</g>
<!-- 0&#45;&#45;1 -->
<g id="edge1" class="edge">
<title>0&#45;&#45;1</title>
<path fill="none" stroke="#4400ce" d="M66.39,-380.94C65.88,-392.02 65.23,-406.09 64.72,-417.13"/>
<text text-anchor="middle" x="61.55" y="-402.43" font-family="Times,serif" font-size="12.00">2</text>
</g>
<!-- 5 -->
<g id="node3" class="node">
<title>5</title>
<ellipse fill="none" stroke="#4400ce" cx="86.96" cy="-292.76" rx="27" ry="18"/>
<text text-anchor="middle" x="86.96" y="-289.06" font-family="Times,serif" font-size="14.00">5</text>
</g>
<!-- 0&#45;&#45;5 -->
<g id="edge2" class="edge">
<title>0&#45;&#45;5</title>
<path fill="none" stroke="#4400ce" d="M72.31,-344.64C75.23,-334.29 78.9,-321.32 81.83,-310.94"/>
<text text-anchor="middle" x="73.07" y="-331.19" font-family="Times,serif" font-size="12.00">6</text>
</g>
<!-- 3 -->
<g id="node4" class="node">
<title>3</title>
<ellipse fill="none" stroke="#4400ce" cx="48.45" cy="-505.73" rx="27" ry="18"/>
<text text-anchor="middle" x="48.45" y="-502.03" font-family="Times,serif" font-size="14.00">3</text>
</g>
<!-- 1&#45;&#45;3 -->
<g id="edge3" class="edge">
<title>1&#45;&#45;3</title>
<path fill="none" stroke="#4400ce" d="M59.92,-453.35C57.59,-463.96 54.67,-477.3 52.36,-487.87"/>
<text text-anchor="middle" x="52.14" y="-474.01" font-family="Times,serif" font-size="12.00">4</text>
</g>
<!-- 7 -->
<g id="node5" class="node">
<title>7</title>
<ellipse fill="none" stroke="#4400ce" cx="114.02" cy="-225.2" rx="27" ry="18"/>
<text text-anchor="middle" x="114.02" y="-221.5" font-family="Times,serif" font-size="14.00">7</text>
</g>
<!-- 5&#45;&#45;7 -->
<g id="edge4" class="edge">
<title>5&#45;&#45;7</title>
<path fill="none" stroke="#4400ce" d="M93.93,-275.37C97.94,-265.36 102.96,-252.82 106.98,-242.78"/>
<text text-anchor="middle" x="96.46" y="-262.47" font-family="Times,serif" font-size="12.00">8</text>
</g>
<!-- 9 -->
<g id="node6" class="node">
<title>9</title>
<ellipse fill="none" stroke="#4400ce" cx="134" cy="-154.47" rx="27" ry="18"/>
<text text-anchor="middle" x="134" y="-150.77" font-family="Times,serif" font-size="14.00">9</text>
</g>
<!-- 7&#45;&#45;9 -->
<g id="edge5" class="edge">
<title>7&#45;&#45;9</title>
<path fill="none" stroke="#4400ce" d="M119.06,-207.35C122.07,-196.71 125.87,-183.24 128.89,-172.56"/>
<text text-anchor="middle" x="115.98" y="-193.36" font-family="Times,serif" font-size="12.00">10</text>
</g>
<!-- 11 -->
<g id="node7" class="node">
<title>11</title>
<ellipse fill="none" stroke="#4400ce" cx="157.05" cy="-81.22" rx="27" ry="18"/>
<text text-anchor="middle" x="157.05" y="-77.52" font-family="Times,serif" font-size="14.00">11</text>
</g>
<!-- 9&#45;&#45;11 -->
<g id="edge6" class="edge">
<title>9&#45;&#45;11</title>
<path fill="none" stroke="#4400ce" d="M139.58,-136.74C143.18,-125.31 147.84,-110.5 151.44,-99.05"/>
<text text-anchor="middle" x="137.51" y="-121.29" font-family="Times,serif" font-size="12.00">12</text>
</g>
<!-- 13 -->
<g id="node8" class="node">
<title>13</title>
<ellipse fill="none" stroke="#4400ce" cx="231.55" cy="-55.59" rx="27" ry="18"/>
<text text-anchor="middle" x="231.55" y="-51.89" font-family="Times,serif" font-size="14.00">13</text>
</g>
<!-- 11&#45;&#45;13 -->
<g id="edge7" class="edge">
<title>11&#45;&#45;13</title>
<path fill="none" stroke="#4400ce" d="M181.44,-72.83C189.76,-69.97 199.05,-66.77 207.35,-63.92"/>
<text text-anchor="middle" x="194.4" y="-58.77" font-family="Times,serif" font-size="12.00">14</text>
</g>
<!-- 15 -->
<g id="node9" class="node">
<title>15</title>
<ellipse fill="none" stroke="#4400ce" cx="110.05" cy="-18" rx="27" ry="18"/>
<text text-anchor="middle" x="110.05" y="-14.3" font-family="Times,serif" font-size="14.00">15</text>
</g>
<!-- 11&#45;&#45;15 -->
<g id="edge8" class="edge">
<title>11&#45;&#45;15</title>
<path fill="none" stroke="#4400ce" d="M144.95,-64.94C137.98,-55.58 129.26,-43.84 122.27,-34.45"/>
<text text-anchor="middle" x="125.61" y="-53.09" font-family="Times,serif" font-size="12.00">16</text>
</g>
</g>
</svg>
