<?xml version="1.0" encoding="UTF-8" standalone="no"?>
<!DOCTYPE svg PUBLIC "-//W3C//DTD SVG 1.1//EN"
 "http://www.w3.org/Graphics/SVG/1.1/DTD/svg11.dtd">
<!-- Generated by graphviz version 2.43.0 (0)
 -->
<!-- Pages: 1 -->
<svg width="368pt" height="420pt"
 viewBox="0.00 0.00 367.82 419.66" xmlns="http://www.w3.org/2000/svg" xmlns:xlink="http://www.w3.org/1999/xlink">
<g id="graph0" class="graph" transform="scale(1 1) rotate(0) translate(4 415.66)">
<polygon fill="white" stroke="transparent" points="-4,4 -4,-415.66 363.82,-415.66 363.82,4 -4,4"/>
<text text-anchor="middle" x="179.91" y="-400.46" font-family="Times,serif" font-size="14.00">37d1a02d1c6f14772932af997ff35218</text>
<!-- 0 -->
<g id="node1" class="node">
<title>0</title>
<ellipse fill="none" stroke="#cecece" cx="27" cy="-374.66" rx="27" ry="18"/>
<text text-anchor="middle" x="27" y="-370.96" font-family="Times,serif" font-size="14.00">0</text>
</g>
<!-- 1 -->
<g id="node2" class="node">
<title>1</title>
<ellipse fill="none" stroke="#8967ce" cx="83.47" cy="-329" rx="27" ry="18"/>
<text text-anchor="middle" x="83.47" y="-325.3" font-family="Times,serif" font-size="14.00">1</text>
</g>
<!-- 0&#45;&#45;1 -->
<g id="edge1" class="edge">
<title>0&#45;&#45;1</title>
<path fill="none" stroke="#4400ce" d="M44.25,-360.71C51.13,-355.15 59.03,-348.76 65.94,-343.18"/>
<text text-anchor="middle" x="51.09" y="-342.34" font-family="Times,serif" font-size="12.00">2</text>
</g>
<!-- 3 -->
<g id="node3" class="node">
<title>3</title>
<ellipse fill="none" stroke="#4400ce" cx="128.75" cy="-272.11" rx="27" ry="18"/>
<text text-anchor="middle" x="128.75" y="-268.41" font-family="Times,serif" font-size="14.00">3</text>
</g>
<!-- 1&#45;&#45;3 -->
<g id="edge2" class="edge">
<title>1&#45;&#45;3</title>
<path fill="none" stroke="#4400ce" d="M96.33,-312.85C102.5,-305.1 109.87,-295.83 116.02,-288.1"/>
<text text-anchor="middle" x="110.17" y="-303.87" font-family="Times,serif" font-size="12.00">4</text>
</g>
<!-- 5 -->
<g id="node4" class="node">
<title>5</title>
<ellipse fill="none" stroke="#4400ce" cx="173.29" cy="-214.11" rx="27" ry="18"/>
<text text-anchor="middle" x="173.29" y="-210.41" font-family="Times,serif" font-size="14.00">5</text>
</g>
<!-- 3&#45;&#45;5 -->
<g id="edge3" class="edge">
<title>3&#45;&#45;5</title>
<path fill="none" stroke="#4400ce" d="M141.16,-255.95C147.33,-247.91 154.78,-238.21 160.95,-230.18"/>
<text text-anchor="middle" x="155.05" y="-246.47" font-family="Times,serif" font-size="12.00">6</text>
</g>
<!-- 7 -->
<g id="node5" class="node">
<title>7</title>
<ellipse fill="none" stroke="#4400ce" cx="211.81" cy="-150.34" rx="27" ry="18"/>
<text text-anchor="middle" x="211.81" y="-146.64" font-family="Times,serif" font-size="14.00">7</text>
</g>
<!-- 5&#45;&#45;7 -->
<g id="edge4" class="edge">
<title>5&#45;&#45;7</title>
<path fill="none" stroke="#4400ce" d="M183.41,-197.36C189.03,-188.06 196,-176.52 201.63,-167.2"/>
<text text-anchor="middle" x="188.52" y="-185.68" font-family="Times,serif" font-size="12.00">8</text>
</g>
<!-- 9 -->
<g id="node6" class="node">
<title>9</title>
<ellipse fill="none" stroke="#4400ce" cx="254.48" cy="-83.89" rx="27" ry="18"/>
<text text-anchor="middle" x="254.48" y="-80.19" font-family="Times,serif" font-size="14.00">9</text>
</g>
<!-- 7&#45;&#45;9 -->
<g id="edge5" class="edge">
<title>7&#45;&#45;9</title>
<path fill="none" stroke="#4400ce" d="M222.58,-133.57C229,-123.57 237.12,-110.92 243.57,-100.88"/>
<text text-anchor="middle" x="225.07" y="-120.63" font-family="Times,serif" font-size="12.00">10</text>
</g>
<!-- 11 -->
<g id="node7" class="node">
<title>11</title>
<ellipse fill="none" stroke="#4400ce" cx="199.03" cy="-22.88" rx="27" ry="18"/>
<text text-anchor="middle" x="199.03" y="-19.18" font-family="Times,serif" font-size="14.00">11</text>
</g>
<!-- 9&#45;&#45;11 -->
<g id="edge6" class="edge">
<title>9&#45;&#45;11</title>
<path fill="none" stroke="#4400ce" d="M240.48,-68.49C232.14,-59.31 221.58,-47.7 213.21,-38.48"/>
<text text-anchor="middle" x="218.85" y="-56.89" font-family="Times,serif" font-size="12.00">12</text>
</g>
<!-- 13 -->
<g id="node8" class="node">
<title>13</title>
<ellipse fill="none" stroke="#4400ce" cx="332.82" cy="-109.56" rx="27" ry="18"/>
<text text-anchor="middle" x="332.82" y="-105.86" font-family="Times,serif" font-size="14.00">13</text>
</g>
<!-- 9&#45;&#45;13 -->
<g id="edge7" class="edge">
<title>9&#45;&#45;13</title>
<path fill="none" stroke="#4400ce" d="M278.84,-91.87C288.27,-94.96 299.05,-98.49 308.48,-101.58"/>
<text text-anchor="middle" x="297.66" y="-87.13" font-family="Times,serif" font-size="12.00">14</text>
</g>
<!-- 15 -->
<g id="node9" class="node">
<title>15</title>
<ellipse fill="none" stroke="#4400ce" cx="296.61" cy="-18" rx="27" ry="18"/>
<text text-anchor="middle" x="296.61" y="-14.3" font-family="Times,serif" font-size="14.00">15</text>
</g>
<!-- 9&#45;&#45;15 -->
<g id="edge8" class="edge">
<title>9&#45;&#45;15</title>
<path fill="none" stroke="#4400ce" d="M265.11,-67.26C271.45,-57.35 279.47,-44.8 285.83,-34.85"/>
<text text-anchor="middle" x="267.47" y="-54.46" font-family="Times,serif" font-size="12.00">16</text>
</g>
</g>
</svg>
