<?xml version="1.0" encoding="UTF-8" standalone="no"?>
<!DOCTYPE svg PUBLIC "-//W3C//DTD SVG 1.1//EN"
 "http://www.w3.org/Graphics/SVG/1.1/DTD/svg11.dtd">
<!-- Generated by graphviz version 2.43.0 (0)
 -->
<!-- Pages: 1 -->
<svg width="282pt" height="80pt"
 viewBox="0.00 0.00 282.00 79.93" xmlns="http://www.w3.org/2000/svg" xmlns:xlink="http://www.w3.org/1999/xlink">
<g id="graph0" class="graph" transform="scale(1 1) rotate(0) translate(4 75.93)">
<polygon fill="white" stroke="transparent" points="-4,4 -4,-75.93 278,-75.93 278,4 -4,4"/>
<text text-anchor="middle" x="137" y="-60.73" font-family="Times,serif" font-size="14.00">3d88a86db923f7361bd0f27bedf8bc28</text>
<!-- 0 -->
<g id="node1" class="node">
<title>0</title>
<ellipse fill="none" stroke="#cecece" cx="172.3" cy="-19.79" rx="27" ry="18"/>
<text text-anchor="middle" x="172.3" y="-16.09" font-family="Times,serif" font-size="14.00">0</text>
</g>
<!-- 1 -->
<g id="node2" class="node">
<title>1</title>
<ellipse fill="none" stroke="#8967ce" cx="244.17" cy="-25.11" rx="27" ry="18"/>
<text text-anchor="middle" x="244.17" y="-21.41" font-family="Times,serif" font-size="14.00">1</text>
</g>
<!-- 0&#45;&#45;1 -->
<g id="edge1" class="edge">
<title>0&#45;&#45;1</title>
<path fill="none" stroke="#4400ce" d="M199.47,-21.8C205.19,-22.23 211.24,-22.68 216.96,-23.1"/>
<text text-anchor="middle" x="204.22" y="-25.85" font-family="Times,serif" font-size="12.00">2</text>
</g>
<!-- 3 -->
<g id="node3" class="node">
<title>3</title>
<ellipse fill="none" stroke="#4400ce" cx="100.09" cy="-18" rx="27" ry="18"/>
<text text-anchor="middle" x="100.09" y="-14.3" font-family="Times,serif" font-size="14.00">3</text>
</g>
<!-- 0&#45;&#45;3 -->
<g id="edge2" class="edge">
<title>0&#45;&#45;3</title>
<path fill="none" stroke="#4400ce" d="M145,-19.11C139.25,-18.97 133.18,-18.82 127.43,-18.68"/>
<text text-anchor="middle" x="132.21" y="-22.3" font-family="Times,serif" font-size="12.00">4</text>
</g>
<!-- 5 -->
<g id="node4" class="node">
<title>5</title>
<ellipse fill="none" stroke="#4400ce" cx="29.83" cy="-34.93" rx="27" ry="18"/>
<text text-anchor="middle" x="29.83" y="-31.23" font-family="Times,serif" font-size="14.00">5</text>
</g>
<!-- 3&#45;&#45;5 -->
<g id="edge3" class="edge">
<title>3&#45;&#45;5</title>
<path fill="none" stroke="#4400ce" d="M74.32,-24.21C68.22,-25.68 61.7,-27.25 55.59,-28.72"/>
<text text-anchor="middle" x="60.96" y="-29.87" font-family="Times,serif" font-size="12.00">6</text>
</g>
</g>
</svg>
