<?xml version="1.0" encoding="UTF-8" standalone="no"?>
<!DOCTYPE svg PUBLIC "-//W3C//DTD SVG 1.1//EN"
 "http://www.w3.org/Graphics/SVG/1.1/DTD/svg11.dtd">
<!-- Generated by graphviz version 2.43.0 (0)
 -->
<!-- Pages: 1 -->
<svg width="273pt" height="195pt"
 viewBox="0.00 0.00 273.00 194.70" xmlns="http://www.w3.org/2000/svg" xmlns:xlink="http://www.w3.org/1999/xlink">
<g id="graph0" class="graph" transform="scale(1 1) rotate(0) translate(4 190.7)">
<polygon fill="white" stroke="transparent" points="-4,4 -4,-190.7 269,-190.7 269,4 -4,4"/>
<text text-anchor="middle" x="132.5" y="-175.5" font-family="Times,serif" font-size="14.00">42868506f1bfce74fa820f5b6b2f401c</text>
<!-- 0 -->
<g id="node1" class="node">
<title>0</title>
<ellipse fill="none" stroke="#cecece" cx="118.5" cy="-89.71" rx="27" ry="18"/>
<text text-anchor="middle" x="118.5" y="-86.01" font-family="Times,serif" font-size="14.00">0</text>
</g>
<!-- 1 -->
<g id="node2" class="node">
<title>1</title>
<ellipse fill="none" stroke="#8967ce" cx="194.38" cy="-101.49" rx="27" ry="18"/>
<text text-anchor="middle" x="194.38" y="-97.79" font-family="Times,serif" font-size="14.00">1</text>
</g>
<!-- 0&#45;&#45;1 -->
<g id="edge1" class="edge">
<title>0&#45;&#45;1</title>
<path fill="none" stroke="#4400ce" d="M145.04,-93.83C152.48,-94.98 160.56,-96.24 167.99,-97.39"/>
<text text-anchor="middle" x="152.51" y="-99.01" font-family="Times,serif" font-size="12.00">2</text>
</g>
<!-- 3 -->
<g id="node3" class="node">
<title>3</title>
<ellipse fill="none" stroke="#4400ce" cx="91.12" cy="-18" rx="27" ry="18"/>
<text text-anchor="middle" x="91.12" y="-14.3" font-family="Times,serif" font-size="14.00">3</text>
</g>
<!-- 0&#45;&#45;3 -->
<g id="edge2" class="edge">
<title>0&#45;&#45;3</title>
<path fill="none" stroke="#4400ce" d="M111.73,-71.98C107.49,-60.87 102.04,-46.6 97.81,-35.52"/>
<text text-anchor="middle" x="100.77" y="-57.15" font-family="Times,serif" font-size="12.00">4</text>
</g>
<!-- 5 -->
<g id="node4" class="node">
<title>5</title>
<ellipse fill="none" stroke="#4400ce" cx="70.62" cy="-149.7" rx="27" ry="18"/>
<text text-anchor="middle" x="70.62" y="-146" font-family="Times,serif" font-size="14.00">5</text>
</g>
<!-- 0&#45;&#45;5 -->
<g id="edge3" class="edge">
<title>0&#45;&#45;5</title>
<path fill="none" stroke="#4400ce" d="M105.67,-105.79C98.8,-114.39 90.36,-124.97 83.48,-133.58"/>
<text text-anchor="middle" x="90.58" y="-110.08" font-family="Times,serif" font-size="12.00">6</text>
</g>
</g>
</svg>
