<?xml version="1.0" encoding="UTF-8" standalone="no"?>
<!DOCTYPE svg PUBLIC "-//W3C//DTD SVG 1.1//EN"
 "http://www.w3.org/Graphics/SVG/1.1/DTD/svg11.dtd">
<!-- Generated by graphviz version 2.43.0 (0)
 -->
<!-- Pages: 1 -->
<svg width="287pt" height="353pt"
 viewBox="0.00 0.00 287.00 352.85" xmlns="http://www.w3.org/2000/svg" xmlns:xlink="http://www.w3.org/1999/xlink">
<g id="graph0" class="graph" transform="scale(1 1) rotate(0) translate(4 348.85)">
<polygon fill="white" stroke="transparent" points="-4,4 -4,-348.85 283,-348.85 283,4 -4,4"/>
<text text-anchor="middle" x="139.5" y="-333.65" font-family="Times,serif" font-size="14.00">443b25683736720013a25f95ab1e4f39</text>
<!-- 0 -->
<g id="node1" class="node">
<title>0</title>
<ellipse fill="none" stroke="#cecece" cx="96.29" cy="-282.59" rx="27" ry="18"/>
<text text-anchor="middle" x="96.29" y="-278.89" font-family="Times,serif" font-size="14.00">0</text>
</g>
<!-- 1 -->
<g id="node2" class="node">
<title>1</title>
<ellipse fill="none" stroke="#8967ce" cx="162.76" cy="-234.35" rx="27" ry="18"/>
<text text-anchor="middle" x="162.76" y="-230.65" font-family="Times,serif" font-size="14.00">1</text>
</g>
<!-- 0&#45;&#45;1 -->
<g id="edge1" class="edge">
<title>0&#45;&#45;1</title>
<path fill="none" stroke="#4400ce" d="M114.8,-269.15C124.02,-262.46 135.14,-254.39 144.34,-247.71"/>
<text text-anchor="middle" x="125.57" y="-248.83" font-family="Times,serif" font-size="12.00">2</text>
</g>
<!-- 3 -->
<g id="node3" class="node">
<title>3</title>
<ellipse fill="none" stroke="#4400ce" cx="244.54" cy="-226.58" rx="27" ry="18"/>
<text text-anchor="middle" x="244.54" y="-222.88" font-family="Times,serif" font-size="14.00">3</text>
</g>
<!-- 1&#45;&#45;3 -->
<g id="edge2" class="edge">
<title>1&#45;&#45;3</title>
<path fill="none" stroke="#4400ce" d="M189.53,-231.8C198.57,-230.95 208.66,-229.99 217.7,-229.13"/>
<text text-anchor="middle" x="199.62" y="-233.87" font-family="Times,serif" font-size="12.00">4</text>
</g>
<!-- 5 -->
<g id="node4" class="node">
<title>5</title>
<ellipse fill="none" stroke="#4400ce" cx="191.05" cy="-307.85" rx="27" ry="18"/>
<text text-anchor="middle" x="191.05" y="-304.15" font-family="Times,serif" font-size="14.00">5</text>
</g>
<!-- 1&#45;&#45;5 -->
<g id="edge3" class="edge">
<title>1&#45;&#45;5</title>
<path fill="none" stroke="#4400ce" d="M169.61,-252.14C174.05,-263.69 179.83,-278.69 184.26,-290.22"/>
<text text-anchor="middle" x="172.93" y="-274.58" font-family="Times,serif" font-size="12.00">6</text>
</g>
<!-- 7 -->
<g id="node5" class="node">
<title>7</title>
<ellipse fill="none" stroke="#4400ce" cx="134.16" cy="-159.49" rx="27" ry="18"/>
<text text-anchor="middle" x="134.16" y="-155.79" font-family="Times,serif" font-size="14.00">7</text>
</g>
<!-- 1&#45;&#45;7 -->
<g id="edge4" class="edge">
<title>1&#45;&#45;7</title>
<path fill="none" stroke="#4400ce" d="M155.98,-216.61C151.42,-204.67 145.44,-189.01 140.89,-177.1"/>
<text text-anchor="middle" x="144.44" y="-200.25" font-family="Times,serif" font-size="12.00">8</text>
</g>
<!-- 9 -->
<g id="node6" class="node">
<title>9</title>
<ellipse fill="none" stroke="#4400ce" cx="108.87" cy="-84.99" rx="27" ry="18"/>
<text text-anchor="middle" x="108.87" y="-81.29" font-family="Times,serif" font-size="14.00">9</text>
</g>
<!-- 7&#45;&#45;9 -->
<g id="edge5" class="edge">
<title>7&#45;&#45;9</title>
<path fill="none" stroke="#4400ce" d="M128.17,-141.83C124.17,-130.04 118.92,-114.59 114.91,-102.77"/>
<text text-anchor="middle" x="113.54" y="-125.7" font-family="Times,serif" font-size="12.00">10</text>
</g>
<!-- 11 -->
<g id="node7" class="node">
<title>11</title>
<ellipse fill="none" stroke="#4400ce" cx="34.46" cy="-58.29" rx="27" ry="18"/>
<text text-anchor="middle" x="34.46" y="-54.59" font-family="Times,serif" font-size="14.00">11</text>
</g>
<!-- 9&#45;&#45;11 -->
<g id="edge6" class="edge">
<title>9&#45;&#45;11</title>
<path fill="none" stroke="#4400ce" d="M84.92,-76.39C76.42,-73.34 66.86,-69.91 58.37,-66.87"/>
<text text-anchor="middle" x="71.64" y="-62.03" font-family="Times,serif" font-size="12.00">12</text>
</g>
<!-- 13 -->
<g id="node8" class="node">
<title>13</title>
<ellipse fill="none" stroke="#4400ce" cx="151.1" cy="-18" rx="27" ry="18"/>
<text text-anchor="middle" x="151.1" y="-14.3" font-family="Times,serif" font-size="14.00">13</text>
</g>
<!-- 9&#45;&#45;13 -->
<g id="edge7" class="edge">
<title>9&#45;&#45;13</title>
<path fill="none" stroke="#4400ce" d="M119.53,-68.08C125.98,-57.85 134.17,-44.86 140.59,-34.67"/>
<text text-anchor="middle" x="122.06" y="-54.77" font-family="Times,serif" font-size="12.00">14</text>
</g>
</g>
</svg>
