<?xml version="1.0" encoding="UTF-8" standalone="no"?>
<!DOCTYPE svg PUBLIC "-//W3C//DTD SVG 1.1//EN"
 "http://www.w3.org/Graphics/SVG/1.1/DTD/svg11.dtd">
<!-- Generated by graphviz version 2.43.0 (0)
 -->
<!-- Pages: 1 -->
<svg width="449pt" height="240pt"
 viewBox="0.00 0.00 448.54 240.18" xmlns="http://www.w3.org/2000/svg" xmlns:xlink="http://www.w3.org/1999/xlink">
<g id="graph0" class="graph" transform="scale(1 1) rotate(0) translate(4 236.18)">
<polygon fill="white" stroke="transparent" points="-4,4 -4,-236.18 444.54,-236.18 444.54,4 -4,4"/>
<text text-anchor="middle" x="220.27" y="-220.98" font-family="Times,serif" font-size="14.00">475764bde5ee6141ce4145a933ba8fd1</text>
<!-- 0 -->
<g id="node1" class="node">
<title>0</title>
<ellipse fill="none" stroke="#cecece" cx="413.54" cy="-18" rx="27" ry="18"/>
<text text-anchor="middle" x="413.54" y="-14.3" font-family="Times,serif" font-size="14.00">0</text>
</g>
<!-- 1 -->
<g id="node2" class="node">
<title>1</title>
<ellipse fill="none" stroke="#8967ce" cx="359.67" cy="-66.21" rx="27" ry="18"/>
<text text-anchor="middle" x="359.67" y="-62.51" font-family="Times,serif" font-size="14.00">1</text>
</g>
<!-- 0&#45;&#45;1 -->
<g id="edge1" class="edge">
<title>0&#45;&#45;1</title>
<path fill="none" stroke="#4400ce" d="M397.38,-32.47C390.56,-38.57 382.64,-45.66 375.82,-51.76"/>
<text text-anchor="middle" x="382.6" y="-32.51" font-family="Times,serif" font-size="12.00">2</text>
</g>
<!-- 3 -->
<g id="node3" class="node">
<title>3</title>
<ellipse fill="none" stroke="#4400ce" cx="300.06" cy="-107.23" rx="27" ry="18"/>
<text text-anchor="middle" x="300.06" y="-103.53" font-family="Times,serif" font-size="14.00">3</text>
</g>
<!-- 1&#45;&#45;3 -->
<g id="edge2" class="edge">
<title>1&#45;&#45;3</title>
<path fill="none" stroke="#4400ce" d="M340.81,-79.19C333.85,-83.98 325.97,-89.4 319.01,-94.19"/>
<text text-anchor="middle" x="325.91" y="-77.09" font-family="Times,serif" font-size="12.00">4</text>
</g>
<!-- 5 -->
<g id="node4" class="node">
<title>5</title>
<ellipse fill="none" stroke="#4400ce" cx="236.15" cy="-141.14" rx="27" ry="18"/>
<text text-anchor="middle" x="236.15" y="-137.44" font-family="Times,serif" font-size="14.00">5</text>
</g>
<!-- 3&#45;&#45;5 -->
<g id="edge3" class="edge">
<title>3&#45;&#45;5</title>
<path fill="none" stroke="#4400ce" d="M278.78,-118.52C271.95,-122.14 264.39,-126.15 257.56,-129.78"/>
<text text-anchor="middle" x="268.17" y="-114.55" font-family="Times,serif" font-size="12.00">6</text>
</g>
<!-- 7 -->
<g id="node5" class="node">
<title>7</title>
<ellipse fill="none" stroke="#4400ce" cx="168.61" cy="-167.18" rx="27" ry="18"/>
<text text-anchor="middle" x="168.61" y="-163.48" font-family="Times,serif" font-size="14.00">7</text>
</g>
<!-- 5&#45;&#45;7 -->
<g id="edge4" class="edge">
<title>5&#45;&#45;7</title>
<path fill="none" stroke="#4400ce" d="M212.53,-150.25C205.99,-152.77 198.88,-155.51 192.34,-158.03"/>
<text text-anchor="middle" x="204.43" y="-144.54" font-family="Times,serif" font-size="12.00">8</text>
</g>
<!-- 9 -->
<g id="node6" class="node">
<title>9</title>
<ellipse fill="none" stroke="#4400ce" cx="98.63" cy="-185.44" rx="27" ry="18"/>
<text text-anchor="middle" x="98.63" y="-181.74" font-family="Times,serif" font-size="14.00">9</text>
</g>
<!-- 7&#45;&#45;9 -->
<g id="edge5" class="edge">
<title>7&#45;&#45;9</title>
<path fill="none" stroke="#4400ce" d="M143.35,-173.77C137.08,-175.41 130.37,-177.16 124.09,-178.8"/>
<text text-anchor="middle" x="133.72" y="-166.69" font-family="Times,serif" font-size="12.00">10</text>
</g>
<!-- 11 -->
<g id="node7" class="node">
<title>11</title>
<ellipse fill="none" stroke="#4400ce" cx="27" cy="-195.18" rx="27" ry="18"/>
<text text-anchor="middle" x="27" y="-191.48" font-family="Times,serif" font-size="14.00">11</text>
</g>
<!-- 9&#45;&#45;11 -->
<g id="edge6" class="edge">
<title>9&#45;&#45;11</title>
<path fill="none" stroke="#4400ce" d="M71.96,-189.07C66.07,-189.87 59.83,-190.72 53.93,-191.52"/>
<text text-anchor="middle" x="62.94" y="-180.69" font-family="Times,serif" font-size="12.00">12</text>
</g>
</g>
</svg>
