<?xml version="1.0" encoding="UTF-8" standalone="no"?>
<!DOCTYPE svg PUBLIC "-//W3C//DTD SVG 1.1//EN"
 "http://www.w3.org/Graphics/SVG/1.1/DTD/svg11.dtd">
<!-- Generated by graphviz version 2.43.0 (0)
 -->
<!-- Pages: 1 -->
<svg width="379pt" height="607pt"
 viewBox="0.00 0.00 378.93 607.13" xmlns="http://www.w3.org/2000/svg" xmlns:xlink="http://www.w3.org/1999/xlink">
<g id="graph0" class="graph" transform="scale(1 1) rotate(0) translate(4 603.13)">
<polygon fill="white" stroke="transparent" points="-4,4 -4,-603.13 374.93,-603.13 374.93,4 -4,4"/>
<text text-anchor="middle" x="185.46" y="-587.93" font-family="Times,serif" font-size="14.00">48c0c45d06b49cae6d8d71933311f664</text>
<!-- 0 -->
<g id="node1" class="node">
<title>0</title>
<ellipse fill="none" stroke="#cecece" cx="27" cy="-562.13" rx="27" ry="18"/>
<text text-anchor="middle" x="27" y="-558.43" font-family="Times,serif" font-size="14.00">0</text>
</g>
<!-- 1 -->
<g id="node2" class="node">
<title>1</title>
<ellipse fill="none" stroke="#8967ce" cx="85.46" cy="-518.3" rx="27" ry="18"/>
<text text-anchor="middle" x="85.46" y="-514.6" font-family="Times,serif" font-size="14.00">1</text>
</g>
<!-- 0&#45;&#45;1 -->
<g id="edge1" class="edge">
<title>0&#45;&#45;1</title>
<path fill="none" stroke="#4400ce" d="M45.18,-548.5C52.28,-543.17 60.41,-537.08 67.5,-531.77"/>
<text text-anchor="middle" x="52.34" y="-530.54" font-family="Times,serif" font-size="12.00">2</text>
</g>
<!-- 3 -->
<g id="node3" class="node">
<title>3</title>
<ellipse fill="none" stroke="#4400ce" cx="147.17" cy="-476.6" rx="27" ry="18"/>
<text text-anchor="middle" x="147.17" y="-472.9" font-family="Times,serif" font-size="14.00">3</text>
</g>
<!-- 1&#45;&#45;3 -->
<g id="edge2" class="edge">
<title>1&#45;&#45;3</title>
<path fill="none" stroke="#4400ce" d="M104.65,-505.34C112.15,-500.27 120.73,-494.47 128.2,-489.42"/>
<text text-anchor="middle" x="112.42" y="-487.78" font-family="Times,serif" font-size="12.00">4</text>
</g>
<!-- 5 -->
<g id="node4" class="node">
<title>5</title>
<ellipse fill="none" stroke="#4400ce" cx="217.78" cy="-441.19" rx="27" ry="18"/>
<text text-anchor="middle" x="217.78" y="-437.49" font-family="Times,serif" font-size="14.00">5</text>
</g>
<!-- 3&#45;&#45;5 -->
<g id="edge3" class="edge">
<title>3&#45;&#45;5</title>
<path fill="none" stroke="#4400ce" d="M169.12,-465.59C177.7,-461.29 187.52,-456.36 196.08,-452.07"/>
<text text-anchor="middle" x="178.6" y="-462.23" font-family="Times,serif" font-size="12.00">6</text>
</g>
<!-- 7 -->
<g id="node5" class="node">
<title>7</title>
<ellipse fill="none" stroke="#4400ce" cx="279.93" cy="-493.07" rx="27" ry="18"/>
<text text-anchor="middle" x="279.93" y="-489.37" font-family="Times,serif" font-size="14.00">7</text>
</g>
<!-- 5&#45;&#45;7 -->
<g id="edge4" class="edge">
<title>5&#45;&#45;7</title>
<path fill="none" stroke="#4400ce" d="M234.76,-455.37C243.53,-462.69 254.2,-471.59 262.97,-478.91"/>
<text text-anchor="middle" x="244.86" y="-470.54" font-family="Times,serif" font-size="12.00">8</text>
</g>
<!-- 9 -->
<g id="node6" class="node">
<title>9</title>
<ellipse fill="none" stroke="#4400ce" cx="232.49" cy="-364.18" rx="27" ry="18"/>
<text text-anchor="middle" x="232.49" y="-360.48" font-family="Times,serif" font-size="14.00">9</text>
</g>
<!-- 5&#45;&#45;9 -->
<g id="edge5" class="edge">
<title>5&#45;&#45;9</title>
<path fill="none" stroke="#4400ce" d="M221.19,-423.33C223.55,-410.98 226.68,-394.6 229.04,-382.21"/>
<text text-anchor="middle" x="217.11" y="-406.17" font-family="Times,serif" font-size="12.00">10</text>
</g>
<!-- 11 -->
<g id="node7" class="node">
<title>11</title>
<ellipse fill="none" stroke="#4400ce" cx="250.59" cy="-292.11" rx="27" ry="18"/>
<text text-anchor="middle" x="250.59" y="-288.41" font-family="Times,serif" font-size="14.00">11</text>
</g>
<!-- 9&#45;&#45;11 -->
<g id="edge6" class="edge">
<title>9&#45;&#45;11</title>
<path fill="none" stroke="#4400ce" d="M236.96,-346.37C239.75,-335.28 243.32,-321.07 246.11,-309.97"/>
<text text-anchor="middle" x="233.53" y="-331.57" font-family="Times,serif" font-size="12.00">12</text>
</g>
<!-- 13 -->
<g id="node8" class="node">
<title>13</title>
<ellipse fill="none" stroke="#4400ce" cx="276.38" cy="-223.7" rx="27" ry="18"/>
<text text-anchor="middle" x="276.38" y="-220" font-family="Times,serif" font-size="14.00">13</text>
</g>
<!-- 11&#45;&#45;13 -->
<g id="edge7" class="edge">
<title>11&#45;&#45;13</title>
<path fill="none" stroke="#4400ce" d="M257.23,-274.5C261.05,-264.36 265.84,-251.66 269.67,-241.5"/>
<text text-anchor="middle" x="255.45" y="-261.4" font-family="Times,serif" font-size="12.00">14</text>
</g>
<!-- 15 -->
<g id="node9" class="node">
<title>15</title>
<ellipse fill="none" stroke="#4400ce" cx="299.72" cy="-154.94" rx="27" ry="18"/>
<text text-anchor="middle" x="299.72" y="-151.24" font-family="Times,serif" font-size="14.00">15</text>
</g>
<!-- 13&#45;&#45;15 -->
<g id="edge8" class="edge">
<title>13&#45;&#45;15</title>
<path fill="none" stroke="#4400ce" d="M282.39,-205.99C285.85,-195.81 290.18,-183.04 293.65,-172.83"/>
<text text-anchor="middle" x="280.02" y="-192.81" font-family="Times,serif" font-size="12.00">16</text>
</g>
<!-- 17 -->
<g id="node10" class="node">
<title>17</title>
<ellipse fill="none" stroke="#4400ce" cx="330.41" cy="-89.19" rx="27" ry="18"/>
<text text-anchor="middle" x="330.41" y="-85.48" font-family="Times,serif" font-size="14.00">17</text>
</g>
<!-- 15&#45;&#45;17 -->
<g id="edge9" class="edge">
<title>15&#45;&#45;17</title>
<path fill="none" stroke="#4400ce" d="M307.78,-137.66C312.26,-128.07 317.81,-116.18 322.29,-106.57"/>
<text text-anchor="middle" x="307.04" y="-125.52" font-family="Times,serif" font-size="12.00">18</text>
</g>
<!-- 19 -->
<g id="node11" class="node">
<title>19</title>
<ellipse fill="none" stroke="#4400ce" cx="343.93" cy="-18" rx="27" ry="18"/>
<text text-anchor="middle" x="343.93" y="-14.3" font-family="Times,serif" font-size="14.00">19</text>
</g>
<!-- 17&#45;&#45;19 -->
<g id="edge10" class="edge">
<title>17&#45;&#45;19</title>
<path fill="none" stroke="#4400ce" d="M333.82,-71.22C335.85,-60.51 338.43,-46.96 340.47,-36.2"/>
<text text-anchor="middle" x="329.15" y="-57.11" font-family="Times,serif" font-size="12.00">20</text>
</g>
</g>
</svg>
