<?xml version="1.0" encoding="UTF-8" standalone="no"?>
<!DOCTYPE svg PUBLIC "-//W3C//DTD SVG 1.1//EN"
 "http://www.w3.org/Graphics/SVG/1.1/DTD/svg11.dtd">
<!-- Generated by graphviz version 2.43.0 (0)
 -->
<!-- Pages: 1 -->
<svg width="355pt" height="339pt"
 viewBox="0.00 0.00 355.34 339.14" xmlns="http://www.w3.org/2000/svg" xmlns:xlink="http://www.w3.org/1999/xlink">
<g id="graph0" class="graph" transform="scale(1 1) rotate(0) translate(4 335.14)">
<polygon fill="white" stroke="transparent" points="-4,4 -4,-335.14 351.34,-335.14 351.34,4 -4,4"/>
<text text-anchor="middle" x="173.67" y="-319.94" font-family="Times,serif" font-size="14.00">498113bb21743dd6330af27d8d3fc7c5</text>
<!-- 0 -->
<g id="node1" class="node">
<title>0</title>
<ellipse fill="none" stroke="#cecece" cx="220.13" cy="-189.88" rx="27" ry="18"/>
<text text-anchor="middle" x="220.13" y="-186.18" font-family="Times,serif" font-size="14.00">0</text>
</g>
<!-- 1 -->
<g id="node2" class="node">
<title>1</title>
<ellipse fill="none" stroke="#8967ce" cx="274.51" cy="-238.07" rx="27" ry="18"/>
<text text-anchor="middle" x="274.51" y="-234.37" font-family="Times,serif" font-size="14.00">1</text>
</g>
<!-- 0&#45;&#45;1 -->
<g id="edge1" class="edge">
<title>0&#45;&#45;1</title>
<path fill="none" stroke="#4400ce" d="M236.45,-204.34C243.33,-210.44 251.33,-217.52 258.21,-223.62"/>
<text text-anchor="middle" x="243.33" y="-217.38" font-family="Times,serif" font-size="12.00">2</text>
</g>
<!-- 5 -->
<g id="node3" class="node">
<title>5</title>
<ellipse fill="none" stroke="#4400ce" cx="162.37" cy="-144.56" rx="27" ry="18"/>
<text text-anchor="middle" x="162.37" y="-140.86" font-family="Times,serif" font-size="14.00">5</text>
</g>
<!-- 0&#45;&#45;5 -->
<g id="edge2" class="edge">
<title>0&#45;&#45;5</title>
<path fill="none" stroke="#4400ce" d="M202.49,-176.04C195.32,-170.41 187.06,-163.93 179.9,-158.32"/>
<text text-anchor="middle" x="187.2" y="-170.58" font-family="Times,serif" font-size="12.00">6</text>
</g>
<!-- 3 -->
<g id="node4" class="node">
<title>3</title>
<ellipse fill="none" stroke="#4400ce" cx="320.34" cy="-294.14" rx="27" ry="18"/>
<text text-anchor="middle" x="320.34" y="-290.44" font-family="Times,serif" font-size="14.00">3</text>
</g>
<!-- 1&#45;&#45;3 -->
<g id="edge3" class="edge">
<title>1&#45;&#45;3</title>
<path fill="none" stroke="#4400ce" d="M287.52,-253.98C293.66,-261.5 300.98,-270.45 307.14,-277.99"/>
<text text-anchor="middle" x="293.33" y="-269.39" font-family="Times,serif" font-size="12.00">4</text>
</g>
<!-- 7 -->
<g id="node5" class="node">
<title>7</title>
<ellipse fill="none" stroke="#4400ce" cx="102.63" cy="-96.3" rx="27" ry="18"/>
<text text-anchor="middle" x="102.63" y="-92.6" font-family="Times,serif" font-size="14.00">7</text>
</g>
<!-- 5&#45;&#45;7 -->
<g id="edge4" class="edge">
<title>5&#45;&#45;7</title>
<path fill="none" stroke="#4400ce" d="M145.09,-130.6C137.23,-124.26 127.95,-116.76 120.07,-110.4"/>
<text text-anchor="middle" x="128.58" y="-123.9" font-family="Times,serif" font-size="12.00">8</text>
</g>
<!-- 9 -->
<g id="node6" class="node">
<title>9</title>
<ellipse fill="none" stroke="#4400ce" cx="27" cy="-117.33" rx="27" ry="18"/>
<text text-anchor="middle" x="27" y="-113.63" font-family="Times,serif" font-size="14.00">9</text>
</g>
<!-- 7&#45;&#45;9 -->
<g id="edge5" class="edge">
<title>7&#45;&#45;9</title>
<path fill="none" stroke="#4400ce" d="M77.44,-103.3C69.28,-105.57 60.23,-108.09 52.07,-110.36"/>
<text text-anchor="middle" x="64.76" y="-97.23" font-family="Times,serif" font-size="12.00">10</text>
</g>
<!-- 11 -->
<g id="node7" class="node">
<title>11</title>
<ellipse fill="none" stroke="#4400ce" cx="108" cy="-18" rx="27" ry="18"/>
<text text-anchor="middle" x="108" y="-14.3" font-family="Times,serif" font-size="14.00">11</text>
</g>
<!-- 7&#45;&#45;11 -->
<g id="edge6" class="edge">
<title>7&#45;&#45;11</title>
<path fill="none" stroke="#4400ce" d="M103.87,-78.14C104.74,-65.49 105.89,-48.69 106.76,-36.06"/>
<text text-anchor="middle" x="97.32" y="-60.5" font-family="Times,serif" font-size="12.00">12</text>
</g>
</g>
</svg>
