<?xml version="1.0" encoding="UTF-8" standalone="no"?>
<!DOCTYPE svg PUBLIC "-//W3C//DTD SVG 1.1//EN"
 "http://www.w3.org/Graphics/SVG/1.1/DTD/svg11.dtd">
<!-- Generated by graphviz version 2.43.0 (0)
 -->
<!-- Pages: 1 -->
<svg width="273pt" height="252pt"
 viewBox="0.00 0.00 273.00 252.25" xmlns="http://www.w3.org/2000/svg" xmlns:xlink="http://www.w3.org/1999/xlink">
<g id="graph0" class="graph" transform="scale(1 1) rotate(0) translate(4 248.25)">
<polygon fill="white" stroke="transparent" points="-4,4 -4,-248.25 269,-248.25 269,4 -4,4"/>
<text text-anchor="middle" x="132.5" y="-233.05" font-family="Times,serif" font-size="14.00">49bc5e6cbc3bc06d294ffff81457a738</text>
<!-- 0 -->
<g id="node1" class="node">
<title>0</title>
<ellipse fill="none" stroke="#cecece" cx="124.07" cy="-81.44" rx="27" ry="18"/>
<text text-anchor="middle" x="124.07" y="-77.74" font-family="Times,serif" font-size="14.00">0</text>
</g>
<!-- 1 -->
<g id="node2" class="node">
<title>1</title>
<ellipse fill="none" stroke="#8967ce" cx="171.75" cy="-144.84" rx="27" ry="18"/>
<text text-anchor="middle" x="171.75" y="-141.14" font-family="Times,serif" font-size="14.00">1</text>
</g>
<!-- 0&#45;&#45;1 -->
<g id="edge1" class="edge">
<title>0&#45;&#45;1</title>
<path fill="none" stroke="#4400ce" d="M136.35,-97.77C143.42,-107.16 152.27,-118.93 159.35,-128.35"/>
<text text-anchor="middle" x="143.85" y="-116.46" font-family="Times,serif" font-size="12.00">2</text>
</g>
<!-- 5 -->
<g id="node3" class="node">
<title>5</title>
<ellipse fill="none" stroke="#4400ce" cx="76.74" cy="-18" rx="27" ry="18"/>
<text text-anchor="middle" x="76.74" y="-14.3" font-family="Times,serif" font-size="14.00">5</text>
</g>
<!-- 0&#45;&#45;5 -->
<g id="edge2" class="edge">
<title>0&#45;&#45;5</title>
<path fill="none" stroke="#4400ce" d="M111.88,-65.11C104.87,-55.71 96.09,-43.93 89.06,-34.5"/>
<text text-anchor="middle" x="96.47" y="-53.2" font-family="Times,serif" font-size="12.00">6</text>
</g>
<!-- 7 -->
<g id="node4" class="node">
<title>7</title>
<ellipse fill="none" stroke="#4400ce" cx="52.95" cy="-119.95" rx="27" ry="18"/>
<text text-anchor="middle" x="52.95" y="-116.25" font-family="Times,serif" font-size="14.00">7</text>
</g>
<!-- 0&#45;&#45;7 -->
<g id="edge3" class="edge">
<title>0&#45;&#45;7</title>
<path fill="none" stroke="#4400ce" d="M102.73,-93C93.73,-97.87 83.27,-103.53 74.27,-108.41"/>
<text text-anchor="middle" x="84.5" y="-104.1" font-family="Times,serif" font-size="12.00">8</text>
</g>
<!-- 9 -->
<g id="node5" class="node">
<title>9</title>
<ellipse fill="none" stroke="#4400ce" cx="181.63" cy="-24.56" rx="27" ry="18"/>
<text text-anchor="middle" x="181.63" y="-20.86" font-family="Times,serif" font-size="14.00">9</text>
</g>
<!-- 0&#45;&#45;9 -->
<g id="edge4" class="edge">
<title>0&#45;&#45;9</title>
<path fill="none" stroke="#4400ce" d="M139.19,-66.5C147.59,-58.2 158,-47.91 166.41,-39.6"/>
<text text-anchor="middle" x="144.8" y="-43.45" font-family="Times,serif" font-size="12.00">10</text>
</g>
<!-- 3 -->
<g id="node6" class="node">
<title>3</title>
<ellipse fill="none" stroke="#4400ce" cx="212.05" cy="-207.25" rx="27" ry="18"/>
<text text-anchor="middle" x="212.05" y="-203.55" font-family="Times,serif" font-size="14.00">3</text>
</g>
<!-- 1&#45;&#45;3 -->
<g id="edge5" class="edge">
<title>1&#45;&#45;3</title>
<path fill="none" stroke="#4400ce" d="M182.55,-161.56C188.33,-170.52 195.44,-181.52 201.22,-190.48"/>
<text text-anchor="middle" x="187.89" y="-179.42" font-family="Times,serif" font-size="12.00">4</text>
</g>
</g>
</svg>
