<?xml version="1.0" encoding="UTF-8" standalone="no"?>
<!DOCTYPE svg PUBLIC "-//W3C//DTD SVG 1.1//EN"
 "http://www.w3.org/Graphics/SVG/1.1/DTD/svg11.dtd">
<!-- Generated by graphviz version 2.43.0 (0)
 -->
<!-- Pages: 1 -->
<svg width="1043pt" height="344pt"
 viewBox="0.00 0.00 1042.50 344.21" xmlns="http://www.w3.org/2000/svg" xmlns:xlink="http://www.w3.org/1999/xlink">
<g id="graph0" class="graph" transform="scale(1 1) rotate(0) translate(4 340.21)">
<polygon fill="white" stroke="transparent" points="-4,4 -4,-340.21 1038.5,-340.21 1038.5,4 -4,4"/>
<text text-anchor="middle" x="517.26" y="-325.01" font-family="Times,serif" font-size="14.00">50531ed60aca58ab684db014aa54850b</text>
<!-- 0 -->
<g id="node1" class="node">
<title>0</title>
<ellipse fill="none" stroke="#cecece" cx="27" cy="-23.42" rx="27" ry="18"/>
<text text-anchor="middle" x="27" y="-19.72" font-family="Times,serif" font-size="14.00">0</text>
</g>
<!-- 1 -->
<g id="node2" class="node">
<title>1</title>
<ellipse fill="none" stroke="#8967ce" cx="99.15" cy="-22.53" rx="27" ry="18"/>
<text text-anchor="middle" x="99.15" y="-18.83" font-family="Times,serif" font-size="14.00">1</text>
</g>
<!-- 0&#45;&#45;1 -->
<g id="edge1" class="edge">
<title>0&#45;&#45;1</title>
<path fill="none" stroke="#4400ce" d="M54.28,-23.09C60.02,-23.01 66.09,-22.94 71.83,-22.87"/>
<text text-anchor="middle" x="59.05" y="-26.38" font-family="Times,serif" font-size="12.00">2</text>
</g>
<!-- 3 -->
<g id="node3" class="node">
<title>3</title>
<ellipse fill="none" stroke="#4400ce" cx="171.37" cy="-18" rx="27" ry="18"/>
<text text-anchor="middle" x="171.37" y="-14.3" font-family="Times,serif" font-size="14.00">3</text>
</g>
<!-- 1&#45;&#45;3 -->
<g id="edge2" class="edge">
<title>1&#45;&#45;3</title>
<path fill="none" stroke="#4400ce" d="M126.04,-20.84C131.98,-20.47 138.27,-20.07 144.21,-19.7"/>
<text text-anchor="middle" x="131.13" y="-23.67" font-family="Times,serif" font-size="12.00">4</text>
</g>
<!-- 5 -->
<g id="node4" class="node">
<title>5</title>
<ellipse fill="none" stroke="#4400ce" cx="243.11" cy="-27.43" rx="27" ry="18"/>
<text text-anchor="middle" x="243.11" y="-23.73" font-family="Times,serif" font-size="14.00">5</text>
</g>
<!-- 3&#45;&#45;5 -->
<g id="edge3" class="edge">
<title>3&#45;&#45;5</title>
<path fill="none" stroke="#4400ce" d="M198.08,-21.51C204.14,-22.31 210.57,-23.15 216.61,-23.95"/>
<text text-anchor="middle" x="203.35" y="-26.13" font-family="Times,serif" font-size="12.00">6</text>
</g>
<!-- 7 -->
<g id="node5" class="node">
<title>7</title>
<ellipse fill="none" stroke="#4400ce" cx="315.33" cy="-31.21" rx="27" ry="18"/>
<text text-anchor="middle" x="315.33" y="-27.51" font-family="Times,serif" font-size="14.00">7</text>
</g>
<!-- 5&#45;&#45;7 -->
<g id="edge4" class="edge">
<title>5&#45;&#45;7</title>
<path fill="none" stroke="#4400ce" d="M270.41,-28.86C276.16,-29.16 282.23,-29.48 287.99,-29.78"/>
<text text-anchor="middle" x="275.2" y="-32.72" font-family="Times,serif" font-size="12.00">8</text>
</g>
<!-- 9 -->
<g id="node6" class="node">
<title>9</title>
<ellipse fill="none" stroke="#4400ce" cx="387.75" cy="-33.07" rx="27" ry="18"/>
<text text-anchor="middle" x="387.75" y="-29.37" font-family="Times,serif" font-size="14.00">9</text>
</g>
<!-- 7&#45;&#45;9 -->
<g id="edge5" class="edge">
<title>7&#45;&#45;9</title>
<path fill="none" stroke="#4400ce" d="M342.71,-31.91C348.48,-32.06 354.56,-32.21 360.33,-32.36"/>
<text text-anchor="middle" x="351.52" y="-22.54" font-family="Times,serif" font-size="12.00">10</text>
</g>
<!-- 11 -->
<g id="node7" class="node">
<title>11</title>
<ellipse fill="none" stroke="#4400ce" cx="459.74" cy="-41.81" rx="27" ry="18"/>
<text text-anchor="middle" x="459.74" y="-38.11" font-family="Times,serif" font-size="14.00">11</text>
</g>
<!-- 9&#45;&#45;11 -->
<g id="edge6" class="edge">
<title>9&#45;&#45;11</title>
<path fill="none" stroke="#4400ce" d="M414.56,-36.32C420.63,-37.06 427.08,-37.84 433.15,-38.58"/>
<text text-anchor="middle" x="423.85" y="-27.85" font-family="Times,serif" font-size="12.00">12</text>
</g>
<!-- 13 -->
<g id="node8" class="node">
<title>13</title>
<ellipse fill="none" stroke="#4400ce" cx="530.64" cy="-57.09" rx="27" ry="18"/>
<text text-anchor="middle" x="530.64" y="-53.39" font-family="Times,serif" font-size="14.00">13</text>
</g>
<!-- 11&#45;&#45;13 -->
<g id="edge7" class="edge">
<title>11&#45;&#45;13</title>
<path fill="none" stroke="#4400ce" d="M485.74,-47.41C491.9,-48.74 498.48,-50.16 504.65,-51.49"/>
<text text-anchor="middle" x="495.19" y="-39.85" font-family="Times,serif" font-size="12.00">14</text>
</g>
<!-- 15 -->
<g id="node9" class="node">
<title>15</title>
<ellipse fill="none" stroke="#4400ce" cx="600.66" cy="-76.12" rx="27" ry="18"/>
<text text-anchor="middle" x="600.66" y="-72.42" font-family="Times,serif" font-size="14.00">15</text>
</g>
<!-- 13&#45;&#45;15 -->
<g id="edge8" class="edge">
<title>13&#45;&#45;15</title>
<path fill="none" stroke="#4400ce" d="M555.92,-63.96C562.34,-65.71 569.24,-67.58 575.65,-69.33"/>
<text text-anchor="middle" x="565.79" y="-57.04" font-family="Times,serif" font-size="12.00">16</text>
</g>
<!-- 17 -->
<g id="node10" class="node">
<title>17</title>
<ellipse fill="none" stroke="#4400ce" cx="669.16" cy="-100.15" rx="27" ry="18"/>
<text text-anchor="middle" x="669.16" y="-96.45" font-family="Times,serif" font-size="14.00">17</text>
</g>
<!-- 15&#45;&#45;17 -->
<g id="edge9" class="edge">
<title>15&#45;&#45;17</title>
<path fill="none" stroke="#4400ce" d="M624.62,-84.53C631.25,-86.85 638.46,-89.38 645.1,-91.71"/>
<text text-anchor="middle" x="634.86" y="-78.52" font-family="Times,serif" font-size="12.00">18</text>
</g>
<!-- 19 -->
<g id="node11" class="node">
<title>19</title>
<ellipse fill="none" stroke="#4400ce" cx="735.97" cy="-128.79" rx="27" ry="18"/>
<text text-anchor="middle" x="735.97" y="-125.09" font-family="Times,serif" font-size="14.00">19</text>
</g>
<!-- 17&#45;&#45;19 -->
<g id="edge10" class="edge">
<title>17&#45;&#45;19</title>
<path fill="none" stroke="#4400ce" d="M692.15,-110.01C698.95,-112.92 706.38,-116.11 713.16,-119.01"/>
<text text-anchor="middle" x="706.66" y="-104.91" font-family="Times,serif" font-size="12.00">20</text>
</g>
<!-- 21 -->
<g id="node12" class="node">
<title>21</title>
<ellipse fill="none" stroke="#4400ce" cx="801.52" cy="-160.69" rx="27" ry="18"/>
<text text-anchor="middle" x="801.52" y="-156.99" font-family="Times,serif" font-size="14.00">21</text>
</g>
<!-- 19&#45;&#45;21 -->
<g id="edge11" class="edge">
<title>19&#45;&#45;21</title>
<path fill="none" stroke="#4400ce" d="M757.8,-139.41C764.8,-142.82 772.55,-146.59 779.57,-150"/>
<text text-anchor="middle" x="772.68" y="-135.11" font-family="Times,serif" font-size="12.00">22</text>
</g>
<!-- 23 -->
<g id="node13" class="node">
<title>23</title>
<ellipse fill="none" stroke="#4400ce" cx="868.14" cy="-192.05" rx="27" ry="18"/>
<text text-anchor="middle" x="868.14" y="-188.35" font-family="Times,serif" font-size="14.00">23</text>
</g>
<!-- 21&#45;&#45;23 -->
<g id="edge12" class="edge">
<title>21&#45;&#45;23</title>
<path fill="none" stroke="#4400ce" d="M823.71,-171.13C830.82,-174.48 838.7,-178.19 845.83,-181.54"/>
<text text-anchor="middle" x="838.77" y="-166.74" font-family="Times,serif" font-size="12.00">24</text>
</g>
<!-- 25 -->
<g id="node14" class="node">
<title>25</title>
<ellipse fill="none" stroke="#4400ce" cx="938.63" cy="-222.59" rx="27" ry="18"/>
<text text-anchor="middle" x="938.63" y="-218.89" font-family="Times,serif" font-size="14.00">25</text>
</g>
<!-- 23&#45;&#45;25 -->
<g id="edge13" class="edge">
<title>23&#45;&#45;25</title>
<path fill="none" stroke="#4400ce" d="M890.83,-201.88C898.88,-205.37 907.93,-209.29 915.98,-212.77"/>
<text text-anchor="middle" x="903.41" y="-197.73" font-family="Times,serif" font-size="12.00">26</text>
</g>
<!-- 27 -->
<g id="node15" class="node">
<title>27</title>
<ellipse fill="none" stroke="#4400ce" cx="958.4" cy="-299.21" rx="27" ry="18"/>
<text text-anchor="middle" x="958.4" y="-295.51" font-family="Times,serif" font-size="14.00">27</text>
</g>
<!-- 25&#45;&#45;27 -->
<g id="edge14" class="edge">
<title>25&#45;&#45;27</title>
<path fill="none" stroke="#4400ce" d="M943.21,-240.36C946.38,-252.65 950.59,-268.94 953.77,-281.27"/>
<text text-anchor="middle" x="940.49" y="-264.21" font-family="Times,serif" font-size="12.00">28</text>
</g>
<!-- 29 -->
<g id="node16" class="node">
<title>29</title>
<ellipse fill="none" stroke="#4400ce" cx="1007.5" cy="-183.67" rx="27" ry="18"/>
<text text-anchor="middle" x="1007.5" y="-179.97" font-family="Times,serif" font-size="14.00">29</text>
</g>
<!-- 25&#45;&#45;29 -->
<g id="edge15" class="edge">
<title>25&#45;&#45;29</title>
<path fill="none" stroke="#4400ce" d="M959.3,-210.91C968.02,-205.98 978.15,-200.26 986.87,-195.34"/>
<text text-anchor="middle" x="965.08" y="-193.52" font-family="Times,serif" font-size="12.00">30</text>
</g>
</g>
</svg>
