<?xml version="1.0" encoding="UTF-8" standalone="no"?>
<!DOCTYPE svg PUBLIC "-//W3C//DTD SVG 1.1//EN"
 "http://www.w3.org/Graphics/SVG/1.1/DTD/svg11.dtd">
<!-- Generated by graphviz version 2.43.0 (0)
 -->
<!-- Pages: 1 -->
<svg width="285pt" height="125pt"
 viewBox="0.00 0.00 285.00 125.41" xmlns="http://www.w3.org/2000/svg" xmlns:xlink="http://www.w3.org/1999/xlink">
<g id="graph0" class="graph" transform="scale(1 1) rotate(0) translate(4 121.41)">
<polygon fill="white" stroke="transparent" points="-4,4 -4,-121.41 281,-121.41 281,4 -4,4"/>
<text text-anchor="middle" x="138.5" y="-106.21" font-family="Times,serif" font-size="14.00">5195009539e38e871dff7b57c574b192</text>
<!-- 0 -->
<g id="node1" class="node">
<title>0</title>
<ellipse fill="none" stroke="#cecece" cx="102.4" cy="-79.93" rx="27" ry="18"/>
<text text-anchor="middle" x="102.4" y="-76.23" font-family="Times,serif" font-size="14.00">0</text>
</g>
<!-- 1 -->
<g id="node2" class="node">
<title>1</title>
<ellipse fill="none" stroke="#8967ce" cx="174.6" cy="-80.41" rx="27" ry="18"/>
<text text-anchor="middle" x="174.6" y="-76.71" font-family="Times,serif" font-size="14.00">1</text>
</g>
<!-- 0&#45;&#45;1 -->
<g id="edge1" class="edge">
<title>0&#45;&#45;1</title>
<path fill="none" stroke="#4400ce" d="M129.69,-80.11C135.45,-80.15 141.51,-80.19 147.27,-80.23"/>
<text text-anchor="middle" x="134.48" y="-83.57" font-family="Times,serif" font-size="12.00">2</text>
</g>
<!-- 3 -->
<g id="node3" class="node">
<title>3</title>
<ellipse fill="none" stroke="#4400ce" cx="138.99" cy="-18" rx="27" ry="18"/>
<text text-anchor="middle" x="138.99" y="-14.3" font-family="Times,serif" font-size="14.00">3</text>
</g>
<!-- 0&#45;&#45;3 -->
<g id="edge2" class="edge">
<title>0&#45;&#45;3</title>
<path fill="none" stroke="#4400ce" d="M112.4,-63.01C117.56,-54.27 123.84,-43.64 129,-34.9"/>
<text text-anchor="middle" x="116.7" y="-52.36" font-family="Times,serif" font-size="12.00">5</text>
</g>
<!-- 1&#45;&#45;3 -->
<g id="edge3" class="edge">
<title>1&#45;&#45;3</title>
<path fill="none" stroke="#4400ce" d="M164.87,-63.35C159.85,-54.55 153.73,-43.84 148.71,-35.03"/>
<text text-anchor="middle" x="152.79" y="-52.59" font-family="Times,serif" font-size="12.00">4</text>
</g>
</g>
</svg>
