<?xml version="1.0" encoding="UTF-8" standalone="no"?>
<!DOCTYPE svg PUBLIC "-//W3C//DTD SVG 1.1//EN"
 "http://www.w3.org/Graphics/SVG/1.1/DTD/svg11.dtd">
<!-- Generated by graphviz version 2.43.0 (0)
 -->
<!-- Pages: 1 -->
<svg width="281pt" height="333pt"
 viewBox="0.00 0.00 281.00 332.85" xmlns="http://www.w3.org/2000/svg" xmlns:xlink="http://www.w3.org/1999/xlink">
<g id="graph0" class="graph" transform="scale(1 1) rotate(0) translate(4 328.85)">
<polygon fill="white" stroke="transparent" points="-4,4 -4,-328.85 277,-328.85 277,4 -4,4"/>
<text text-anchor="middle" x="136.5" y="-313.65" font-family="Times,serif" font-size="14.00">573fae12c7fa178572e53b4f688b3725</text>
<!-- 0 -->
<g id="node1" class="node">
<title>0</title>
<ellipse fill="none" stroke="#cecece" cx="151.06" cy="-88.53" rx="27" ry="18"/>
<text text-anchor="middle" x="151.06" y="-84.83" font-family="Times,serif" font-size="14.00">0</text>
</g>
<!-- 1 -->
<g id="node2" class="node">
<title>1</title>
<ellipse fill="none" stroke="#8967ce" cx="168.42" cy="-18" rx="27" ry="18"/>
<text text-anchor="middle" x="168.42" y="-14.3" font-family="Times,serif" font-size="14.00">1</text>
</g>
<!-- 0&#45;&#45;1 -->
<g id="edge1" class="edge">
<title>0&#45;&#45;1</title>
<path fill="none" stroke="#4400ce" d="M155.44,-70.73C158.05,-60.12 161.36,-46.69 163.98,-36.04"/>
<text text-anchor="middle" x="155.71" y="-56.78" font-family="Times,serif" font-size="12.00">2</text>
</g>
<!-- 3 -->
<g id="node3" class="node">
<title>3</title>
<ellipse fill="none" stroke="#4400ce" cx="146.35" cy="-161.78" rx="27" ry="18"/>
<text text-anchor="middle" x="146.35" y="-158.08" font-family="Times,serif" font-size="14.00">3</text>
</g>
<!-- 0&#45;&#45;3 -->
<g id="edge2" class="edge">
<title>0&#45;&#45;3</title>
<path fill="none" stroke="#4400ce" d="M149.9,-106.64C149.18,-117.91 148.25,-132.35 147.52,-143.63"/>
<text text-anchor="middle" x="144.71" y="-128.53" font-family="Times,serif" font-size="12.00">4</text>
</g>
<!-- 5 -->
<g id="node4" class="node">
<title>5</title>
<ellipse fill="none" stroke="#4400ce" cx="140.2" cy="-238.34" rx="27" ry="18"/>
<text text-anchor="middle" x="140.2" y="-234.64" font-family="Times,serif" font-size="14.00">5</text>
</g>
<!-- 3&#45;&#45;5 -->
<g id="edge3" class="edge">
<title>3&#45;&#45;5</title>
<path fill="none" stroke="#4400ce" d="M144.9,-179.92C143.92,-192.13 142.63,-208.15 141.65,-220.32"/>
<text text-anchor="middle" x="139.27" y="-203.52" font-family="Times,serif" font-size="12.00">6</text>
</g>
<!-- 7 -->
<g id="node5" class="node">
<title>7</title>
<ellipse fill="none" stroke="#4400ce" cx="200.78" cy="-287.85" rx="27" ry="18"/>
<text text-anchor="middle" x="200.78" y="-284.15" font-family="Times,serif" font-size="14.00">7</text>
</g>
<!-- 5&#45;&#45;7 -->
<g id="edge4" class="edge">
<title>5&#45;&#45;7</title>
<path fill="none" stroke="#4400ce" d="M157.4,-252.39C165.51,-259.03 175.18,-266.93 183.33,-273.59"/>
<text text-anchor="middle" x="166.36" y="-266.39" font-family="Times,serif" font-size="12.00">8</text>
</g>
<!-- 9 -->
<g id="node6" class="node">
<title>9</title>
<ellipse fill="none" stroke="#4400ce" cx="72.22" cy="-277.02" rx="27" ry="18"/>
<text text-anchor="middle" x="72.22" y="-273.32" font-family="Times,serif" font-size="14.00">9</text>
</g>
<!-- 5&#45;&#45;9 -->
<g id="edge5" class="edge">
<title>5&#45;&#45;9</title>
<path fill="none" stroke="#4400ce" d="M119.44,-250.15C111,-254.95 101.28,-260.49 92.86,-265.28"/>
<text text-anchor="middle" x="98.15" y="-248.12" font-family="Times,serif" font-size="12.00">10</text>
</g>
</g>
</svg>
