<?xml version="1.0" encoding="UTF-8" standalone="no"?>
<!DOCTYPE svg PUBLIC "-//W3C//DTD SVG 1.1//EN"
 "http://www.w3.org/Graphics/SVG/1.1/DTD/svg11.dtd">
<!-- Generated by graphviz version 2.43.0 (0)
 -->
<!-- Pages: 1 -->
<svg width="291pt" height="287pt"
 viewBox="0.00 0.00 291.00 287.26" xmlns="http://www.w3.org/2000/svg" xmlns:xlink="http://www.w3.org/1999/xlink">
<g id="graph0" class="graph" transform="scale(1 1) rotate(0) translate(4 283.26)">
<polygon fill="white" stroke="transparent" points="-4,4 -4,-283.26 287,-283.26 287,4 -4,4"/>
<text text-anchor="middle" x="141.5" y="-268.06" font-family="Times,serif" font-size="14.00">5880578d674868931cb119815294f9b7</text>
<!-- 0 -->
<g id="node1" class="node">
<title>0</title>
<ellipse fill="none" stroke="#cecece" cx="147.89" cy="-18" rx="27" ry="18"/>
<text text-anchor="middle" x="147.89" y="-14.3" font-family="Times,serif" font-size="14.00">0</text>
</g>
<!-- 1 -->
<g id="node2" class="node">
<title>1</title>
<ellipse fill="none" stroke="#8967ce" cx="147.58" cy="-91.83" rx="27" ry="18"/>
<text text-anchor="middle" x="147.58" y="-88.13" font-family="Times,serif" font-size="14.00">1</text>
</g>
<!-- 0&#45;&#45;1 -->
<g id="edge1" class="edge">
<title>0&#45;&#45;1</title>
<path fill="none" stroke="#4400ce" d="M147.81,-36.25C147.77,-47.7 147.7,-62.39 147.65,-73.79"/>
<text text-anchor="middle" x="143.73" y="-58.42" font-family="Times,serif" font-size="12.00">2</text>
</g>
<!-- 3 -->
<g id="node3" class="node">
<title>3</title>
<ellipse fill="none" stroke="#4400ce" cx="143.32" cy="-170.3" rx="27" ry="18"/>
<text text-anchor="middle" x="143.32" y="-166.6" font-family="Times,serif" font-size="14.00">3</text>
</g>
<!-- 1&#45;&#45;3 -->
<g id="edge2" class="edge">
<title>1&#45;&#45;3</title>
<path fill="none" stroke="#4400ce" d="M146.59,-110.03C145.9,-122.71 144.99,-139.54 144.31,-152.2"/>
<text text-anchor="middle" x="141.45" y="-134.51" font-family="Times,serif" font-size="12.00">4</text>
</g>
<!-- 5 -->
<g id="node4" class="node">
<title>5</title>
<ellipse fill="none" stroke="#4400ce" cx="169.61" cy="-242.26" rx="27" ry="18"/>
<text text-anchor="middle" x="169.61" y="-238.56" font-family="Times,serif" font-size="14.00">5</text>
</g>
<!-- 3&#45;&#45;5 -->
<g id="edge3" class="edge">
<title>3&#45;&#45;5</title>
<path fill="none" stroke="#4400ce" d="M149.82,-188.08C153.9,-199.24 159.13,-213.56 163.19,-224.67"/>
<text text-anchor="middle" x="152.51" y="-209.78" font-family="Times,serif" font-size="12.00">6</text>
</g>
<!-- 7 -->
<g id="node5" class="node">
<title>7</title>
<ellipse fill="none" stroke="#4400ce" cx="217.18" cy="-196.6" rx="27" ry="18"/>
<text text-anchor="middle" x="217.18" y="-192.9" font-family="Times,serif" font-size="14.00">7</text>
</g>
<!-- 3&#45;&#45;7 -->
<g id="edge4" class="edge">
<title>3&#45;&#45;7</title>
<path fill="none" stroke="#4400ce" d="M167.51,-178.91C175.75,-181.84 184.96,-185.12 193.19,-188.05"/>
<text text-anchor="middle" x="176.35" y="-186.88" font-family="Times,serif" font-size="12.00">9</text>
</g>
<!-- 10 -->
<g id="node6" class="node">
<title>10</title>
<ellipse fill="none" stroke="#4400ce" cx="65.82" cy="-191.47" rx="27" ry="18"/>
<text text-anchor="middle" x="65.82" y="-187.77" font-family="Times,serif" font-size="14.00">10</text>
</g>
<!-- 3&#45;&#45;10 -->
<g id="edge5" class="edge">
<title>3&#45;&#45;10</title>
<path fill="none" stroke="#4400ce" d="M117.95,-177.23C109.29,-179.59 99.63,-182.23 90.99,-184.59"/>
<text text-anchor="middle" x="108.47" y="-171.31" font-family="Times,serif" font-size="12.00">11</text>
</g>
<!-- 5&#45;&#45;7 -->
<g id="edge6" class="edge">
<title>5&#45;&#45;7</title>
<path fill="none" stroke="#4400ce" d="M185.19,-227.31C190.5,-222.21 196.43,-216.51 201.73,-211.42"/>
<text text-anchor="middle" x="189.46" y="-209.77" font-family="Times,serif" font-size="12.00">8</text>
</g>
</g>
</svg>
