<?xml version="1.0" encoding="UTF-8" standalone="no"?>
<!DOCTYPE svg PUBLIC "-//W3C//DTD SVG 1.1//EN"
 "http://www.w3.org/Graphics/SVG/1.1/DTD/svg11.dtd">
<!-- Generated by graphviz version 2.43.0 (0)
 -->
<!-- Pages: 1 -->
<svg width="289pt" height="339pt"
 viewBox="0.00 0.00 289.00 338.52" xmlns="http://www.w3.org/2000/svg" xmlns:xlink="http://www.w3.org/1999/xlink">
<g id="graph0" class="graph" transform="scale(1 1) rotate(0) translate(4 334.52)">
<polygon fill="white" stroke="transparent" points="-4,4 -4,-334.52 285,-334.52 285,4 -4,4"/>
<text text-anchor="middle" x="140.5" y="-319.32" font-family="Times,serif" font-size="14.00">598febb6251269d5720018a8d9ae720e</text>
<!-- 0 -->
<g id="node1" class="node">
<title>0</title>
<ellipse fill="none" stroke="#cecece" cx="119.08" cy="-81.47" rx="27" ry="18"/>
<text text-anchor="middle" x="119.08" y="-77.77" font-family="Times,serif" font-size="14.00">0</text>
</g>
<!-- 1 -->
<g id="node2" class="node">
<title>1</title>
<ellipse fill="none" stroke="#8967ce" cx="141.84" cy="-155.93" rx="27" ry="18"/>
<text text-anchor="middle" x="141.84" y="-152.23" font-family="Times,serif" font-size="14.00">1</text>
</g>
<!-- 0&#45;&#45;1 -->
<g id="edge1" class="edge">
<title>0&#45;&#45;1</title>
<path fill="none" stroke="#4400ce" d="M124.47,-99.12C128.07,-110.9 132.79,-126.34 136.4,-138.15"/>
<text text-anchor="middle" x="126.44" y="-122.04" font-family="Times,serif" font-size="12.00">2</text>
</g>
<!-- 9 -->
<g id="node3" class="node">
<title>9</title>
<ellipse fill="none" stroke="#4400ce" cx="165.54" cy="-18" rx="27" ry="18"/>
<text text-anchor="middle" x="165.54" y="-14.3" font-family="Times,serif" font-size="14.00">9</text>
</g>
<!-- 0&#45;&#45;9 -->
<g id="edge2" class="edge">
<title>0&#45;&#45;9</title>
<path fill="none" stroke="#4400ce" d="M131.04,-65.13C137.93,-55.72 146.55,-43.94 153.45,-34.51"/>
<text text-anchor="middle" x="134.25" y="-53.22" font-family="Times,serif" font-size="12.00">10</text>
</g>
<!-- 11 -->
<g id="node4" class="node">
<title>11</title>
<ellipse fill="none" stroke="#4400ce" cx="45.22" cy="-54.25" rx="27" ry="18"/>
<text text-anchor="middle" x="45.22" y="-50.55" font-family="Times,serif" font-size="14.00">11</text>
</g>
<!-- 0&#45;&#45;11 -->
<g id="edge3" class="edge">
<title>0&#45;&#45;11</title>
<path fill="none" stroke="#4400ce" d="M95.3,-72.71C86.87,-69.6 77.38,-66.1 68.95,-62.99"/>
<text text-anchor="middle" x="82.13" y="-58.25" font-family="Times,serif" font-size="12.00">12</text>
</g>
<!-- 3 -->
<g id="node5" class="node">
<title>3</title>
<ellipse fill="none" stroke="#4400ce" cx="162.52" cy="-230.99" rx="27" ry="18"/>
<text text-anchor="middle" x="162.52" y="-227.29" font-family="Times,serif" font-size="14.00">3</text>
</g>
<!-- 1&#45;&#45;3 -->
<g id="edge4" class="edge">
<title>1&#45;&#45;3</title>
<path fill="none" stroke="#4400ce" d="M146.74,-173.72C150.01,-185.6 154.3,-201.16 157.58,-213.07"/>
<text text-anchor="middle" x="148.16" y="-196.79" font-family="Times,serif" font-size="12.00">4</text>
</g>
<!-- 5 -->
<g id="node6" class="node">
<title>5</title>
<ellipse fill="none" stroke="#4400ce" cx="235.78" cy="-259.63" rx="27" ry="18"/>
<text text-anchor="middle" x="235.78" y="-255.93" font-family="Times,serif" font-size="14.00">5</text>
</g>
<!-- 3&#45;&#45;5 -->
<g id="edge5" class="edge">
<title>3&#45;&#45;5</title>
<path fill="none" stroke="#4400ce" d="M186.11,-240.21C194.47,-243.48 203.88,-247.16 212.24,-250.43"/>
<text text-anchor="middle" x="195.17" y="-248.72" font-family="Times,serif" font-size="12.00">6</text>
</g>
<!-- 7 -->
<g id="node7" class="node">
<title>7</title>
<ellipse fill="none" stroke="#4400ce" cx="114.7" cy="-293.52" rx="27" ry="18"/>
<text text-anchor="middle" x="114.7" y="-289.82" font-family="Times,serif" font-size="14.00">7</text>
</g>
<!-- 3&#45;&#45;7 -->
<g id="edge6" class="edge">
<title>3&#45;&#45;7</title>
<path fill="none" stroke="#4400ce" d="M150.21,-247.09C143.12,-256.36 134.25,-267.96 127.14,-277.26"/>
<text text-anchor="middle" x="134.68" y="-265.57" font-family="Times,serif" font-size="12.00">8</text>
</g>
</g>
</svg>
