<?xml version="1.0" encoding="UTF-8" standalone="no"?>
<!DOCTYPE svg PUBLIC "-//W3C//DTD SVG 1.1//EN"
 "http://www.w3.org/Graphics/SVG/1.1/DTD/svg11.dtd">
<!-- Generated by graphviz version 2.43.0 (0)
 -->
<!-- Pages: 1 -->
<svg width="285pt" height="216pt"
 viewBox="0.00 0.00 285.00 216.08" xmlns="http://www.w3.org/2000/svg" xmlns:xlink="http://www.w3.org/1999/xlink">
<g id="graph0" class="graph" transform="scale(1 1) rotate(0) translate(4 212.08)">
<polygon fill="white" stroke="transparent" points="-4,4 -4,-212.08 281,-212.08 281,4 -4,4"/>
<text text-anchor="middle" x="138.5" y="-196.88" font-family="Times,serif" font-size="14.00">5ee4eedb33408e530ce2db26f3bae1e9</text>
<!-- 0 -->
<g id="node1" class="node">
<title>0</title>
<ellipse fill="none" stroke="#cecece" cx="75.96" cy="-34.39" rx="27" ry="18"/>
<text text-anchor="middle" x="75.96" y="-30.69" font-family="Times,serif" font-size="14.00">0</text>
</g>
<!-- 1 -->
<g id="node2" class="node">
<title>1</title>
<ellipse fill="none" stroke="#8967ce" cx="134.4" cy="-90.84" rx="27" ry="18"/>
<text text-anchor="middle" x="134.4" y="-87.14" font-family="Times,serif" font-size="14.00">1</text>
</g>
<!-- 0&#45;&#45;1 -->
<g id="edge1" class="edge">
<title>0&#45;&#45;1</title>
<path fill="none" stroke="#4400ce" d="M91.32,-49.22C99.84,-57.45 110.41,-67.66 118.95,-75.91"/>
<text text-anchor="middle" x="101.13" y="-65.96" font-family="Times,serif" font-size="12.00">2</text>
</g>
<!-- 3 -->
<g id="node3" class="node">
<title>3</title>
<ellipse fill="none" stroke="#4400ce" cx="170.27" cy="-18" rx="27" ry="18"/>
<text text-anchor="middle" x="170.27" y="-14.3" font-family="Times,serif" font-size="14.00">3</text>
</g>
<!-- 1&#45;&#45;3 -->
<g id="edge2" class="edge">
<title>1&#45;&#45;3</title>
<path fill="none" stroke="#4400ce" d="M142.9,-73.58C148.62,-61.97 156.12,-46.72 161.83,-35.14"/>
<text text-anchor="middle" x="148.37" y="-57.76" font-family="Times,serif" font-size="12.00">4</text>
</g>
<!-- 5 -->
<g id="node4" class="node">
<title>5</title>
<ellipse fill="none" stroke="#4400ce" cx="147.31" cy="-171.08" rx="27" ry="18"/>
<text text-anchor="middle" x="147.31" y="-167.38" font-family="Times,serif" font-size="14.00">5</text>
</g>
<!-- 1&#45;&#45;5 -->
<g id="edge3" class="edge">
<title>1&#45;&#45;5</title>
<path fill="none" stroke="#4400ce" d="M137.33,-109.05C139.44,-122.18 142.28,-139.83 144.39,-152.94"/>
<text text-anchor="middle" x="136.86" y="-134.39" font-family="Times,serif" font-size="12.00">6</text>
</g>
<!-- 7 -->
<g id="node5" class="node">
<title>7</title>
<ellipse fill="none" stroke="#4400ce" cx="214.65" cy="-103.21" rx="27" ry="18"/>
<text text-anchor="middle" x="214.65" y="-99.51" font-family="Times,serif" font-size="14.00">7</text>
</g>
<!-- 1&#45;&#45;7 -->
<g id="edge4" class="edge">
<title>1&#45;&#45;7</title>
<path fill="none" stroke="#4400ce" d="M161.13,-94.96C169.88,-96.31 179.6,-97.81 188.32,-99.15"/>
<text text-anchor="middle" x="170.72" y="-100.46" font-family="Times,serif" font-size="12.00">8</text>
</g>
<!-- 9 -->
<g id="node6" class="node">
<title>9</title>
<ellipse fill="none" stroke="#4400ce" cx="62.35" cy="-128.5" rx="27" ry="18"/>
<text text-anchor="middle" x="62.35" y="-124.8" font-family="Times,serif" font-size="14.00">9</text>
</g>
<!-- 1&#45;&#45;9 -->
<g id="edge5" class="edge">
<title>1&#45;&#45;9</title>
<path fill="none" stroke="#4400ce" d="M112.78,-102.14C103.66,-106.91 93.07,-112.44 83.95,-117.21"/>
<text text-anchor="middle" x="90.37" y="-100.07" font-family="Times,serif" font-size="12.00">10</text>
</g>
</g>
</svg>
