<?xml version="1.0" encoding="UTF-8" standalone="no"?>
<!DOCTYPE svg PUBLIC "-//W3C//DTD SVG 1.1//EN"
 "http://www.w3.org/Graphics/SVG/1.1/DTD/svg11.dtd">
<!-- Generated by graphviz version 2.43.0 (0)
 -->
<!-- Pages: 1 -->
<svg width="285pt" height="446pt"
 viewBox="0.00 0.00 285.00 445.82" xmlns="http://www.w3.org/2000/svg" xmlns:xlink="http://www.w3.org/1999/xlink">
<g id="graph0" class="graph" transform="scale(1 1) rotate(0) translate(4 441.82)">
<polygon fill="white" stroke="transparent" points="-4,4 -4,-441.82 281,-441.82 281,4 -4,4"/>
<text text-anchor="middle" x="138.5" y="-426.62" font-family="Times,serif" font-size="14.00">60b90db620c28a0367f98eda8e050cc0</text>
<!-- 0 -->
<g id="node1" class="node">
<title>0</title>
<ellipse fill="none" stroke="#cecece" cx="29.51" cy="-400.82" rx="27" ry="18"/>
<text text-anchor="middle" x="29.51" y="-397.12" font-family="Times,serif" font-size="14.00">0</text>
</g>
<!-- 1 -->
<g id="node2" class="node">
<title>1</title>
<ellipse fill="none" stroke="#8967ce" cx="74.87" cy="-343.62" rx="27" ry="18"/>
<text text-anchor="middle" x="74.87" y="-339.92" font-family="Times,serif" font-size="14.00">1</text>
</g>
<!-- 0&#45;&#45;1 -->
<g id="edge1" class="edge">
<title>0&#45;&#45;1</title>
<path fill="none" stroke="#4400ce" d="M42.14,-384.89C48.33,-377.09 55.77,-367.71 61.99,-359.87"/>
<text text-anchor="middle" x="48.06" y="-362.78" font-family="Times,serif" font-size="12.00">2</text>
</g>
<!-- 3 -->
<g id="node3" class="node">
<title>3</title>
<ellipse fill="none" stroke="#4400ce" cx="117.63" cy="-282.75" rx="27" ry="18"/>
<text text-anchor="middle" x="117.63" y="-279.05" font-family="Times,serif" font-size="14.00">3</text>
</g>
<!-- 1&#45;&#45;3 -->
<g id="edge2" class="edge">
<title>1&#45;&#45;3</title>
<path fill="none" stroke="#4400ce" d="M86.33,-327.31C92.47,-318.57 100,-307.85 106.14,-299.1"/>
<text text-anchor="middle" x="92.24" y="-303.61" font-family="Times,serif" font-size="12.00">4</text>
</g>
<!-- 5 -->
<g id="node4" class="node">
<title>5</title>
<ellipse fill="none" stroke="#4400ce" cx="172.15" cy="-225.8" rx="27" ry="18"/>
<text text-anchor="middle" x="172.15" y="-222.1" font-family="Times,serif" font-size="14.00">5</text>
</g>
<!-- 3&#45;&#45;5 -->
<g id="edge3" class="edge">
<title>3&#45;&#45;5</title>
<path fill="none" stroke="#4400ce" d="M132.24,-267.49C140.06,-259.32 149.67,-249.28 157.5,-241.11"/>
<text text-anchor="middle" x="140.87" y="-244.7" font-family="Times,serif" font-size="12.00">6</text>
</g>
<!-- 7 -->
<g id="node5" class="node">
<title>7</title>
<ellipse fill="none" stroke="#4400ce" cx="247.5" cy="-255.26" rx="27" ry="18"/>
<text text-anchor="middle" x="247.5" y="-251.56" font-family="Times,serif" font-size="14.00">7</text>
</g>
<!-- 5&#45;&#45;7 -->
<g id="edge4" class="edge">
<title>5&#45;&#45;7</title>
<path fill="none" stroke="#4400ce" d="M195.57,-234.96C204.65,-238.51 215.01,-242.56 224.08,-246.11"/>
<text text-anchor="middle" x="205.83" y="-243.93" font-family="Times,serif" font-size="12.00">8</text>
</g>
<!-- 9 -->
<g id="node6" class="node">
<title>9</title>
<ellipse fill="none" stroke="#4400ce" cx="161.68" cy="-147.11" rx="27" ry="18"/>
<text text-anchor="middle" x="161.68" y="-143.41" font-family="Times,serif" font-size="14.00">9</text>
</g>
<!-- 5&#45;&#45;9 -->
<g id="edge5" class="edge">
<title>5&#45;&#45;9</title>
<path fill="none" stroke="#4400ce" d="M169.72,-207.55C168.03,-194.84 165.78,-177.95 164.09,-165.26"/>
<text text-anchor="middle" x="158.91" y="-189.81" font-family="Times,serif" font-size="12.00">10</text>
</g>
<!-- 11 -->
<g id="node7" class="node">
<title>11</title>
<ellipse fill="none" stroke="#4400ce" cx="161.55" cy="-68.69" rx="27" ry="18"/>
<text text-anchor="middle" x="161.55" y="-64.99" font-family="Times,serif" font-size="14.00">11</text>
</g>
<!-- 9&#45;&#45;11 -->
<g id="edge6" class="edge">
<title>9&#45;&#45;11</title>
<path fill="none" stroke="#4400ce" d="M161.65,-128.92C161.63,-116.25 161.6,-99.42 161.58,-86.78"/>
<text text-anchor="middle" x="153.62" y="-111.25" font-family="Times,serif" font-size="12.00">12</text>
</g>
<!-- 13 -->
<g id="node8" class="node">
<title>13</title>
<ellipse fill="none" stroke="#4400ce" cx="223.72" cy="-19.69" rx="27" ry="18"/>
<text text-anchor="middle" x="223.72" y="-15.99" font-family="Times,serif" font-size="14.00">13</text>
</g>
<!-- 11&#45;&#45;13 -->
<g id="edge7" class="edge">
<title>11&#45;&#45;13</title>
<path fill="none" stroke="#4400ce" d="M179.2,-54.78C187.67,-48.1 197.79,-40.12 206.24,-33.46"/>
<text text-anchor="middle" x="184.72" y="-34.52" font-family="Times,serif" font-size="12.00">14</text>
</g>
<!-- 15 -->
<g id="node9" class="node">
<title>15</title>
<ellipse fill="none" stroke="#4400ce" cx="101.01" cy="-18" rx="27" ry="18"/>
<text text-anchor="middle" x="101.01" y="-14.3" font-family="Times,serif" font-size="14.00">15</text>
</g>
<!-- 11&#45;&#45;15 -->
<g id="edge8" class="edge">
<title>11&#45;&#45;15</title>
<path fill="none" stroke="#4400ce" d="M144.69,-54.57C136.43,-47.65 126.51,-39.34 118.2,-32.4"/>
<text text-anchor="middle" x="123.45" y="-46.88" font-family="Times,serif" font-size="12.00">16</text>
</g>
</g>
</svg>
