<?xml version="1.0" encoding="UTF-8" standalone="no"?>
<!DOCTYPE svg PUBLIC "-//W3C//DTD SVG 1.1//EN"
 "http://www.w3.org/Graphics/SVG/1.1/DTD/svg11.dtd">
<!-- Generated by graphviz version 2.43.0 (0)
 -->
<!-- Pages: 1 -->
<svg width="287pt" height="476pt"
 viewBox="0.00 0.00 287.00 475.57" xmlns="http://www.w3.org/2000/svg" xmlns:xlink="http://www.w3.org/1999/xlink">
<g id="graph0" class="graph" transform="scale(1 1) rotate(0) translate(4 471.57)">
<polygon fill="white" stroke="transparent" points="-4,4 -4,-471.57 283,-471.57 283,4 -4,4"/>
<text text-anchor="middle" x="139.5" y="-456.37" font-family="Times,serif" font-size="14.00">6291844d794c87073a406226c569fced</text>
<!-- 0 -->
<g id="node1" class="node">
<title>0</title>
<ellipse fill="none" stroke="#cecece" cx="44.17" cy="-430.57" rx="27" ry="18"/>
<text text-anchor="middle" x="44.17" y="-426.87" font-family="Times,serif" font-size="14.00">0</text>
</g>
<!-- 1 -->
<g id="node2" class="node">
<title>1</title>
<ellipse fill="none" stroke="#8967ce" cx="78.71" cy="-366.44" rx="27" ry="18"/>
<text text-anchor="middle" x="78.71" y="-362.74" font-family="Times,serif" font-size="14.00">1</text>
</g>
<!-- 0&#45;&#45;1 -->
<g id="edge1" class="edge">
<title>0&#45;&#45;1</title>
<path fill="none" stroke="#4400ce" d="M53.43,-413.38C58.38,-404.18 64.47,-392.88 69.43,-383.67"/>
<text text-anchor="middle" x="57.43" y="-401.93" font-family="Times,serif" font-size="12.00">2</text>
</g>
<!-- 3 -->
<g id="node3" class="node">
<title>3</title>
<ellipse fill="none" stroke="#4400ce" cx="112.84" cy="-300.69" rx="27" ry="18"/>
<text text-anchor="middle" x="112.84" y="-296.99" font-family="Times,serif" font-size="14.00">3</text>
</g>
<!-- 1&#45;&#45;3 -->
<g id="edge2" class="edge">
<title>1&#45;&#45;3</title>
<path fill="none" stroke="#4400ce" d="M87.67,-349.16C92.65,-339.57 98.82,-327.68 103.81,-318.08"/>
<text text-anchor="middle" x="91.74" y="-337.02" font-family="Times,serif" font-size="12.00">4</text>
</g>
<!-- 5 -->
<g id="node4" class="node">
<title>5</title>
<ellipse fill="none" stroke="#4400ce" cx="155.07" cy="-234.68" rx="27" ry="18"/>
<text text-anchor="middle" x="155.07" y="-230.98" font-family="Times,serif" font-size="14.00">5</text>
</g>
<!-- 3&#45;&#45;5 -->
<g id="edge3" class="edge">
<title>3&#45;&#45;5</title>
<path fill="none" stroke="#4400ce" d="M123.49,-284.03C129.84,-274.1 137.89,-261.53 144.27,-251.56"/>
<text text-anchor="middle" x="129.88" y="-271.2" font-family="Times,serif" font-size="12.00">6</text>
</g>
<!-- 7 -->
<g id="node5" class="node">
<title>7</title>
<ellipse fill="none" stroke="#4400ce" cx="234.83" cy="-243.2" rx="27" ry="18"/>
<text text-anchor="middle" x="234.83" y="-239.5" font-family="Times,serif" font-size="14.00">7</text>
</g>
<!-- 5&#45;&#45;7 -->
<g id="edge4" class="edge">
<title>5&#45;&#45;7</title>
<path fill="none" stroke="#4400ce" d="M182.07,-237.57C190.48,-238.47 199.74,-239.46 208.12,-240.35"/>
<text text-anchor="middle" x="191.1" y="-242.36" font-family="Times,serif" font-size="12.00">8</text>
</g>
<!-- 9 -->
<g id="node6" class="node">
<title>9</title>
<ellipse fill="none" stroke="#4400ce" cx="127.38" cy="-161.35" rx="27" ry="18"/>
<text text-anchor="middle" x="127.38" y="-157.65" font-family="Times,serif" font-size="14.00">9</text>
</g>
<!-- 5&#45;&#45;9 -->
<g id="edge5" class="edge">
<title>5&#45;&#45;9</title>
<path fill="none" stroke="#4400ce" d="M148.36,-216.93C144.01,-205.4 138.36,-190.43 134.02,-178.94"/>
<text text-anchor="middle" x="133.19" y="-201.33" font-family="Times,serif" font-size="12.00">10</text>
</g>
<!-- 11 -->
<g id="node7" class="node">
<title>11</title>
<ellipse fill="none" stroke="#4400ce" cx="106.54" cy="-90.17" rx="27" ry="18"/>
<text text-anchor="middle" x="106.54" y="-86.47" font-family="Times,serif" font-size="14.00">11</text>
</g>
<!-- 9&#45;&#45;11 -->
<g id="edge6" class="edge">
<title>9&#45;&#45;11</title>
<path fill="none" stroke="#4400ce" d="M122.12,-143.39C118.94,-132.51 114.89,-118.71 111.72,-107.88"/>
<text text-anchor="middle" x="108.92" y="-129.03" font-family="Times,serif" font-size="12.00">12</text>
</g>
<!-- 13 -->
<g id="node8" class="node">
<title>13</title>
<ellipse fill="none" stroke="#4400ce" cx="96.17" cy="-18" rx="27" ry="18"/>
<text text-anchor="middle" x="96.17" y="-14.3" font-family="Times,serif" font-size="14.00">13</text>
</g>
<!-- 11&#45;&#45;13 -->
<g id="edge7" class="edge">
<title>11&#45;&#45;13</title>
<path fill="none" stroke="#4400ce" d="M103.92,-71.96C102.34,-60.94 100.33,-46.94 98.75,-35.96"/>
<text text-anchor="middle" x="93.34" y="-57.36" font-family="Times,serif" font-size="12.00">14</text>
</g>
</g>
</svg>
