<?xml version="1.0" encoding="UTF-8" standalone="no"?>
<!DOCTYPE svg PUBLIC "-//W3C//DTD SVG 1.1//EN"
 "http://www.w3.org/Graphics/SVG/1.1/DTD/svg11.dtd">
<!-- Generated by graphviz version 2.43.0 (0)
 -->
<!-- Pages: 1 -->
<svg width="324pt" height="568pt"
 viewBox="0.00 0.00 323.50 567.93" xmlns="http://www.w3.org/2000/svg" xmlns:xlink="http://www.w3.org/1999/xlink">
<g id="graph0" class="graph" transform="scale(1 1) rotate(0) translate(4 563.93)">
<polygon fill="white" stroke="transparent" points="-4,4 -4,-563.93 319.5,-563.93 319.5,4 -4,4"/>
<text text-anchor="middle" x="157.75" y="-548.73" font-family="Times,serif" font-size="14.00">80f7757b0e15c4435c2d5b2d5eb06b23</text>
<!-- 0 -->
<g id="node1" class="node">
<title>0</title>
<ellipse fill="none" stroke="#cecece" cx="27" cy="-522.93" rx="27" ry="18"/>
<text text-anchor="middle" x="27" y="-519.23" font-family="Times,serif" font-size="14.00">0</text>
</g>
<!-- 1 -->
<g id="node2" class="node">
<title>1</title>
<ellipse fill="none" stroke="#8967ce" cx="77.99" cy="-471.69" rx="27" ry="18"/>
<text text-anchor="middle" x="77.99" y="-467.99" font-family="Times,serif" font-size="14.00">1</text>
</g>
<!-- 0&#45;&#45;1 -->
<g id="edge1" class="edge">
<title>0&#45;&#45;1</title>
<path fill="none" stroke="#4400ce" d="M42.02,-507.83C48.6,-501.22 56.31,-493.47 62.9,-486.85"/>
<text text-anchor="middle" x="48.46" y="-487.74" font-family="Times,serif" font-size="12.00">2</text>
</g>
<!-- 3 -->
<g id="node3" class="node">
<title>3</title>
<ellipse fill="none" stroke="#4400ce" cx="120.93" cy="-413.58" rx="27" ry="18"/>
<text text-anchor="middle" x="120.93" y="-409.88" font-family="Times,serif" font-size="14.00">3</text>
</g>
<!-- 1&#45;&#45;3 -->
<g id="edge2" class="edge">
<title>1&#45;&#45;3</title>
<path fill="none" stroke="#4400ce" d="M89.95,-455.5C95.81,-447.58 102.84,-438.05 108.73,-430.09"/>
<text text-anchor="middle" x="103.34" y="-446.2" font-family="Times,serif" font-size="12.00">4</text>
</g>
<!-- 5 -->
<g id="node4" class="node">
<title>5</title>
<ellipse fill="none" stroke="#4400ce" cx="163.69" cy="-355.23" rx="27" ry="18"/>
<text text-anchor="middle" x="163.69" y="-351.53" font-family="Times,serif" font-size="14.00">5</text>
</g>
<!-- 3&#45;&#45;5 -->
<g id="edge3" class="edge">
<title>3&#45;&#45;5</title>
<path fill="none" stroke="#4400ce" d="M132.84,-397.33C138.67,-389.37 145.68,-379.81 151.54,-371.81"/>
<text text-anchor="middle" x="146.19" y="-387.97" font-family="Times,serif" font-size="12.00">6</text>
</g>
<!-- 7 -->
<g id="node5" class="node">
<title>7</title>
<ellipse fill="none" stroke="#4400ce" cx="198.93" cy="-292.02" rx="27" ry="18"/>
<text text-anchor="middle" x="198.93" y="-288.32" font-family="Times,serif" font-size="14.00">7</text>
</g>
<!-- 5&#45;&#45;7 -->
<g id="edge4" class="edge">
<title>5&#45;&#45;7</title>
<path fill="none" stroke="#4400ce" d="M173.13,-338.29C178.19,-329.22 184.4,-318.08 189.46,-309.01"/>
<text text-anchor="middle" x="177.3" y="-327.05" font-family="Times,serif" font-size="12.00">8</text>
</g>
<!-- 9 -->
<g id="node6" class="node">
<title>9</title>
<ellipse fill="none" stroke="#4400ce" cx="226.08" cy="-224.96" rx="27" ry="18"/>
<text text-anchor="middle" x="226.08" y="-221.26" font-family="Times,serif" font-size="14.00">9</text>
</g>
<!-- 7&#45;&#45;9 -->
<g id="edge5" class="edge">
<title>7&#45;&#45;9</title>
<path fill="none" stroke="#4400ce" d="M206.07,-274.4C210.03,-264.62 214.94,-252.49 218.9,-242.7"/>
<text text-anchor="middle" x="204.49" y="-261.95" font-family="Times,serif" font-size="12.00">10</text>
</g>
<!-- 11 -->
<g id="node7" class="node">
<title>11</title>
<ellipse fill="none" stroke="#4400ce" cx="248.18" cy="-156.18" rx="27" ry="18"/>
<text text-anchor="middle" x="248.18" y="-152.48" font-family="Times,serif" font-size="14.00">11</text>
</g>
<!-- 9&#45;&#45;11 -->
<g id="edge6" class="edge">
<title>9&#45;&#45;11</title>
<path fill="none" stroke="#4400ce" d="M231.77,-207.25C235.05,-197.06 239.15,-184.29 242.43,-174.07"/>
<text text-anchor="middle" x="229.1" y="-194.06" font-family="Times,serif" font-size="12.00">12</text>
</g>
<!-- 13 -->
<g id="node8" class="node">
<title>13</title>
<ellipse fill="none" stroke="#4400ce" cx="274.22" cy="-88.82" rx="27" ry="18"/>
<text text-anchor="middle" x="274.22" y="-85.12" font-family="Times,serif" font-size="14.00">13</text>
</g>
<!-- 11&#45;&#45;13 -->
<g id="edge7" class="edge">
<title>11&#45;&#45;13</title>
<path fill="none" stroke="#4400ce" d="M255.02,-138.48C258.82,-128.66 263.53,-116.47 267.33,-106.63"/>
<text text-anchor="middle" x="253.18" y="-125.96" font-family="Times,serif" font-size="12.00">14</text>
</g>
<!-- 15 -->
<g id="node9" class="node">
<title>15</title>
<ellipse fill="none" stroke="#4400ce" cx="288.5" cy="-18" rx="27" ry="18"/>
<text text-anchor="middle" x="288.5" y="-14.3" font-family="Times,serif" font-size="14.00">15</text>
</g>
<!-- 13&#45;&#45;15 -->
<g id="edge8" class="edge">
<title>13&#45;&#45;15</title>
<path fill="none" stroke="#4400ce" d="M277.82,-70.95C279.97,-60.3 282.69,-46.81 284.85,-36.11"/>
<text text-anchor="middle" x="273.33" y="-56.93" font-family="Times,serif" font-size="12.00">16</text>
</g>
</g>
</svg>
