<?xml version="1.0" encoding="UTF-8" standalone="no"?>
<!DOCTYPE svg PUBLIC "-//W3C//DTD SVG 1.1//EN"
 "http://www.w3.org/Graphics/SVG/1.1/DTD/svg11.dtd">
<!-- Generated by graphviz version 2.43.0 (0)
 -->
<!-- Pages: 1 -->
<svg width="279pt" height="753pt"
 viewBox="0.00 0.00 279.00 752.88" xmlns="http://www.w3.org/2000/svg" xmlns:xlink="http://www.w3.org/1999/xlink">
<g id="graph0" class="graph" transform="scale(1 1) rotate(0) translate(4 748.88)">
<polygon fill="white" stroke="transparent" points="-4,4 -4,-748.88 275,-748.88 275,4 -4,4"/>
<text text-anchor="middle" x="135.5" y="-733.68" font-family="Times,serif" font-size="14.00">81e8764c557bcc6fed14830f05bb782f</text>
<!-- 0 -->
<g id="node1" class="node">
<title>0</title>
<ellipse fill="none" stroke="#cecece" cx="52.87" cy="-707.88" rx="27" ry="18"/>
<text text-anchor="middle" x="52.87" y="-704.18" font-family="Times,serif" font-size="14.00">0</text>
</g>
<!-- 1 -->
<g id="node2" class="node">
<title>1</title>
<ellipse fill="none" stroke="#8967ce" cx="85.59" cy="-643.3" rx="27" ry="18"/>
<text text-anchor="middle" x="85.59" y="-639.6" font-family="Times,serif" font-size="14.00">1</text>
</g>
<!-- 0&#45;&#45;1 -->
<g id="edge1" class="edge">
<title>0&#45;&#45;1</title>
<path fill="none" stroke="#4400ce" d="M61.64,-690.58C66.33,-681.31 72.1,-669.93 76.8,-660.65"/>
<text text-anchor="middle" x="65.22" y="-679.01" font-family="Times,serif" font-size="12.00">2</text>
</g>
<!-- 3 -->
<g id="node3" class="node">
<title>3</title>
<ellipse fill="none" stroke="#4400ce" cx="105.71" cy="-573.81" rx="27" ry="18"/>
<text text-anchor="middle" x="105.71" y="-570.11" font-family="Times,serif" font-size="14.00">3</text>
</g>
<!-- 1&#45;&#45;3 -->
<g id="edge2" class="edge">
<title>1&#45;&#45;3</title>
<path fill="none" stroke="#4400ce" d="M90.77,-625.4C93.75,-615.11 97.49,-602.21 100.48,-591.89"/>
<text text-anchor="middle" x="91.62" y="-612.04" font-family="Times,serif" font-size="12.00">4</text>
</g>
<!-- 5 -->
<g id="node4" class="node">
<title>5</title>
<ellipse fill="none" stroke="#4400ce" cx="129.51" cy="-505.36" rx="27" ry="18"/>
<text text-anchor="middle" x="129.51" y="-501.66" font-family="Times,serif" font-size="14.00">5</text>
</g>
<!-- 3&#45;&#45;5 -->
<g id="edge3" class="edge">
<title>3&#45;&#45;5</title>
<path fill="none" stroke="#4400ce" d="M111.84,-556.18C115.36,-546.04 119.78,-533.34 123.32,-523.17"/>
<text text-anchor="middle" x="113.58" y="-543.07" font-family="Times,serif" font-size="12.00">6</text>
</g>
<!-- 7 -->
<g id="node5" class="node">
<title>7</title>
<ellipse fill="none" stroke="#4400ce" cx="144.58" cy="-434.43" rx="27" ry="18"/>
<text text-anchor="middle" x="144.58" y="-430.73" font-family="Times,serif" font-size="14.00">7</text>
</g>
<!-- 5&#45;&#45;7 -->
<g id="edge4" class="edge">
<title>5&#45;&#45;7</title>
<path fill="none" stroke="#4400ce" d="M133.31,-487.46C135.58,-476.79 138.45,-463.29 140.73,-452.57"/>
<text text-anchor="middle" x="133.02" y="-473.42" font-family="Times,serif" font-size="12.00">8</text>
</g>
<!-- 9 -->
<g id="node6" class="node">
<title>9</title>
<ellipse fill="none" stroke="#4400ce" cx="150.42" cy="-362.13" rx="27" ry="18"/>
<text text-anchor="middle" x="150.42" y="-358.43" font-family="Times,serif" font-size="14.00">9</text>
</g>
<!-- 7&#45;&#45;9 -->
<g id="edge5" class="edge">
<title>7&#45;&#45;9</title>
<path fill="none" stroke="#4400ce" d="M146.06,-416.19C146.95,-405.14 148.08,-391.12 148.97,-380.12"/>
<text text-anchor="middle" x="139.51" y="-401.55" font-family="Times,serif" font-size="12.00">10</text>
</g>
<!-- 11 -->
<g id="node7" class="node">
<title>11</title>
<ellipse fill="none" stroke="#4400ce" cx="153.61" cy="-289.68" rx="27" ry="18"/>
<text text-anchor="middle" x="153.61" y="-285.98" font-family="Times,serif" font-size="14.00">11</text>
</g>
<!-- 9&#45;&#45;11 -->
<g id="edge6" class="edge">
<title>9&#45;&#45;11</title>
<path fill="none" stroke="#4400ce" d="M151.22,-343.85C151.71,-332.78 152.33,-318.73 152.81,-307.71"/>
<text text-anchor="middle" x="144.02" y="-329.18" font-family="Times,serif" font-size="12.00">12</text>
</g>
<!-- 13 -->
<g id="node8" class="node">
<title>13</title>
<ellipse fill="none" stroke="#4400ce" cx="155.11" cy="-216.9" rx="27" ry="18"/>
<text text-anchor="middle" x="155.11" y="-213.2" font-family="Times,serif" font-size="14.00">13</text>
</g>
<!-- 11&#45;&#45;13 -->
<g id="edge7" class="edge">
<title>11&#45;&#45;13</title>
<path fill="none" stroke="#4400ce" d="M153.99,-271.32C154.22,-260.2 154.51,-246.08 154.74,-235.01"/>
<text text-anchor="middle" x="146.36" y="-256.56" font-family="Times,serif" font-size="12.00">14</text>
</g>
<!-- 15 -->
<g id="node9" class="node">
<title>15</title>
<ellipse fill="none" stroke="#4400ce" cx="153.07" cy="-143.39" rx="27" ry="18"/>
<text text-anchor="middle" x="153.07" y="-139.69" font-family="Times,serif" font-size="14.00">15</text>
</g>
<!-- 13&#45;&#45;15 -->
<g id="edge8" class="edge">
<title>13&#45;&#45;15</title>
<path fill="none" stroke="#4400ce" d="M154.61,-198.73C154.29,-187.42 153.89,-172.93 153.58,-161.61"/>
<text text-anchor="middle" x="146.09" y="-183.57" font-family="Times,serif" font-size="12.00">16</text>
</g>
<!-- 17 -->
<g id="node10" class="node">
<title>17</title>
<ellipse fill="none" stroke="#4400ce" cx="154.18" cy="-66.58" rx="27" ry="18"/>
<text text-anchor="middle" x="154.18" y="-62.88" font-family="Times,serif" font-size="14.00">17</text>
</g>
<!-- 15&#45;&#45;17 -->
<g id="edge9" class="edge">
<title>15&#45;&#45;17</title>
<path fill="none" stroke="#4400ce" d="M153.33,-125.19C153.51,-112.94 153.74,-96.87 153.92,-84.65"/>
<text text-anchor="middle" x="145.63" y="-108.32" font-family="Times,serif" font-size="12.00">18</text>
</g>
<!-- 19 -->
<g id="node11" class="node">
<title>19</title>
<ellipse fill="none" stroke="#4400ce" cx="218.13" cy="-20.22" rx="27" ry="18"/>
<text text-anchor="middle" x="218.13" y="-16.52" font-family="Times,serif" font-size="14.00">19</text>
</g>
<!-- 17&#45;&#45;19 -->
<g id="edge10" class="edge">
<title>17&#45;&#45;19</title>
<path fill="none" stroke="#4400ce" d="M172.68,-53.17C181.09,-47.07 191.02,-39.87 199.46,-33.76"/>
<text text-anchor="middle" x="178.07" y="-33.87" font-family="Times,serif" font-size="12.00">20</text>
</g>
<!-- 21 -->
<g id="node12" class="node">
<title>21</title>
<ellipse fill="none" stroke="#4400ce" cx="91.89" cy="-18" rx="27" ry="18"/>
<text text-anchor="middle" x="91.89" y="-14.3" font-family="Times,serif" font-size="14.00">21</text>
</g>
<!-- 17&#45;&#45;21 -->
<g id="edge11" class="edge">
<title>17&#45;&#45;21</title>
<path fill="none" stroke="#4400ce" d="M136.5,-52.79C128.16,-46.28 118.22,-38.53 109.84,-31.99"/>
<text text-anchor="middle" x="115.17" y="-45.79" font-family="Times,serif" font-size="12.00">22</text>
</g>
</g>
</svg>
