<?xml version="1.0" encoding="UTF-8" standalone="no"?>
<!DOCTYPE svg PUBLIC "-//W3C//DTD SVG 1.1//EN"
 "http://www.w3.org/Graphics/SVG/1.1/DTD/svg11.dtd">
<!-- Generated by graphviz version 2.43.0 (0)
 -->
<!-- Pages: 1 -->
<svg width="854pt" height="386pt"
 viewBox="0.00 0.00 853.59 386.42" xmlns="http://www.w3.org/2000/svg" xmlns:xlink="http://www.w3.org/1999/xlink">
<g id="graph0" class="graph" transform="scale(1 1) rotate(0) translate(4 382.42)">
<polygon fill="white" stroke="transparent" points="-4,4 -4,-382.42 849.59,-382.42 849.59,4 -4,4"/>
<text text-anchor="middle" x="422.79" y="-367.22" font-family="Times,serif" font-size="14.00">829ae83bfa9ebf91c7f29423ac943f72</text>
<!-- 0 -->
<g id="node1" class="node">
<title>0</title>
<ellipse fill="none" stroke="#cecece" cx="27" cy="-341.42" rx="27" ry="18"/>
<text text-anchor="middle" x="27" y="-337.72" font-family="Times,serif" font-size="14.00">0</text>
</g>
<!-- 1 -->
<g id="node2" class="node">
<title>1</title>
<ellipse fill="none" stroke="#8967ce" cx="93.3" cy="-312.89" rx="27" ry="18"/>
<text text-anchor="middle" x="93.3" y="-309.19" font-family="Times,serif" font-size="14.00">1</text>
</g>
<!-- 0&#45;&#45;1 -->
<g id="edge1" class="edge">
<title>0&#45;&#45;1</title>
<path fill="none" stroke="#4400ce" d="M49.82,-331.61C56.41,-328.77 63.61,-325.67 70.22,-322.83"/>
<text text-anchor="middle" x="62.02" y="-317.62" font-family="Times,serif" font-size="12.00">2</text>
</g>
<!-- 3 -->
<g id="node3" class="node">
<title>3</title>
<ellipse fill="none" stroke="#4400ce" cx="153.09" cy="-272.3" rx="27" ry="18"/>
<text text-anchor="middle" x="153.09" y="-268.6" font-family="Times,serif" font-size="14.00">3</text>
</g>
<!-- 1&#45;&#45;3 -->
<g id="edge2" class="edge">
<title>1&#45;&#45;3</title>
<path fill="none" stroke="#4400ce" d="M112.55,-299.83C119.37,-295.19 127.05,-289.98 133.88,-285.35"/>
<text text-anchor="middle" x="119.21" y="-282.99" font-family="Times,serif" font-size="12.00">4</text>
</g>
<!-- 5 -->
<g id="node4" class="node">
<title>5</title>
<ellipse fill="none" stroke="#4400ce" cx="218.62" cy="-241.93" rx="27" ry="18"/>
<text text-anchor="middle" x="218.62" y="-238.23" font-family="Times,serif" font-size="14.00">5</text>
</g>
<!-- 3&#45;&#45;5 -->
<g id="edge3" class="edge">
<title>3&#45;&#45;5</title>
<path fill="none" stroke="#4400ce" d="M175.27,-262.02C181.96,-258.92 189.3,-255.52 196.01,-252.41"/>
<text text-anchor="middle" x="187.64" y="-247.62" font-family="Times,serif" font-size="12.00">6</text>
</g>
<!-- 7 -->
<g id="node5" class="node">
<title>7</title>
<ellipse fill="none" stroke="#4400ce" cx="279.6" cy="-203.25" rx="27" ry="18"/>
<text text-anchor="middle" x="279.6" y="-199.55" font-family="Times,serif" font-size="14.00">7</text>
</g>
<!-- 5&#45;&#45;7 -->
<g id="edge4" class="edge">
<title>5&#45;&#45;7</title>
<path fill="none" stroke="#4400ce" d="M238.25,-229.48C245.22,-225.06 253.05,-220.09 260.01,-215.68"/>
<text text-anchor="middle" x="245.13" y="-212.98" font-family="Times,serif" font-size="12.00">8</text>
</g>
<!-- 9 -->
<g id="node6" class="node">
<title>9</title>
<ellipse fill="none" stroke="#4400ce" cx="338.84" cy="-161.8" rx="27" ry="18"/>
<text text-anchor="middle" x="338.84" y="-158.1" font-family="Times,serif" font-size="14.00">9</text>
</g>
<!-- 7&#45;&#45;9 -->
<g id="edge5" class="edge">
<title>7&#45;&#45;9</title>
<path fill="none" stroke="#4400ce" d="M298.35,-190.13C305.26,-185.3 313.09,-179.82 320.02,-174.97"/>
<text text-anchor="middle" x="301.18" y="-172.95" font-family="Times,serif" font-size="12.00">10</text>
</g>
<!-- 11 -->
<g id="node7" class="node">
<title>11</title>
<ellipse fill="none" stroke="#4400ce" cx="401.42" cy="-125.51" rx="27" ry="18"/>
<text text-anchor="middle" x="401.42" y="-121.81" font-family="Times,serif" font-size="14.00">11</text>
</g>
<!-- 9&#45;&#45;11 -->
<g id="edge6" class="edge">
<title>9&#45;&#45;11</title>
<path fill="none" stroke="#4400ce" d="M359.33,-149.92C366.18,-145.95 373.81,-141.52 380.67,-137.54"/>
<text text-anchor="middle" x="362" y="-134.13" font-family="Times,serif" font-size="12.00">12</text>
</g>
<!-- 13 -->
<g id="node8" class="node">
<title>13</title>
<ellipse fill="none" stroke="#4400ce" cx="467.39" cy="-95.81" rx="27" ry="18"/>
<text text-anchor="middle" x="467.39" y="-92.11" font-family="Times,serif" font-size="14.00">13</text>
</g>
<!-- 11&#45;&#45;13 -->
<g id="edge7" class="edge">
<title>11&#45;&#45;13</title>
<path fill="none" stroke="#4400ce" d="M424.12,-115.28C430.83,-112.26 438.17,-108.96 444.87,-105.95"/>
<text text-anchor="middle" x="430.5" y="-101.01" font-family="Times,serif" font-size="12.00">14</text>
</g>
<!-- 15 -->
<g id="node9" class="node">
<title>15</title>
<ellipse fill="none" stroke="#4400ce" cx="534.77" cy="-69.34" rx="27" ry="18"/>
<text text-anchor="middle" x="534.77" y="-65.64" font-family="Times,serif" font-size="14.00">15</text>
</g>
<!-- 13&#45;&#45;15 -->
<g id="edge8" class="edge">
<title>13&#45;&#45;15</title>
<path fill="none" stroke="#4400ce" d="M490.96,-86.55C497.48,-83.99 504.57,-81.2 511.1,-78.64"/>
<text text-anchor="middle" x="497.03" y="-73" font-family="Times,serif" font-size="12.00">16</text>
</g>
<!-- 17 -->
<g id="node10" class="node">
<title>17</title>
<ellipse fill="none" stroke="#4400ce" cx="604.16" cy="-48.79" rx="27" ry="18"/>
<text text-anchor="middle" x="604.16" y="-45.09" font-family="Times,serif" font-size="14.00">17</text>
</g>
<!-- 15&#45;&#45;17 -->
<g id="edge9" class="edge">
<title>15&#45;&#45;17</title>
<path fill="none" stroke="#4400ce" d="M559.82,-61.92C566.19,-60.04 573.02,-58.01 579.38,-56.13"/>
<text text-anchor="middle" x="569.6" y="-49.43" font-family="Times,serif" font-size="12.00">18</text>
</g>
<!-- 19 -->
<g id="node11" class="node">
<title>19</title>
<ellipse fill="none" stroke="#4400ce" cx="674.81" cy="-33" rx="27" ry="18"/>
<text text-anchor="middle" x="674.81" y="-29.3" font-family="Times,serif" font-size="14.00">19</text>
</g>
<!-- 17&#45;&#45;19 -->
<g id="edge10" class="edge">
<title>17&#45;&#45;19</title>
<path fill="none" stroke="#4400ce" d="M630.07,-43C636.21,-41.63 642.77,-40.16 648.91,-38.79"/>
<text text-anchor="middle" x="639.49" y="-31.3" font-family="Times,serif" font-size="12.00">20</text>
</g>
<!-- 21 -->
<g id="node12" class="node">
<title>21</title>
<ellipse fill="none" stroke="#4400ce" cx="746.52" cy="-23.4" rx="27" ry="18"/>
<text text-anchor="middle" x="746.52" y="-19.7" font-family="Times,serif" font-size="14.00">21</text>
</g>
<!-- 19&#45;&#45;21 -->
<g id="edge11" class="edge">
<title>19&#45;&#45;21</title>
<path fill="none" stroke="#4400ce" d="M701.51,-29.43C707.57,-28.62 713.99,-27.76 720.04,-26.95"/>
<text text-anchor="middle" x="710.78" y="-18.59" font-family="Times,serif" font-size="12.00">22</text>
</g>
<!-- 23 -->
<g id="node13" class="node">
<title>23</title>
<ellipse fill="none" stroke="#4400ce" cx="818.59" cy="-18" rx="27" ry="18"/>
<text text-anchor="middle" x="818.59" y="-14.3" font-family="Times,serif" font-size="14.00">23</text>
</g>
<!-- 21&#45;&#45;23 -->
<g id="edge12" class="edge">
<title>21&#45;&#45;23</title>
<path fill="none" stroke="#4400ce" d="M773.36,-21.39C779.28,-20.95 785.56,-20.48 791.49,-20.03"/>
<text text-anchor="middle" x="782.42" y="-11.11" font-family="Times,serif" font-size="12.00">24</text>
</g>
</g>
</svg>
