<?xml version="1.0" encoding="UTF-8" standalone="no"?>
<!DOCTYPE svg PUBLIC "-//W3C//DTD SVG 1.1//EN"
 "http://www.w3.org/Graphics/SVG/1.1/DTD/svg11.dtd">
<!-- Generated by graphviz version 2.43.0 (0)
 -->
<!-- Pages: 1 -->
<svg width="427pt" height="558pt"
 viewBox="0.00 0.00 426.83 558.28" xmlns="http://www.w3.org/2000/svg" xmlns:xlink="http://www.w3.org/1999/xlink">
<g id="graph0" class="graph" transform="scale(1 1) rotate(0) translate(4 554.28)">
<polygon fill="white" stroke="transparent" points="-4,4 -4,-554.28 422.83,-554.28 422.83,4 -4,4"/>
<text text-anchor="middle" x="209.42" y="-539.08" font-family="Times,serif" font-size="14.00">8a46c0913024fafd96cac734ea011664</text>
<!-- 0 -->
<g id="node1" class="node">
<title>0</title>
<ellipse fill="none" stroke="#cecece" cx="27" cy="-513.28" rx="27" ry="18"/>
<text text-anchor="middle" x="27" y="-509.58" font-family="Times,serif" font-size="14.00">0</text>
</g>
<!-- 1 -->
<g id="node2" class="node">
<title>1</title>
<ellipse fill="none" stroke="#8967ce" cx="82.4" cy="-466.51" rx="27" ry="18"/>
<text text-anchor="middle" x="82.4" y="-462.81" font-family="Times,serif" font-size="14.00">1</text>
</g>
<!-- 0&#45;&#45;1 -->
<g id="edge1" class="edge">
<title>0&#45;&#45;1</title>
<path fill="none" stroke="#4400ce" d="M43.92,-498.99C50.8,-493.19 58.72,-486.5 65.58,-480.71"/>
<text text-anchor="middle" x="50.75" y="-480.25" font-family="Times,serif" font-size="12.00">2</text>
</g>
<!-- 3 -->
<g id="node3" class="node">
<title>3</title>
<ellipse fill="none" stroke="#4400ce" cx="128.03" cy="-410.19" rx="27" ry="18"/>
<text text-anchor="middle" x="128.03" y="-406.49" font-family="Times,serif" font-size="14.00">3</text>
</g>
<!-- 1&#45;&#45;3 -->
<g id="edge2" class="edge">
<title>1&#45;&#45;3</title>
<path fill="none" stroke="#4400ce" d="M95.36,-450.52C101.47,-442.98 108.75,-433.99 114.89,-426.41"/>
<text text-anchor="middle" x="101.12" y="-428.87" font-family="Times,serif" font-size="12.00">4</text>
</g>
<!-- 5 -->
<g id="node4" class="node">
<title>5</title>
<ellipse fill="none" stroke="#4400ce" cx="174.27" cy="-354.16" rx="27" ry="18"/>
<text text-anchor="middle" x="174.27" y="-350.46" font-family="Times,serif" font-size="14.00">5</text>
</g>
<!-- 3&#45;&#45;5 -->
<g id="edge3" class="edge">
<title>3&#45;&#45;5</title>
<path fill="none" stroke="#4400ce" d="M141.16,-394.28C147.35,-386.78 154.73,-377.83 160.95,-370.3"/>
<text text-anchor="middle" x="147.06" y="-372.69" font-family="Times,serif" font-size="12.00">6</text>
</g>
<!-- 7 -->
<g id="node5" class="node">
<title>7</title>
<ellipse fill="none" stroke="#4400ce" cx="211.58" cy="-291.59" rx="27" ry="18"/>
<text text-anchor="middle" x="211.58" y="-287.89" font-family="Times,serif" font-size="14.00">7</text>
</g>
<!-- 5&#45;&#45;7 -->
<g id="edge4" class="edge">
<title>5&#45;&#45;7</title>
<path fill="none" stroke="#4400ce" d="M184.27,-337.39C189.62,-328.41 196.2,-317.39 201.55,-308.41"/>
<text text-anchor="middle" x="188.91" y="-326.3" font-family="Times,serif" font-size="12.00">8</text>
</g>
<!-- 9 -->
<g id="node6" class="node">
<title>9</title>
<ellipse fill="none" stroke="#4400ce" cx="242.92" cy="-225.4" rx="27" ry="18"/>
<text text-anchor="middle" x="242.92" y="-221.7" font-family="Times,serif" font-size="14.00">9</text>
</g>
<!-- 7&#45;&#45;9 -->
<g id="edge5" class="edge">
<title>7&#45;&#45;9</title>
<path fill="none" stroke="#4400ce" d="M219.81,-274.2C224.38,-264.55 230.05,-252.58 234.63,-242.9"/>
<text text-anchor="middle" x="219.22" y="-261.95" font-family="Times,serif" font-size="12.00">10</text>
</g>
<!-- 11 -->
<g id="node7" class="node">
<title>11</title>
<ellipse fill="none" stroke="#4400ce" cx="274.98" cy="-158.16" rx="27" ry="18"/>
<text text-anchor="middle" x="274.98" y="-154.46" font-family="Times,serif" font-size="14.00">11</text>
</g>
<!-- 9&#45;&#45;11 -->
<g id="edge6" class="edge">
<title>9&#45;&#45;11</title>
<path fill="none" stroke="#4400ce" d="M251.18,-208.08C255.93,-198.12 261.88,-185.64 266.64,-175.65"/>
<text text-anchor="middle" x="250.91" y="-195.27" font-family="Times,serif" font-size="12.00">12</text>
</g>
<!-- 13 -->
<g id="node8" class="node">
<title>13</title>
<ellipse fill="none" stroke="#4400ce" cx="310.41" cy="-87.69" rx="27" ry="18"/>
<text text-anchor="middle" x="310.41" y="-83.99" font-family="Times,serif" font-size="14.00">13</text>
</g>
<!-- 11&#45;&#45;13 -->
<g id="edge7" class="edge">
<title>11&#45;&#45;13</title>
<path fill="none" stroke="#4400ce" d="M283.74,-140.74C289.23,-129.81 296.28,-115.79 301.75,-104.91"/>
<text text-anchor="middle" x="284.74" y="-126.22" font-family="Times,serif" font-size="12.00">14</text>
</g>
<!-- 15 -->
<g id="node9" class="node">
<title>15</title>
<ellipse fill="none" stroke="#4400ce" cx="250" cy="-31.02" rx="27" ry="18"/>
<text text-anchor="middle" x="250" y="-27.32" font-family="Times,serif" font-size="14.00">15</text>
</g>
<!-- 13&#45;&#45;15 -->
<g id="edge8" class="edge">
<title>13&#45;&#45;15</title>
<path fill="none" stroke="#4400ce" d="M294.54,-72.8C285.73,-64.53 274.8,-54.28 265.97,-46.01"/>
<text text-anchor="middle" x="272.25" y="-62.8" font-family="Times,serif" font-size="12.00">16</text>
</g>
<!-- 17 -->
<g id="node10" class="node">
<title>17</title>
<ellipse fill="none" stroke="#4400ce" cx="391.83" cy="-102.84" rx="27" ry="18"/>
<text text-anchor="middle" x="391.83" y="-99.14" font-family="Times,serif" font-size="14.00">17</text>
</g>
<!-- 13&#45;&#45;17 -->
<g id="edge9" class="edge">
<title>13&#45;&#45;17</title>
<path fill="none" stroke="#4400ce" d="M336.62,-92.57C345.92,-94.3 356.38,-96.24 365.67,-97.97"/>
<text text-anchor="middle" x="355.14" y="-85.67" font-family="Times,serif" font-size="12.00">18</text>
</g>
<!-- 19 -->
<g id="node11" class="node">
<title>19</title>
<ellipse fill="none" stroke="#4400ce" cx="345.2" cy="-18" rx="27" ry="18"/>
<text text-anchor="middle" x="345.2" y="-14.3" font-family="Times,serif" font-size="14.00">19</text>
</g>
<!-- 13&#45;&#45;19 -->
<g id="edge10" class="edge">
<title>13&#45;&#45;19</title>
<path fill="none" stroke="#4400ce" d="M319.01,-70.46C324.32,-59.82 331.12,-46.2 336.46,-35.51"/>
<text text-anchor="middle" x="319.73" y="-56.39" font-family="Times,serif" font-size="12.00">20</text>
</g>
</g>
</svg>
