<?xml version="1.0" encoding="UTF-8" standalone="no"?>
<!DOCTYPE svg PUBLIC "-//W3C//DTD SVG 1.1//EN"
 "http://www.w3.org/Graphics/SVG/1.1/DTD/svg11.dtd">
<!-- Generated by graphviz version 2.43.0 (0)
 -->
<!-- Pages: 1 -->
<svg width="279pt" height="267pt"
 viewBox="0.00 0.00 279.00 267.14" xmlns="http://www.w3.org/2000/svg" xmlns:xlink="http://www.w3.org/1999/xlink">
<g id="graph0" class="graph" transform="scale(1 1) rotate(0) translate(4 263.14)">
<polygon fill="white" stroke="transparent" points="-4,4 -4,-263.14 275,-263.14 275,4 -4,4"/>
<text text-anchor="middle" x="135.5" y="-247.94" font-family="Times,serif" font-size="14.00">8d91cf04babaea935fdb20fd462250c0</text>
<!-- 0 -->
<g id="node1" class="node">
<title>0</title>
<ellipse fill="none" stroke="#cecece" cx="102.65" cy="-96.53" rx="27" ry="18"/>
<text text-anchor="middle" x="102.65" y="-92.83" font-family="Times,serif" font-size="14.00">0</text>
</g>
<!-- 1 -->
<g id="node2" class="node">
<title>1</title>
<ellipse fill="none" stroke="#8967ce" cx="168.12" cy="-143.49" rx="27" ry="18"/>
<text text-anchor="middle" x="168.12" y="-139.79" font-family="Times,serif" font-size="14.00">1</text>
</g>
<!-- 0&#45;&#45;1 -->
<g id="edge1" class="edge">
<title>0&#45;&#45;1</title>
<path fill="none" stroke="#4400ce" d="M121.24,-109.86C130.16,-116.26 140.82,-123.91 149.72,-130.29"/>
<text text-anchor="middle" x="131.48" y="-123.48" font-family="Times,serif" font-size="12.00">2</text>
</g>
<!-- 7 -->
<g id="node3" class="node">
<title>7</title>
<ellipse fill="none" stroke="#4400ce" cx="98.22" cy="-18" rx="27" ry="18"/>
<text text-anchor="middle" x="98.22" y="-14.3" font-family="Times,serif" font-size="14.00">7</text>
</g>
<!-- 0&#45;&#45;7 -->
<g id="edge2" class="edge">
<title>0&#45;&#45;7</title>
<path fill="none" stroke="#4400ce" d="M101.62,-78.32C100.91,-65.63 99.96,-48.78 99.24,-36.12"/>
<text text-anchor="middle" x="96.43" y="-60.62" font-family="Times,serif" font-size="12.00">8</text>
</g>
<!-- 9 -->
<g id="node4" class="node">
<title>9</title>
<ellipse fill="none" stroke="#4400ce" cx="27.03" cy="-118.42" rx="27" ry="18"/>
<text text-anchor="middle" x="27.03" y="-114.72" font-family="Times,serif" font-size="14.00">9</text>
</g>
<!-- 0&#45;&#45;9 -->
<g id="edge3" class="edge">
<title>0&#45;&#45;9</title>
<path fill="none" stroke="#4400ce" d="M77.47,-103.82C69.22,-106.21 60.06,-108.86 51.84,-111.24"/>
<text text-anchor="middle" x="64.66" y="-97.93" font-family="Times,serif" font-size="12.00">10</text>
</g>
<!-- 3 -->
<g id="node5" class="node">
<title>3</title>
<ellipse fill="none" stroke="#4400ce" cx="243.97" cy="-122.68" rx="27" ry="18"/>
<text text-anchor="middle" x="243.97" y="-118.98" font-family="Times,serif" font-size="14.00">3</text>
</g>
<!-- 1&#45;&#45;3 -->
<g id="edge4" class="edge">
<title>1&#45;&#45;3</title>
<path fill="none" stroke="#4400ce" d="M193.38,-136.56C201.57,-134.32 210.65,-131.82 218.83,-129.58"/>
<text text-anchor="middle" x="202.1" y="-136.47" font-family="Times,serif" font-size="12.00">4</text>
</g>
<!-- 5 -->
<g id="node6" class="node">
<title>5</title>
<ellipse fill="none" stroke="#4400ce" cx="171.65" cy="-222.14" rx="27" ry="18"/>
<text text-anchor="middle" x="171.65" y="-218.44" font-family="Times,serif" font-size="14.00">5</text>
</g>
<!-- 1&#45;&#45;5 -->
<g id="edge5" class="edge">
<title>1&#45;&#45;5</title>
<path fill="none" stroke="#4400ce" d="M168.94,-161.73C169.51,-174.44 170.27,-191.31 170.84,-203.99"/>
<text text-anchor="middle" x="165.89" y="-186.26" font-family="Times,serif" font-size="12.00">6</text>
</g>
</g>
</svg>
