<?xml version="1.0" encoding="UTF-8" standalone="no"?>
<!DOCTYPE svg PUBLIC "-//W3C//DTD SVG 1.1//EN"
 "http://www.w3.org/Graphics/SVG/1.1/DTD/svg11.dtd">
<!-- Generated by graphviz version 2.43.0 (0)
 -->
<!-- Pages: 1 -->
<svg width="985pt" height="168pt"
 viewBox="0.00 0.00 984.59 168.34" xmlns="http://www.w3.org/2000/svg" xmlns:xlink="http://www.w3.org/1999/xlink">
<g id="graph0" class="graph" transform="scale(1 1) rotate(0) translate(4 164.34)">
<polygon fill="white" stroke="transparent" points="-4,4 -4,-164.34 980.59,-164.34 980.59,4 -4,4"/>
<text text-anchor="middle" x="488.29" y="-149.14" font-family="Times,serif" font-size="14.00">94ea58e569e1e6a52cabc6dc3019d649</text>
<!-- 0 -->
<g id="node1" class="node">
<title>0</title>
<ellipse fill="none" stroke="#cecece" cx="27" cy="-123.34" rx="27" ry="18"/>
<text text-anchor="middle" x="27" y="-119.64" font-family="Times,serif" font-size="14.00">0</text>
</g>
<!-- 1 -->
<g id="node2" class="node">
<title>1</title>
<ellipse fill="none" stroke="#8967ce" cx="97.85" cy="-109.95" rx="27" ry="18"/>
<text text-anchor="middle" x="97.85" y="-106.25" font-family="Times,serif" font-size="14.00">1</text>
</g>
<!-- 0&#45;&#45;1 -->
<g id="edge1" class="edge">
<title>0&#45;&#45;1</title>
<path fill="none" stroke="#4400ce" d="M52.98,-118.43C58.98,-117.29 65.38,-116.08 71.4,-114.95"/>
<text text-anchor="middle" x="58.19" y="-120.09" font-family="Times,serif" font-size="12.00">2</text>
</g>
<!-- 3 -->
<g id="node3" class="node">
<title>3</title>
<ellipse fill="none" stroke="#4400ce" cx="166.45" cy="-87.25" rx="27" ry="18"/>
<text text-anchor="middle" x="166.45" y="-83.55" font-family="Times,serif" font-size="14.00">3</text>
</g>
<!-- 1&#45;&#45;3 -->
<g id="edge2" class="edge">
<title>1&#45;&#45;3</title>
<path fill="none" stroke="#4400ce" d="M122.23,-101.88C128.7,-99.74 135.68,-97.43 142.15,-95.29"/>
<text text-anchor="middle" x="128.19" y="-101.99" font-family="Times,serif" font-size="12.00">4</text>
</g>
<!-- 5 -->
<g id="node4" class="node">
<title>5</title>
<ellipse fill="none" stroke="#4400ce" cx="237.91" cy="-76.76" rx="27" ry="18"/>
<text text-anchor="middle" x="237.91" y="-73.06" font-family="Times,serif" font-size="14.00">5</text>
</g>
<!-- 3&#45;&#45;5 -->
<g id="edge3" class="edge">
<title>3&#45;&#45;5</title>
<path fill="none" stroke="#4400ce" d="M193.06,-83.34C199.09,-82.46 205.49,-81.52 211.51,-80.63"/>
<text text-anchor="middle" x="198.29" y="-85.39" font-family="Times,serif" font-size="12.00">6</text>
</g>
<!-- 7 -->
<g id="node5" class="node">
<title>7</title>
<ellipse fill="none" stroke="#4400ce" cx="308" cy="-59.51" rx="27" ry="18"/>
<text text-anchor="middle" x="308" y="-55.81" font-family="Times,serif" font-size="14.00">7</text>
</g>
<!-- 5&#45;&#45;7 -->
<g id="edge4" class="edge">
<title>5&#45;&#45;7</title>
<path fill="none" stroke="#4400ce" d="M263.61,-70.44C269.71,-68.94 276.21,-67.33 282.3,-65.83"/>
<text text-anchor="middle" x="268.96" y="-71.54" font-family="Times,serif" font-size="12.00">8</text>
</g>
<!-- 9 -->
<g id="node6" class="node">
<title>9</title>
<ellipse fill="none" stroke="#4400ce" cx="377.88" cy="-41.02" rx="27" ry="18"/>
<text text-anchor="middle" x="377.88" y="-37.32" font-family="Times,serif" font-size="14.00">9</text>
</g>
<!-- 7&#45;&#45;9 -->
<g id="edge5" class="edge">
<title>7&#45;&#45;9</title>
<path fill="none" stroke="#4400ce" d="M333.23,-52.84C339.49,-51.18 346.19,-49.41 352.46,-47.75"/>
<text text-anchor="middle" x="342.84" y="-40.69" font-family="Times,serif" font-size="12.00">10</text>
</g>
<!-- 11 -->
<g id="node7" class="node">
<title>11</title>
<ellipse fill="none" stroke="#4400ce" cx="449.09" cy="-28.46" rx="27" ry="18"/>
<text text-anchor="middle" x="449.09" y="-24.76" font-family="Times,serif" font-size="14.00">11</text>
</g>
<!-- 9&#45;&#45;11 -->
<g id="edge6" class="edge">
<title>9&#45;&#45;11</title>
<path fill="none" stroke="#4400ce" d="M403.99,-36.41C410.18,-35.32 416.79,-34.16 422.98,-33.07"/>
<text text-anchor="middle" x="413.49" y="-25.14" font-family="Times,serif" font-size="12.00">12</text>
</g>
<!-- 13 -->
<g id="node8" class="node">
<title>13</title>
<ellipse fill="none" stroke="#4400ce" cx="521.11" cy="-21.68" rx="27" ry="18"/>
<text text-anchor="middle" x="521.11" y="-17.98" font-family="Times,serif" font-size="14.00">13</text>
</g>
<!-- 11&#45;&#45;13 -->
<g id="edge7" class="edge">
<title>11&#45;&#45;13</title>
<path fill="none" stroke="#4400ce" d="M475.91,-25.94C481.83,-25.38 488.1,-24.79 494.03,-24.23"/>
<text text-anchor="middle" x="484.97" y="-15.48" font-family="Times,serif" font-size="12.00">14</text>
</g>
<!-- 15 -->
<g id="node9" class="node">
<title>15</title>
<ellipse fill="none" stroke="#4400ce" cx="593.34" cy="-18" rx="27" ry="18"/>
<text text-anchor="middle" x="593.34" y="-14.3" font-family="Times,serif" font-size="14.00">15</text>
</g>
<!-- 13&#45;&#45;15 -->
<g id="edge8" class="edge">
<title>13&#45;&#45;15</title>
<path fill="none" stroke="#4400ce" d="M548.42,-20.29C554.17,-20 560.24,-19.69 565.99,-19.39"/>
<text text-anchor="middle" x="557.2" y="-10.24" font-family="Times,serif" font-size="12.00">16</text>
</g>
<!-- 17 -->
<g id="node10" class="node">
<title>17</title>
<ellipse fill="none" stroke="#4400ce" cx="665.69" cy="-19.4" rx="27" ry="18"/>
<text text-anchor="middle" x="665.69" y="-15.7" font-family="Times,serif" font-size="14.00">17</text>
</g>
<!-- 15&#45;&#45;17 -->
<g id="edge9" class="edge">
<title>15&#45;&#45;17</title>
<path fill="none" stroke="#4400ce" d="M620.69,-18.53C626.45,-18.64 632.53,-18.76 638.29,-18.87"/>
<text text-anchor="middle" x="629.49" y="-9.1" font-family="Times,serif" font-size="12.00">18</text>
</g>
<!-- 19 -->
<g id="node11" class="node">
<title>19</title>
<ellipse fill="none" stroke="#4400ce" cx="737.8" cy="-24.98" rx="27" ry="18"/>
<text text-anchor="middle" x="737.8" y="-21.28" font-family="Times,serif" font-size="14.00">19</text>
</g>
<!-- 17&#45;&#45;19 -->
<g id="edge10" class="edge">
<title>17&#45;&#45;19</title>
<path fill="none" stroke="#4400ce" d="M692.54,-21.48C698.46,-21.93 704.75,-22.42 710.68,-22.88"/>
<text text-anchor="middle" x="701.61" y="-12.58" font-family="Times,serif" font-size="12.00">20</text>
</g>
<!-- 21 -->
<g id="node12" class="node">
<title>21</title>
<ellipse fill="none" stroke="#4400ce" cx="809.26" cy="-36.15" rx="27" ry="18"/>
<text text-anchor="middle" x="809.26" y="-32.45" font-family="Times,serif" font-size="14.00">21</text>
</g>
<!-- 19&#45;&#45;21 -->
<g id="edge11" class="edge">
<title>19&#45;&#45;21</title>
<path fill="none" stroke="#4400ce" d="M764.41,-29.14C770.44,-30.08 776.84,-31.08 782.87,-32.02"/>
<text text-anchor="middle" x="773.64" y="-20.98" font-family="Times,serif" font-size="12.00">22</text>
</g>
<!-- 23 -->
<g id="node13" class="node">
<title>23</title>
<ellipse fill="none" stroke="#4400ce" cx="880.36" cy="-49.13" rx="27" ry="18"/>
<text text-anchor="middle" x="880.36" y="-45.43" font-family="Times,serif" font-size="14.00">23</text>
</g>
<!-- 21&#45;&#45;23 -->
<g id="edge12" class="edge">
<title>21&#45;&#45;23</title>
<path fill="none" stroke="#4400ce" d="M835.33,-40.91C841.51,-42.04 848.11,-43.24 854.29,-44.37"/>
<text text-anchor="middle" x="844.81" y="-33.04" font-family="Times,serif" font-size="12.00">24</text>
</g>
<!-- 25 -->
<g id="node14" class="node">
<title>25</title>
<ellipse fill="none" stroke="#4400ce" cx="949.59" cy="-69.9" rx="27" ry="18"/>
<text text-anchor="middle" x="949.59" y="-66.2" font-family="Times,serif" font-size="14.00">25</text>
</g>
<!-- 23&#45;&#45;25 -->
<g id="edge13" class="edge">
<title>23&#45;&#45;25</title>
<path fill="none" stroke="#4400ce" d="M905.35,-56.63C911.7,-58.53 918.52,-60.58 924.86,-62.48"/>
<text text-anchor="middle" x="915.11" y="-49.96" font-family="Times,serif" font-size="12.00">26</text>
</g>
</g>
</svg>
