<?xml version="1.0" encoding="UTF-8" standalone="no"?>
<!DOCTYPE svg PUBLIC "-//W3C//DTD SVG 1.1//EN"
 "http://www.w3.org/Graphics/SVG/1.1/DTD/svg11.dtd">
<!-- Generated by graphviz version 2.43.0 (0)
 -->
<!-- Pages: 1 -->
<svg width="285pt" height="196pt"
 viewBox="0.00 0.00 285.00 195.97" xmlns="http://www.w3.org/2000/svg" xmlns:xlink="http://www.w3.org/1999/xlink">
<g id="graph0" class="graph" transform="scale(1 1) rotate(0) translate(4 191.97)">
<polygon fill="white" stroke="transparent" points="-4,4 -4,-191.97 281,-191.97 281,4 -4,4"/>
<text text-anchor="middle" x="138.5" y="-176.77" font-family="Times,serif" font-size="14.00">959c220735cea72ec157db2a0af362b4</text>
<!-- 0 -->
<g id="node1" class="node">
<title>0</title>
<ellipse fill="none" stroke="#cecece" cx="138.27" cy="-84.66" rx="27" ry="18"/>
<text text-anchor="middle" x="138.27" y="-80.96" font-family="Times,serif" font-size="14.00">0</text>
</g>
<!-- 1 -->
<g id="node2" class="node">
<title>1</title>
<ellipse fill="none" stroke="#8967ce" cx="204.95" cy="-41.42" rx="27" ry="18"/>
<text text-anchor="middle" x="204.95" y="-37.72" font-family="Times,serif" font-size="14.00">1</text>
</g>
<!-- 0&#45;&#45;1 -->
<g id="edge1" class="edge">
<title>0&#45;&#45;1</title>
<path fill="none" stroke="#4400ce" d="M157.91,-71.92C166.52,-66.34 176.6,-59.8 185.22,-54.22"/>
<text text-anchor="middle" x="167.56" y="-53.47" font-family="Times,serif" font-size="12.00">2</text>
</g>
<!-- 3 -->
<g id="node3" class="node">
<title>3</title>
<ellipse fill="none" stroke="#4400ce" cx="95.1" cy="-18" rx="27" ry="18"/>
<text text-anchor="middle" x="95.1" y="-14.3" font-family="Times,serif" font-size="14.00">3</text>
</g>
<!-- 0&#45;&#45;3 -->
<g id="edge2" class="edge">
<title>0&#45;&#45;3</title>
<path fill="none" stroke="#4400ce" d="M127.37,-67.84C120.78,-57.65 112.41,-44.72 105.84,-34.58"/>
<text text-anchor="middle" x="112.61" y="-54.61" font-family="Times,serif" font-size="12.00">4</text>
</g>
<!-- 5 -->
<g id="node4" class="node">
<title>5</title>
<ellipse fill="none" stroke="#4400ce" cx="72.05" cy="-128.51" rx="27" ry="18"/>
<text text-anchor="middle" x="72.05" y="-124.81" font-family="Times,serif" font-size="14.00">5</text>
</g>
<!-- 0&#45;&#45;5 -->
<g id="edge3" class="edge">
<title>0&#45;&#45;5</title>
<path fill="none" stroke="#4400ce" d="M118.76,-97.58C110.21,-103.24 100.2,-109.86 91.65,-115.53"/>
<text text-anchor="middle" x="101.2" y="-96.95" font-family="Times,serif" font-size="12.00">6</text>
</g>
<!-- 7 -->
<g id="node5" class="node">
<title>7</title>
<ellipse fill="none" stroke="#4400ce" cx="182.11" cy="-150.97" rx="27" ry="18"/>
<text text-anchor="middle" x="182.11" y="-147.27" font-family="Times,serif" font-size="14.00">7</text>
</g>
<!-- 0&#45;&#45;7 -->
<g id="edge4" class="edge">
<title>0&#45;&#45;7</title>
<path fill="none" stroke="#4400ce" d="M149.33,-101.39C156.03,-111.52 164.53,-124.38 171.2,-134.47"/>
<text text-anchor="middle" x="156.27" y="-121.33" font-family="Times,serif" font-size="12.00">8</text>
</g>
</g>
</svg>
