<?xml version="1.0" encoding="UTF-8" standalone="no"?>
<!DOCTYPE svg PUBLIC "-//W3C//DTD SVG 1.1//EN"
 "http://www.w3.org/Graphics/SVG/1.1/DTD/svg11.dtd">
<!-- Generated by graphviz version 2.43.0 (0)
 -->
<!-- Pages: 1 -->
<svg width="453pt" height="250pt"
 viewBox="0.00 0.00 453.33 249.90" xmlns="http://www.w3.org/2000/svg" xmlns:xlink="http://www.w3.org/1999/xlink">
<g id="graph0" class="graph" transform="scale(1 1) rotate(0) translate(4 245.9)">
<polygon fill="white" stroke="transparent" points="-4,4 -4,-245.9 449.33,-245.9 449.33,4 -4,4"/>
<text text-anchor="middle" x="222.67" y="-230.7" font-family="Times,serif" font-size="14.00">967d61b3d322b3650a7e75024a1c5f34</text>
<!-- 0 -->
<g id="node1" class="node">
<title>0</title>
<ellipse fill="none" stroke="#cecece" cx="27" cy="-61.34" rx="27" ry="18"/>
<text text-anchor="middle" x="27" y="-57.64" font-family="Times,serif" font-size="14.00">0</text>
</g>
<!-- 1 -->
<g id="node2" class="node">
<title>1</title>
<ellipse fill="none" stroke="#8967ce" cx="98.66" cy="-71.41" rx="27" ry="18"/>
<text text-anchor="middle" x="98.66" y="-67.71" font-family="Times,serif" font-size="14.00">1</text>
</g>
<!-- 0&#45;&#45;1 -->
<g id="edge1" class="edge">
<title>0&#45;&#45;1</title>
<path fill="none" stroke="#4400ce" d="M53.68,-65.09C59.73,-65.94 66.15,-66.84 72.19,-67.69"/>
<text text-anchor="middle" x="58.94" y="-69.79" font-family="Times,serif" font-size="12.00">2</text>
</g>
<!-- 3 -->
<g id="node3" class="node">
<title>3</title>
<ellipse fill="none" stroke="#4400ce" cx="171.03" cy="-79.13" rx="27" ry="18"/>
<text text-anchor="middle" x="171.03" y="-75.43" font-family="Times,serif" font-size="14.00">3</text>
</g>
<!-- 1&#45;&#45;3 -->
<g id="edge2" class="edge">
<title>1&#45;&#45;3</title>
<path fill="none" stroke="#4400ce" d="M125.61,-74.29C131.71,-74.94 138.2,-75.63 144.3,-76.28"/>
<text text-anchor="middle" x="130.95" y="-78.69" font-family="Times,serif" font-size="12.00">4</text>
</g>
<!-- 5 -->
<g id="node4" class="node">
<title>5</title>
<ellipse fill="none" stroke="#4400ce" cx="244.64" cy="-85.4" rx="27" ry="18"/>
<text text-anchor="middle" x="244.64" y="-81.7" font-family="Times,serif" font-size="14.00">5</text>
</g>
<!-- 3&#45;&#45;5 -->
<g id="edge3" class="edge">
<title>3&#45;&#45;5</title>
<path fill="none" stroke="#4400ce" d="M198.02,-81.43C204.42,-81.97 211.25,-82.56 217.65,-83.1"/>
<text text-anchor="middle" x="203.84" y="-85.67" font-family="Times,serif" font-size="12.00">6</text>
</g>
<!-- 7 -->
<g id="node5" class="node">
<title>7</title>
<ellipse fill="none" stroke="#4400ce" cx="322.51" cy="-86.42" rx="27" ry="18"/>
<text text-anchor="middle" x="322.51" y="-82.72" font-family="Times,serif" font-size="14.00">7</text>
</g>
<!-- 5&#45;&#45;7 -->
<g id="edge4" class="edge">
<title>5&#45;&#45;7</title>
<path fill="none" stroke="#4400ce" d="M271.87,-85.75C279.5,-85.86 287.8,-85.96 295.42,-86.06"/>
<text text-anchor="middle" x="279.65" y="-89.31" font-family="Times,serif" font-size="12.00">8</text>
</g>
<!-- 9 -->
<g id="node6" class="node">
<title>9</title>
<ellipse fill="none" stroke="#4400ce" cx="368.13" cy="-150.45" rx="27" ry="18"/>
<text text-anchor="middle" x="368.13" y="-146.75" font-family="Times,serif" font-size="14.00">9</text>
</g>
<!-- 7&#45;&#45;9 -->
<g id="edge5" class="edge">
<title>7&#45;&#45;9</title>
<path fill="none" stroke="#4400ce" d="M334.25,-102.91C341.01,-112.39 349.48,-124.28 356.26,-133.79"/>
<text text-anchor="middle" x="337.26" y="-121.75" font-family="Times,serif" font-size="12.00">10</text>
</g>
<!-- 13 -->
<g id="node7" class="node">
<title>13</title>
<ellipse fill="none" stroke="#4400ce" cx="363.81" cy="-18" rx="27" ry="18"/>
<text text-anchor="middle" x="363.81" y="-14.3" font-family="Times,serif" font-size="14.00">13</text>
</g>
<!-- 7&#45;&#45;13 -->
<g id="edge6" class="edge">
<title>7&#45;&#45;13</title>
<path fill="none" stroke="#4400ce" d="M332.72,-69.51C339.12,-58.9 347.34,-45.29 353.72,-34.72"/>
<text text-anchor="middle" x="335.22" y="-55.51" font-family="Times,serif" font-size="12.00">14</text>
</g>
<!-- 11 -->
<g id="node8" class="node">
<title>11</title>
<ellipse fill="none" stroke="#4400ce" cx="418.33" cy="-204.9" rx="27" ry="18"/>
<text text-anchor="middle" x="418.33" y="-201.2" font-family="Times,serif" font-size="14.00">11</text>
</g>
<!-- 9&#45;&#45;11 -->
<g id="edge7" class="edge">
<title>9&#45;&#45;11</title>
<path fill="none" stroke="#4400ce" d="M382.38,-165.91C389.1,-173.2 397.12,-181.89 403.87,-189.21"/>
<text text-anchor="middle" x="385.12" y="-180.96" font-family="Times,serif" font-size="12.00">12</text>
</g>
</g>
</svg>
