<?xml version="1.0" encoding="UTF-8" standalone="no"?>
<!DOCTYPE svg PUBLIC "-//W3C//DTD SVG 1.1//EN"
 "http://www.w3.org/Graphics/SVG/1.1/DTD/svg11.dtd">
<!-- Generated by graphviz version 2.43.0 (0)
 -->
<!-- Pages: 1 -->
<svg width="282pt" height="324pt"
 viewBox="0.00 0.00 282.00 323.78" xmlns="http://www.w3.org/2000/svg" xmlns:xlink="http://www.w3.org/1999/xlink">
<g id="graph0" class="graph" transform="scale(1 1) rotate(0) translate(4 319.78)">
<polygon fill="white" stroke="transparent" points="-4,4 -4,-319.78 278,-319.78 278,4 -4,4"/>
<text text-anchor="middle" x="137" y="-304.58" font-family="Times,serif" font-size="14.00">9d1c5cd8b07fc3d573c475e052ab079f</text>
<!-- 0 -->
<g id="node1" class="node">
<title>0</title>
<ellipse fill="none" stroke="#cecece" cx="143.18" cy="-18" rx="27" ry="18"/>
<text text-anchor="middle" x="143.18" y="-14.3" font-family="Times,serif" font-size="14.00">0</text>
</g>
<!-- 1 -->
<g id="node2" class="node">
<title>1</title>
<ellipse fill="none" stroke="#8967ce" cx="136.47" cy="-91.35" rx="27" ry="18"/>
<text text-anchor="middle" x="136.47" y="-87.65" font-family="Times,serif" font-size="14.00">1</text>
</g>
<!-- 0&#45;&#45;1 -->
<g id="edge1" class="edge">
<title>0&#45;&#45;1</title>
<path fill="none" stroke="#4400ce" d="M141.52,-36.13C140.49,-47.42 139.16,-61.88 138.13,-73.17"/>
<text text-anchor="middle" x="135.83" y="-58.05" font-family="Times,serif" font-size="12.00">2</text>
</g>
<!-- 3 -->
<g id="node3" class="node">
<title>3</title>
<ellipse fill="none" stroke="#4400ce" cx="123.06" cy="-168.03" rx="27" ry="18"/>
<text text-anchor="middle" x="123.06" y="-164.33" font-family="Times,serif" font-size="14.00">3</text>
</g>
<!-- 1&#45;&#45;3 -->
<g id="edge2" class="edge">
<title>1&#45;&#45;3</title>
<path fill="none" stroke="#4400ce" d="M133.29,-109.52C131.15,-121.74 128.35,-137.79 126.21,-149.99"/>
<text text-anchor="middle" x="125.75" y="-133.15" font-family="Times,serif" font-size="12.00">4</text>
</g>
<!-- 5 -->
<g id="node4" class="node">
<title>5</title>
<ellipse fill="none" stroke="#4400ce" cx="47.76" cy="-191.98" rx="27" ry="18"/>
<text text-anchor="middle" x="47.76" y="-188.28" font-family="Times,serif" font-size="14.00">5</text>
</g>
<!-- 3&#45;&#45;5 -->
<g id="edge3" class="edge">
<title>3&#45;&#45;5</title>
<path fill="none" stroke="#4400ce" d="M98.4,-175.87C90,-178.54 80.61,-181.53 72.21,-184.2"/>
<text text-anchor="middle" x="81.31" y="-183.43" font-family="Times,serif" font-size="12.00">6</text>
</g>
<!-- 7 -->
<g id="node5" class="node">
<title>7</title>
<ellipse fill="none" stroke="#4400ce" cx="178.27" cy="-222.89" rx="27" ry="18"/>
<text text-anchor="middle" x="178.27" y="-219.19" font-family="Times,serif" font-size="14.00">7</text>
</g>
<!-- 3&#45;&#45;7 -->
<g id="edge4" class="edge">
<title>3&#45;&#45;7</title>
<path fill="none" stroke="#4400ce" d="M138.15,-183.02C145.94,-190.76 155.41,-200.18 163.2,-207.92"/>
<text text-anchor="middle" x="146.67" y="-198.87" font-family="Times,serif" font-size="12.00">8</text>
</g>
<!-- 9 -->
<g id="node6" class="node">
<title>9</title>
<ellipse fill="none" stroke="#4400ce" cx="226.24" cy="-278.78" rx="27" ry="18"/>
<text text-anchor="middle" x="226.24" y="-275.08" font-family="Times,serif" font-size="14.00">9</text>
</g>
<!-- 7&#45;&#45;9 -->
<g id="edge5" class="edge">
<title>7&#45;&#45;9</title>
<path fill="none" stroke="#4400ce" d="M191.89,-238.76C198.43,-246.37 206.23,-255.47 212.75,-263.07"/>
<text text-anchor="middle" x="194.32" y="-254.31" font-family="Times,serif" font-size="12.00">10</text>
</g>
</g>
</svg>
