<?xml version="1.0" encoding="UTF-8" standalone="no"?>
<!DOCTYPE svg PUBLIC "-//W3C//DTD SVG 1.1//EN"
 "http://www.w3.org/Graphics/SVG/1.1/DTD/svg11.dtd">
<!-- Generated by graphviz version 2.43.0 (0)
 -->
<!-- Pages: 1 -->
<svg width="284pt" height="841pt"
 viewBox="0.00 0.00 284.00 840.63" xmlns="http://www.w3.org/2000/svg" xmlns:xlink="http://www.w3.org/1999/xlink">
<g id="graph0" class="graph" transform="scale(1 1) rotate(0) translate(4 836.63)">
<polygon fill="white" stroke="transparent" points="-4,4 -4,-836.63 280,-836.63 280,4 -4,4"/>
<text text-anchor="middle" x="138" y="-821.43" font-family="Times,serif" font-size="14.00">9ea1a0b1e19e1f34896c6e511a2c4a99</text>
<!-- 0 -->
<g id="node1" class="node">
<title>0</title>
<ellipse fill="none" stroke="#cecece" cx="117.32" cy="-795.63" rx="27" ry="18"/>
<text text-anchor="middle" x="117.32" y="-791.93" font-family="Times,serif" font-size="14.00">0</text>
</g>
<!-- 1 -->
<g id="node2" class="node">
<title>1</title>
<ellipse fill="none" stroke="#8967ce" cx="140.55" cy="-727.18" rx="27" ry="18"/>
<text text-anchor="middle" x="140.55" y="-723.48" font-family="Times,serif" font-size="14.00">1</text>
</g>
<!-- 0&#45;&#45;1 -->
<g id="edge1" class="edge">
<title>0&#45;&#45;1</title>
<path fill="none" stroke="#4400ce" d="M123.3,-778C126.74,-767.86 131.05,-755.16 134.5,-744.99"/>
<text text-anchor="middle" x="124.9" y="-764.9" font-family="Times,serif" font-size="12.00">2</text>
</g>
<!-- 3 -->
<g id="node3" class="node">
<title>3</title>
<ellipse fill="none" stroke="#4400ce" cx="153.61" cy="-656.12" rx="27" ry="18"/>
<text text-anchor="middle" x="153.61" y="-652.42" font-family="Times,serif" font-size="14.00">3</text>
</g>
<!-- 1&#45;&#45;3 -->
<g id="edge2" class="edge">
<title>1&#45;&#45;3</title>
<path fill="none" stroke="#4400ce" d="M143.84,-709.25C145.81,-698.56 148.3,-685.03 150.27,-674.3"/>
<text text-anchor="middle" x="143.06" y="-695.17" font-family="Times,serif" font-size="12.00">4</text>
</g>
<!-- 5 -->
<g id="node4" class="node">
<title>5</title>
<ellipse fill="none" stroke="#4400ce" cx="168.42" cy="-585.33" rx="27" ry="18"/>
<text text-anchor="middle" x="168.42" y="-581.63" font-family="Times,serif" font-size="14.00">5</text>
</g>
<!-- 3&#45;&#45;5 -->
<g id="edge3" class="edge">
<title>3&#45;&#45;5</title>
<path fill="none" stroke="#4400ce" d="M157.35,-638.26C159.57,-627.61 162.39,-614.12 164.63,-603.43"/>
<text text-anchor="middle" x="156.99" y="-624.25" font-family="Times,serif" font-size="12.00">6</text>
</g>
<!-- 7 -->
<g id="node5" class="node">
<title>7</title>
<ellipse fill="none" stroke="#4400ce" cx="176.2" cy="-513.41" rx="27" ry="18"/>
<text text-anchor="middle" x="176.2" y="-509.71" font-family="Times,serif" font-size="14.00">7</text>
</g>
<!-- 5&#45;&#45;7 -->
<g id="edge4" class="edge">
<title>5&#45;&#45;7</title>
<path fill="none" stroke="#4400ce" d="M170.38,-567.18C171.55,-556.36 173.03,-542.66 174.21,-531.8"/>
<text text-anchor="middle" x="168.29" y="-552.89" font-family="Times,serif" font-size="12.00">8</text>
</g>
<!-- 9 -->
<g id="node6" class="node">
<title>9</title>
<ellipse fill="none" stroke="#4400ce" cx="177.81" cy="-441.08" rx="27" ry="18"/>
<text text-anchor="middle" x="177.81" y="-437.38" font-family="Times,serif" font-size="14.00">9</text>
</g>
<!-- 7&#45;&#45;9 -->
<g id="edge5" class="edge">
<title>7&#45;&#45;9</title>
<path fill="none" stroke="#4400ce" d="M176.6,-495.16C176.85,-484.19 177.16,-470.29 177.4,-459.33"/>
<text text-anchor="middle" x="169" y="-480.64" font-family="Times,serif" font-size="12.00">10</text>
</g>
<!-- 11 -->
<g id="node7" class="node">
<title>11</title>
<ellipse fill="none" stroke="#4400ce" cx="176.29" cy="-368.8" rx="27" ry="18"/>
<text text-anchor="middle" x="176.29" y="-365.1" font-family="Times,serif" font-size="14.00">11</text>
</g>
<!-- 9&#45;&#45;11 -->
<g id="edge6" class="edge">
<title>9&#45;&#45;11</title>
<path fill="none" stroke="#4400ce" d="M177.42,-422.84C177.2,-411.89 176.9,-397.99 176.68,-387.04"/>
<text text-anchor="middle" x="169.05" y="-408.34" font-family="Times,serif" font-size="12.00">12</text>
</g>
<!-- 13 -->
<g id="node8" class="node">
<title>13</title>
<ellipse fill="none" stroke="#4400ce" cx="172.19" cy="-296.56" rx="27" ry="18"/>
<text text-anchor="middle" x="172.19" y="-292.86" font-family="Times,serif" font-size="14.00">13</text>
</g>
<!-- 11&#45;&#45;13 -->
<g id="edge7" class="edge">
<title>11&#45;&#45;13</title>
<path fill="none" stroke="#4400ce" d="M175.26,-350.57C174.64,-339.62 173.85,-325.74 173.23,-314.79"/>
<text text-anchor="middle" x="166.24" y="-336.08" font-family="Times,serif" font-size="12.00">14</text>
</g>
<!-- 15 -->
<g id="node9" class="node">
<title>15</title>
<ellipse fill="none" stroke="#4400ce" cx="160.81" cy="-225.12" rx="27" ry="18"/>
<text text-anchor="middle" x="160.81" y="-221.42" font-family="Times,serif" font-size="14.00">15</text>
</g>
<!-- 13&#45;&#45;15 -->
<g id="edge8" class="edge">
<title>13&#45;&#45;15</title>
<path fill="none" stroke="#4400ce" d="M169.32,-278.54C167.61,-267.79 165.44,-254.18 163.72,-243.39"/>
<text text-anchor="middle" x="158.52" y="-264.36" font-family="Times,serif" font-size="12.00">16</text>
</g>
<!-- 17 -->
<g id="node10" class="node">
<title>17</title>
<ellipse fill="none" stroke="#4400ce" cx="145.81" cy="-154.36" rx="27" ry="18"/>
<text text-anchor="middle" x="145.81" y="-150.66" font-family="Times,serif" font-size="14.00">17</text>
</g>
<!-- 15&#45;&#45;17 -->
<g id="edge9" class="edge">
<title>15&#45;&#45;17</title>
<path fill="none" stroke="#4400ce" d="M157.02,-207.27C154.77,-196.62 151.91,-183.14 149.65,-172.46"/>
<text text-anchor="middle" x="145.34" y="-193.26" font-family="Times,serif" font-size="12.00">18</text>
</g>
<!-- 19 -->
<g id="node11" class="node">
<title>19</title>
<ellipse fill="none" stroke="#4400ce" cx="125.06" cy="-85.09" rx="27" ry="18"/>
<text text-anchor="middle" x="125.06" y="-81.39" font-family="Times,serif" font-size="14.00">19</text>
</g>
<!-- 17&#45;&#45;19 -->
<g id="edge10" class="edge">
<title>17&#45;&#45;19</title>
<path fill="none" stroke="#4400ce" d="M140.47,-136.52C137.39,-126.26 133.54,-113.4 130.46,-103.11"/>
<text text-anchor="middle" x="127.46" y="-123.22" font-family="Times,serif" font-size="12.00">20</text>
</g>
<!-- 21 -->
<g id="node12" class="node">
<title>21</title>
<ellipse fill="none" stroke="#4400ce" cx="98.19" cy="-18" rx="27" ry="18"/>
<text text-anchor="middle" x="98.19" y="-14.3" font-family="Times,serif" font-size="14.00">21</text>
</g>
<!-- 19&#45;&#45;21 -->
<g id="edge11" class="edge">
<title>19&#45;&#45;21</title>
<path fill="none" stroke="#4400ce" d="M118,-67.47C114.08,-57.68 109.22,-45.55 105.3,-35.74"/>
<text text-anchor="middle" x="103.65" y="-55" font-family="Times,serif" font-size="12.00">22</text>
</g>
</g>
</svg>
