<?xml version="1.0" encoding="UTF-8" standalone="no"?>
<!DOCTYPE svg PUBLIC "-//W3C//DTD SVG 1.1//EN"
 "http://www.w3.org/Graphics/SVG/1.1/DTD/svg11.dtd">
<!-- Generated by graphviz version 2.43.0 (0)
 -->
<!-- Pages: 1 -->
<svg width="285pt" height="328pt"
 viewBox="0.00 0.00 285.00 328.03" xmlns="http://www.w3.org/2000/svg" xmlns:xlink="http://www.w3.org/1999/xlink">
<g id="graph0" class="graph" transform="scale(1 1) rotate(0) translate(4 324.03)">
<polygon fill="white" stroke="transparent" points="-4,4 -4,-324.03 281,-324.03 281,4 -4,4"/>
<text text-anchor="middle" x="138.5" y="-308.83" font-family="Times,serif" font-size="14.00">a0076ef0d991a6da142911c54568513f</text>
<!-- 0 -->
<g id="node1" class="node">
<title>0</title>
<ellipse fill="none" stroke="#cecece" cx="119.25" cy="-142.65" rx="27" ry="18"/>
<text text-anchor="middle" x="119.25" y="-138.95" font-family="Times,serif" font-size="14.00">0</text>
</g>
<!-- 1 -->
<g id="node2" class="node">
<title>1</title>
<ellipse fill="none" stroke="#8967ce" cx="103.15" cy="-213.12" rx="27" ry="18"/>
<text text-anchor="middle" x="103.15" y="-209.42" font-family="Times,serif" font-size="14.00">1</text>
</g>
<!-- 0&#45;&#45;1 -->
<g id="edge1" class="edge">
<title>0&#45;&#45;1</title>
<path fill="none" stroke="#4400ce" d="M115.11,-160.8C112.68,-171.4 109.64,-184.73 107.23,-195.28"/>
<text text-anchor="middle" x="107.17" y="-181.44" font-family="Times,serif" font-size="12.00">2</text>
</g>
<!-- 5 -->
<g id="node3" class="node">
<title>5</title>
<ellipse fill="none" stroke="#4400ce" cx="149.31" cy="-76.81" rx="27" ry="18"/>
<text text-anchor="middle" x="149.31" y="-73.11" font-family="Times,serif" font-size="14.00">5</text>
</g>
<!-- 0&#45;&#45;5 -->
<g id="edge2" class="edge">
<title>0&#45;&#45;5</title>
<path fill="none" stroke="#4400ce" d="M127.15,-125.35C131.53,-115.75 136.97,-103.84 141.36,-94.22"/>
<text text-anchor="middle" x="130.25" y="-113.19" font-family="Times,serif" font-size="12.00">6</text>
</g>
<!-- 3 -->
<g id="node4" class="node">
<title>3</title>
<ellipse fill="none" stroke="#4400ce" cx="85.59" cy="-283.03" rx="27" ry="18"/>
<text text-anchor="middle" x="85.59" y="-279.33" font-family="Times,serif" font-size="14.00">3</text>
</g>
<!-- 1&#45;&#45;3 -->
<g id="edge3" class="edge">
<title>1&#45;&#45;3</title>
<path fill="none" stroke="#4400ce" d="M98.63,-231.13C96.03,-241.48 92.77,-254.46 90.16,-264.85"/>
<text text-anchor="middle" x="90.4" y="-251.39" font-family="Times,serif" font-size="12.00">4</text>
</g>
<!-- 7 -->
<g id="node5" class="node">
<title>7</title>
<ellipse fill="none" stroke="#4400ce" cx="191.41" cy="-18" rx="27" ry="18"/>
<text text-anchor="middle" x="191.41" y="-14.3" font-family="Times,serif" font-size="14.00">7</text>
</g>
<!-- 5&#45;&#45;7 -->
<g id="edge4" class="edge">
<title>5&#45;&#45;7</title>
<path fill="none" stroke="#4400ce" d="M161.04,-60.43C166.87,-52.27 173.91,-42.44 179.74,-34.3"/>
<text text-anchor="middle" x="166.39" y="-37.76" font-family="Times,serif" font-size="12.00">8</text>
</g>
</g>
</svg>
