<?xml version="1.0" encoding="UTF-8" standalone="no"?>
<!DOCTYPE svg PUBLIC "-//W3C//DTD SVG 1.1//EN"
 "http://www.w3.org/Graphics/SVG/1.1/DTD/svg11.dtd">
<!-- Generated by graphviz version 2.43.0 (0)
 -->
<!-- Pages: 1 -->
<svg width="326pt" height="327pt"
 viewBox="0.00 0.00 325.87 327.28" xmlns="http://www.w3.org/2000/svg" xmlns:xlink="http://www.w3.org/1999/xlink">
<g id="graph0" class="graph" transform="scale(1 1) rotate(0) translate(4 323.28)">
<polygon fill="white" stroke="transparent" points="-4,4 -4,-323.28 321.87,-323.28 321.87,4 -4,4"/>
<text text-anchor="middle" x="158.93" y="-308.08" font-family="Times,serif" font-size="14.00">a4a3ee21760f84a161d855b3456b9e99</text>
<!-- 0 -->
<g id="node1" class="node">
<title>0</title>
<ellipse fill="none" stroke="#cecece" cx="27" cy="-18" rx="27" ry="18"/>
<text text-anchor="middle" x="27" y="-14.3" font-family="Times,serif" font-size="14.00">0</text>
</g>
<!-- 1 -->
<g id="node2" class="node">
<title>1</title>
<ellipse fill="none" stroke="#8967ce" cx="80.7" cy="-71.86" rx="27" ry="18"/>
<text text-anchor="middle" x="80.7" y="-68.16" font-family="Times,serif" font-size="14.00">1</text>
</g>
<!-- 0&#45;&#45;1 -->
<g id="edge1" class="edge">
<title>0&#45;&#45;1</title>
<path fill="none" stroke="#4400ce" d="M41.96,-33C49.28,-40.35 58.09,-49.18 65.45,-56.56"/>
<text text-anchor="middle" x="49.71" y="-48.18" font-family="Times,serif" font-size="12.00">2</text>
</g>
<!-- 3 -->
<g id="node3" class="node">
<title>3</title>
<ellipse fill="none" stroke="#4400ce" cx="138.46" cy="-129.81" rx="27" ry="18"/>
<text text-anchor="middle" x="138.46" y="-126.11" font-family="Times,serif" font-size="14.00">3</text>
</g>
<!-- 1&#45;&#45;3 -->
<g id="edge2" class="edge">
<title>1&#45;&#45;3</title>
<path fill="none" stroke="#4400ce" d="M95.88,-87.09C104.3,-95.54 114.75,-106.02 123.19,-114.49"/>
<text text-anchor="middle" x="105.54" y="-104.19" font-family="Times,serif" font-size="12.00">4</text>
</g>
<!-- 5 -->
<g id="node4" class="node">
<title>5</title>
<ellipse fill="none" stroke="#4400ce" cx="110.93" cy="-208.63" rx="27" ry="18"/>
<text text-anchor="middle" x="110.93" y="-204.93" font-family="Times,serif" font-size="14.00">5</text>
</g>
<!-- 3&#45;&#45;5 -->
<g id="edge3" class="edge">
<title>3&#45;&#45;5</title>
<path fill="none" stroke="#4400ce" d="M132.22,-147.7C127.68,-160.69 121.57,-178.18 117.06,-191.09"/>
<text text-anchor="middle" x="120.64" y="-172.79" font-family="Times,serif" font-size="12.00">6</text>
</g>
<!-- 11 -->
<g id="node5" class="node">
<title>11</title>
<ellipse fill="none" stroke="#4400ce" cx="217.38" cy="-102.54" rx="27" ry="18"/>
<text text-anchor="middle" x="217.38" y="-98.84" font-family="Times,serif" font-size="14.00">11</text>
</g>
<!-- 3&#45;&#45;11 -->
<g id="edge4" class="edge">
<title>3&#45;&#45;11</title>
<path fill="none" stroke="#4400ce" d="M162.57,-121.48C172.27,-118.13 183.44,-114.27 193.15,-110.92"/>
<text text-anchor="middle" x="181.86" y="-106.6" font-family="Times,serif" font-size="12.00">12</text>
</g>
<!-- 7 -->
<g id="node6" class="node">
<title>7</title>
<ellipse fill="none" stroke="#4400ce" cx="141.01" cy="-282.28" rx="27" ry="18"/>
<text text-anchor="middle" x="141.01" y="-278.58" font-family="Times,serif" font-size="14.00">7</text>
</g>
<!-- 5&#45;&#45;7 -->
<g id="edge5" class="edge">
<title>5&#45;&#45;7</title>
<path fill="none" stroke="#4400ce" d="M118.06,-226.09C122.82,-237.74 129.06,-253.01 133.83,-264.7"/>
<text text-anchor="middle" x="121.94" y="-248.79" font-family="Times,serif" font-size="12.00">8</text>
</g>
<!-- 9 -->
<g id="node7" class="node">
<title>9</title>
<ellipse fill="none" stroke="#4400ce" cx="38.23" cy="-241.41" rx="27" ry="18"/>
<text text-anchor="middle" x="38.23" y="-237.71" font-family="Times,serif" font-size="14.00">9</text>
</g>
<!-- 5&#45;&#45;9 -->
<g id="edge6" class="edge">
<title>5&#45;&#45;9</title>
<path fill="none" stroke="#4400ce" d="M88.33,-218.82C79.66,-222.73 69.76,-227.19 61.07,-231.11"/>
<text text-anchor="middle" x="74.7" y="-215.37" font-family="Times,serif" font-size="12.00">10</text>
</g>
<!-- 13 -->
<g id="node8" class="node">
<title>13</title>
<ellipse fill="none" stroke="#4400ce" cx="290.87" cy="-133.03" rx="27" ry="18"/>
<text text-anchor="middle" x="290.87" y="-129.33" font-family="Times,serif" font-size="14.00">13</text>
</g>
<!-- 11&#45;&#45;13 -->
<g id="edge7" class="edge">
<title>11&#45;&#45;13</title>
<path fill="none" stroke="#4400ce" d="M240.63,-112.19C249.29,-115.78 259.12,-119.86 267.77,-123.45"/>
<text text-anchor="middle" x="254.2" y="-108.22" font-family="Times,serif" font-size="12.00">14</text>
</g>
<!-- 15 -->
<g id="node9" class="node">
<title>15</title>
<ellipse fill="none" stroke="#4400ce" cx="250.5" cy="-30.03" rx="27" ry="18"/>
<text text-anchor="middle" x="250.5" y="-26.33" font-family="Times,serif" font-size="14.00">15</text>
</g>
<!-- 11&#45;&#45;15 -->
<g id="edge8" class="edge">
<title>11&#45;&#45;15</title>
<path fill="none" stroke="#4400ce" d="M225.4,-84.99C230.6,-73.59 237.36,-58.79 242.56,-47.42"/>
<text text-anchor="middle" x="225.98" y="-69.6" font-family="Times,serif" font-size="12.00">16</text>
</g>
</g>
</svg>
