<?xml version="1.0" encoding="UTF-8" standalone="no"?>
<!DOCTYPE svg PUBLIC "-//W3C//DTD SVG 1.1//EN"
 "http://www.w3.org/Graphics/SVG/1.1/DTD/svg11.dtd">
<!-- Generated by graphviz version 2.43.0 (0)
 -->
<!-- Pages: 1 -->
<svg width="285pt" height="194pt"
 viewBox="0.00 0.00 285.00 193.67" xmlns="http://www.w3.org/2000/svg" xmlns:xlink="http://www.w3.org/1999/xlink">
<g id="graph0" class="graph" transform="scale(1 1) rotate(0) translate(4 189.67)">
<polygon fill="white" stroke="transparent" points="-4,4 -4,-189.67 281,-189.67 281,4 -4,4"/>
<text text-anchor="middle" x="138.5" y="-174.47" font-family="Times,serif" font-size="14.00">be34842b21f992bf440745579e80a82c</text>
<!-- 0 -->
<g id="node1" class="node">
<title>0</title>
<ellipse fill="none" stroke="#cecece" cx="126.72" cy="-89.88" rx="27" ry="18"/>
<text text-anchor="middle" x="126.72" y="-86.18" font-family="Times,serif" font-size="14.00">0</text>
</g>
<!-- 1 -->
<g id="node2" class="node">
<title>1</title>
<ellipse fill="none" stroke="#8967ce" cx="194.12" cy="-62.33" rx="27" ry="18"/>
<text text-anchor="middle" x="194.12" y="-58.63" font-family="Times,serif" font-size="14.00">1</text>
</g>
<!-- 0&#45;&#45;1 -->
<g id="edge1" class="edge">
<title>0&#45;&#45;1</title>
<path fill="none" stroke="#4400ce" d="M149.91,-80.4C156.62,-77.66 163.93,-74.67 170.65,-71.92"/>
<text text-anchor="middle" x="162.28" y="-66.56" font-family="Times,serif" font-size="12.00">2</text>
</g>
<!-- 3 -->
<g id="node3" class="node">
<title>3</title>
<ellipse fill="none" stroke="#4400ce" cx="137.63" cy="-18" rx="27" ry="18"/>
<text text-anchor="middle" x="137.63" y="-14.3" font-family="Times,serif" font-size="14.00">3</text>
</g>
<!-- 0&#45;&#45;3 -->
<g id="edge2" class="edge">
<title>0&#45;&#45;3</title>
<path fill="none" stroke="#4400ce" d="M129.47,-71.74C131.11,-60.93 133.19,-47.24 134.84,-36.38"/>
<text text-anchor="middle" x="128.16" y="-57.46" font-family="Times,serif" font-size="12.00">5</text>
</g>
<!-- 6 -->
<g id="node4" class="node">
<title>6</title>
<ellipse fill="none" stroke="#4400ce" cx="82.88" cy="-148.67" rx="27" ry="18"/>
<text text-anchor="middle" x="82.88" y="-144.97" font-family="Times,serif" font-size="14.00">6</text>
</g>
<!-- 0&#45;&#45;6 -->
<g id="edge3" class="edge">
<title>0&#45;&#45;6</title>
<path fill="none" stroke="#4400ce" d="M114.51,-106.26C108.43,-114.41 101.1,-124.24 95.03,-132.38"/>
<text text-anchor="middle" x="100.77" y="-109.72" font-family="Times,serif" font-size="12.00">7</text>
</g>
<!-- 1&#45;&#45;3 -->
<g id="edge4" class="edge">
<title>1&#45;&#45;3</title>
<path fill="none" stroke="#4400ce" d="M176.56,-48.54C169.82,-43.26 162.13,-37.23 155.38,-31.93"/>
<text text-anchor="middle" x="161.97" y="-43.63" font-family="Times,serif" font-size="12.00">4</text>
</g>
</g>
</svg>
