<?xml version="1.0" encoding="UTF-8" standalone="no"?>
<!DOCTYPE svg PUBLIC "-//W3C//DTD SVG 1.1//EN"
 "http://www.w3.org/Graphics/SVG/1.1/DTD/svg11.dtd">
<!-- Generated by graphviz version 2.43.0 (0)
 -->
<!-- Pages: 1 -->
<svg width="408pt" height="439pt"
 viewBox="0.00 0.00 408.03 439.36" xmlns="http://www.w3.org/2000/svg" xmlns:xlink="http://www.w3.org/1999/xlink">
<g id="graph0" class="graph" transform="scale(1 1) rotate(0) translate(4 435.36)">
<polygon fill="white" stroke="transparent" points="-4,4 -4,-435.36 404.03,-435.36 404.03,4 -4,4"/>
<text text-anchor="middle" x="200.01" y="-420.16" font-family="Times,serif" font-size="14.00">be74f2a887519c28f358ddc9ae1efead</text>
<!-- 0 -->
<g id="node1" class="node">
<title>0</title>
<ellipse fill="none" stroke="#cecece" cx="27" cy="-394.36" rx="27" ry="18"/>
<text text-anchor="middle" x="27" y="-390.66" font-family="Times,serif" font-size="14.00">0</text>
</g>
<!-- 1 -->
<g id="node2" class="node">
<title>1</title>
<ellipse fill="none" stroke="#8967ce" cx="77.6" cy="-342.52" rx="27" ry="18"/>
<text text-anchor="middle" x="77.6" y="-338.82" font-family="Times,serif" font-size="14.00">1</text>
</g>
<!-- 0&#45;&#45;1 -->
<g id="edge1" class="edge">
<title>0&#45;&#45;1</title>
<path fill="none" stroke="#4400ce" d="M41.91,-379.09C48.44,-372.4 56.09,-364.56 62.62,-357.87"/>
<text text-anchor="middle" x="48.27" y="-358.88" font-family="Times,serif" font-size="12.00">2</text>
</g>
<!-- 3 -->
<g id="node3" class="node">
<title>3</title>
<ellipse fill="none" stroke="#4400ce" cx="119.6" cy="-283.34" rx="27" ry="18"/>
<text text-anchor="middle" x="119.6" y="-279.64" font-family="Times,serif" font-size="14.00">3</text>
</g>
<!-- 1&#45;&#45;3 -->
<g id="edge2" class="edge">
<title>1&#45;&#45;3</title>
<path fill="none" stroke="#4400ce" d="M89.3,-326.04C95.13,-317.83 102.15,-307.93 107.97,-299.74"/>
<text text-anchor="middle" x="102.63" y="-316.29" font-family="Times,serif" font-size="12.00">4</text>
</g>
<!-- 5 -->
<g id="node4" class="node">
<title>5</title>
<ellipse fill="none" stroke="#4400ce" cx="156.87" cy="-220.62" rx="27" ry="18"/>
<text text-anchor="middle" x="156.87" y="-216.92" font-family="Times,serif" font-size="14.00">5</text>
</g>
<!-- 3&#45;&#45;5 -->
<g id="edge3" class="edge">
<title>3&#45;&#45;5</title>
<path fill="none" stroke="#4400ce" d="M129.59,-266.53C134.94,-257.53 141.5,-246.48 146.86,-237.48"/>
<text text-anchor="middle" x="134.22" y="-255.4" font-family="Times,serif" font-size="12.00">6</text>
</g>
<!-- 7 -->
<g id="node5" class="node">
<title>7</title>
<ellipse fill="none" stroke="#4400ce" cx="191.21" cy="-155.11" rx="27" ry="18"/>
<text text-anchor="middle" x="191.21" y="-151.41" font-family="Times,serif" font-size="14.00">7</text>
</g>
<!-- 5&#45;&#45;7 -->
<g id="edge4" class="edge">
<title>5&#45;&#45;7</title>
<path fill="none" stroke="#4400ce" d="M165.89,-203.41C170.9,-193.86 177.11,-182.01 182.13,-172.44"/>
<text text-anchor="middle" x="170.01" y="-191.32" font-family="Times,serif" font-size="12.00">8</text>
</g>
<!-- 9 -->
<g id="node6" class="node">
<title>9</title>
<ellipse fill="none" stroke="#4400ce" cx="225.13" cy="-84.99" rx="27" ry="18"/>
<text text-anchor="middle" x="225.13" y="-81.29" font-family="Times,serif" font-size="14.00">9</text>
</g>
<!-- 7&#45;&#45;9 -->
<g id="edge5" class="edge">
<title>7&#45;&#45;9</title>
<path fill="none" stroke="#4400ce" d="M199.59,-137.78C204.85,-126.91 211.6,-112.95 216.84,-102.12"/>
<text text-anchor="middle" x="200.22" y="-123.35" font-family="Times,serif" font-size="12.00">10</text>
</g>
<!-- 11 -->
<g id="node7" class="node">
<title>11</title>
<ellipse fill="none" stroke="#4400ce" cx="181.17" cy="-18" rx="27" ry="18"/>
<text text-anchor="middle" x="181.17" y="-14.3" font-family="Times,serif" font-size="14.00">11</text>
</g>
<!-- 9&#45;&#45;11 -->
<g id="edge6" class="edge">
<title>9&#45;&#45;11</title>
<path fill="none" stroke="#4400ce" d="M214.26,-68.43C207.55,-58.2 198.96,-45.11 192.22,-34.83"/>
<text text-anchor="middle" x="195.24" y="-55.03" font-family="Times,serif" font-size="12.00">12</text>
</g>
<!-- 13 -->
<g id="node8" class="node">
<title>13</title>
<ellipse fill="none" stroke="#4400ce" cx="302.48" cy="-69.94" rx="27" ry="18"/>
<text text-anchor="middle" x="302.48" y="-66.23" font-family="Times,serif" font-size="14.00">13</text>
</g>
<!-- 9&#45;&#45;13 -->
<g id="edge7" class="edge">
<title>9&#45;&#45;13</title>
<path fill="none" stroke="#4400ce" d="M251.32,-79.89C259.38,-78.32 268.26,-76.59 276.32,-75.03"/>
<text text-anchor="middle" x="267.82" y="-67.86" font-family="Times,serif" font-size="12.00">14</text>
</g>
<!-- 15 -->
<g id="node9" class="node">
<title>15</title>
<ellipse fill="none" stroke="#4400ce" cx="373.03" cy="-46.94" rx="27" ry="18"/>
<text text-anchor="middle" x="373.03" y="-43.23" font-family="Times,serif" font-size="14.00">15</text>
</g>
<!-- 13&#45;&#45;15 -->
<g id="edge8" class="edge">
<title>13&#45;&#45;15</title>
<path fill="none" stroke="#4400ce" d="M326.76,-62.02C333.77,-59.73 341.43,-57.23 348.46,-54.94"/>
<text text-anchor="middle" x="337.61" y="-48.88" font-family="Times,serif" font-size="12.00">16</text>
</g>
</g>
</svg>
