<?xml version="1.0" encoding="UTF-8" standalone="no"?>
<!DOCTYPE svg PUBLIC "-//W3C//DTD SVG 1.1//EN"
 "http://www.w3.org/Graphics/SVG/1.1/DTD/svg11.dtd">
<!-- Generated by graphviz version 2.43.0 (0)
 -->
<!-- Pages: 1 -->
<svg width="464pt" height="489pt"
 viewBox="0.00 0.00 463.94 489.40" xmlns="http://www.w3.org/2000/svg" xmlns:xlink="http://www.w3.org/1999/xlink">
<g id="graph0" class="graph" transform="scale(1 1) rotate(0) translate(4 485.4)">
<polygon fill="white" stroke="transparent" points="-4,4 -4,-485.4 459.94,-485.4 459.94,4 -4,4"/>
<text text-anchor="middle" x="227.97" y="-470.2" font-family="Times,serif" font-size="14.00">c26250809ac868e0e808fb6330d961b8</text>
<!-- 0 -->
<g id="node1" class="node">
<title>0</title>
<ellipse fill="none" stroke="#cecece" cx="27" cy="-444.4" rx="27" ry="18"/>
<text text-anchor="middle" x="27" y="-440.7" font-family="Times,serif" font-size="14.00">0</text>
</g>
<!-- 1 -->
<g id="node2" class="node">
<title>1</title>
<ellipse fill="none" stroke="#8967ce" cx="82" cy="-397.24" rx="27" ry="18"/>
<text text-anchor="middle" x="82" y="-393.54" font-family="Times,serif" font-size="14.00">1</text>
</g>
<!-- 0&#45;&#45;1 -->
<g id="edge1" class="edge">
<title>0&#45;&#45;1</title>
<path fill="none" stroke="#4400ce" d="M43.8,-429.99C50.62,-424.14 58.49,-417.4 65.3,-411.56"/>
<text text-anchor="middle" x="50.55" y="-411.18" font-family="Times,serif" font-size="12.00">2</text>
</g>
<!-- 3 -->
<g id="node3" class="node">
<title>3</title>
<ellipse fill="none" stroke="#4400ce" cx="127.8" cy="-341.11" rx="27" ry="18"/>
<text text-anchor="middle" x="127.8" y="-337.41" font-family="Times,serif" font-size="14.00">3</text>
</g>
<!-- 1&#45;&#45;3 -->
<g id="edge2" class="edge">
<title>1&#45;&#45;3</title>
<path fill="none" stroke="#4400ce" d="M95,-381.3C101.14,-373.79 108.44,-364.83 114.6,-357.28"/>
<text text-anchor="middle" x="100.8" y="-359.69" font-family="Times,serif" font-size="12.00">4</text>
</g>
<!-- 5 -->
<g id="node4" class="node">
<title>5</title>
<ellipse fill="none" stroke="#4400ce" cx="172.33" cy="-283.7" rx="27" ry="18"/>
<text text-anchor="middle" x="172.33" y="-280" font-family="Times,serif" font-size="14.00">5</text>
</g>
<!-- 3&#45;&#45;5 -->
<g id="edge3" class="edge">
<title>3&#45;&#45;5</title>
<path fill="none" stroke="#4400ce" d="M140.2,-325.12C146.27,-317.29 153.57,-307.88 159.68,-300"/>
<text text-anchor="middle" x="145.94" y="-302.96" font-family="Times,serif" font-size="12.00">6</text>
</g>
<!-- 7 -->
<g id="node5" class="node">
<title>7</title>
<ellipse fill="none" stroke="#4400ce" cx="209.3" cy="-220.74" rx="27" ry="18"/>
<text text-anchor="middle" x="209.3" y="-217.04" font-family="Times,serif" font-size="14.00">7</text>
</g>
<!-- 5&#45;&#45;7 -->
<g id="edge4" class="edge">
<title>5&#45;&#45;7</title>
<path fill="none" stroke="#4400ce" d="M182.24,-266.83C187.54,-257.79 194.06,-246.7 199.37,-237.66"/>
<text text-anchor="middle" x="186.8" y="-255.64" font-family="Times,serif" font-size="12.00">8</text>
</g>
<!-- 9 -->
<g id="node6" class="node">
<title>9</title>
<ellipse fill="none" stroke="#4400ce" cx="244.78" cy="-155.77" rx="27" ry="18"/>
<text text-anchor="middle" x="244.78" y="-152.07" font-family="Times,serif" font-size="14.00">9</text>
</g>
<!-- 7&#45;&#45;9 -->
<g id="edge5" class="edge">
<title>7&#45;&#45;9</title>
<path fill="none" stroke="#4400ce" d="M218.62,-203.67C223.8,-194.19 230.21,-182.44 235.4,-172.95"/>
<text text-anchor="middle" x="219.01" y="-191.71" font-family="Times,serif" font-size="12.00">10</text>
</g>
<!-- 11 -->
<g id="node7" class="node">
<title>11</title>
<ellipse fill="none" stroke="#4400ce" cx="280.37" cy="-86.48" rx="27" ry="18"/>
<text text-anchor="middle" x="280.37" y="-82.78" font-family="Times,serif" font-size="14.00">11</text>
</g>
<!-- 9&#45;&#45;11 -->
<g id="edge6" class="edge">
<title>9&#45;&#45;11</title>
<path fill="none" stroke="#4400ce" d="M253.58,-138.64C259.01,-128.06 265.96,-114.52 271.43,-103.89"/>
<text text-anchor="middle" x="254.5" y="-124.66" font-family="Times,serif" font-size="12.00">12</text>
</g>
<!-- 13 -->
<g id="node8" class="node">
<title>13</title>
<ellipse fill="none" stroke="#4400ce" cx="358.13" cy="-72.87" rx="27" ry="18"/>
<text text-anchor="middle" x="358.13" y="-69.17" font-family="Times,serif" font-size="14.00">13</text>
</g>
<!-- 11&#45;&#45;13 -->
<g id="edge7" class="edge">
<title>11&#45;&#45;13</title>
<path fill="none" stroke="#4400ce" d="M306.69,-81.87C314.8,-80.45 323.72,-78.89 331.83,-77.47"/>
<text text-anchor="middle" x="323.26" y="-70.07" font-family="Times,serif" font-size="12.00">14</text>
</g>
<!-- 17 -->
<g id="node9" class="node">
<title>17</title>
<ellipse fill="none" stroke="#4400ce" cx="238.48" cy="-18" rx="27" ry="18"/>
<text text-anchor="middle" x="238.48" y="-14.3" font-family="Times,serif" font-size="14.00">17</text>
</g>
<!-- 11&#45;&#45;17 -->
<g id="edge8" class="edge">
<title>11&#45;&#45;17</title>
<path fill="none" stroke="#4400ce" d="M270.02,-69.55C263.52,-58.94 255.19,-45.31 248.72,-34.73"/>
<text text-anchor="middle" x="251.37" y="-55.54" font-family="Times,serif" font-size="12.00">18</text>
</g>
<!-- 15 -->
<g id="node10" class="node">
<title>15</title>
<ellipse fill="none" stroke="#4400ce" cx="428.94" cy="-50.43" rx="27" ry="18"/>
<text text-anchor="middle" x="428.94" y="-46.73" font-family="Times,serif" font-size="14.00">15</text>
</g>
<!-- 13&#45;&#45;15 -->
<g id="edge9" class="edge">
<title>13&#45;&#45;15</title>
<path fill="none" stroke="#4400ce" d="M382.89,-65.02C389.91,-62.8 397.55,-60.38 404.54,-58.16"/>
<text text-anchor="middle" x="393.72" y="-51.99" font-family="Times,serif" font-size="12.00">16</text>
</g>
</g>
</svg>
