<?xml version="1.0" encoding="UTF-8" standalone="no"?>
<!DOCTYPE svg PUBLIC "-//W3C//DTD SVG 1.1//EN"
 "http://www.w3.org/Graphics/SVG/1.1/DTD/svg11.dtd">
<!-- Generated by graphviz version 2.43.0 (0)
 -->
<!-- Pages: 1 -->
<svg width="317pt" height="347pt"
 viewBox="0.00 0.00 316.90 347.00" xmlns="http://www.w3.org/2000/svg" xmlns:xlink="http://www.w3.org/1999/xlink">
<g id="graph0" class="graph" transform="scale(1 1) rotate(0) translate(4 343)">
<polygon fill="white" stroke="transparent" points="-4,4 -4,-343 312.9,-343 312.9,4 -4,4"/>
<text text-anchor="middle" x="154.45" y="-327.8" font-family="Times,serif" font-size="14.00">c402ddd2ae815a117cce4904d4cdd0fd</text>
<!-- 0 -->
<g id="node1" class="node">
<title>0</title>
<ellipse fill="none" stroke="#cecece" cx="27" cy="-302" rx="27" ry="18"/>
<text text-anchor="middle" x="27" y="-298.3" font-family="Times,serif" font-size="14.00">0</text>
</g>
<!-- 1 -->
<g id="node2" class="node">
<title>1</title>
<ellipse fill="none" stroke="#8967ce" cx="86.34" cy="-259.47" rx="27" ry="18"/>
<text text-anchor="middle" x="86.34" y="-255.77" font-family="Times,serif" font-size="14.00">1</text>
</g>
<!-- 0&#45;&#45;1 -->
<g id="edge1" class="edge">
<title>0&#45;&#45;1</title>
<path fill="none" stroke="#4400ce" d="M45.45,-288.78C52.53,-283.7 60.6,-277.92 67.69,-272.83"/>
<text text-anchor="middle" x="52.57" y="-271.2" font-family="Times,serif" font-size="12.00">2</text>
</g>
<!-- 3 -->
<g id="node3" class="node">
<title>3</title>
<ellipse fill="none" stroke="#4400ce" cx="141.07" cy="-209.08" rx="27" ry="18"/>
<text text-anchor="middle" x="141.07" y="-205.38" font-family="Times,serif" font-size="14.00">3</text>
</g>
<!-- 1&#45;&#45;3 -->
<g id="edge2" class="edge">
<title>1&#45;&#45;3</title>
<path fill="none" stroke="#4400ce" d="M102.46,-244.62C109.53,-238.12 117.8,-230.5 124.87,-223.99"/>
<text text-anchor="middle" x="109.67" y="-224.71" font-family="Times,serif" font-size="12.00">4</text>
</g>
<!-- 5 -->
<g id="node4" class="node">
<title>5</title>
<ellipse fill="none" stroke="#4400ce" cx="204.93" cy="-163.03" rx="27" ry="18"/>
<text text-anchor="middle" x="204.93" y="-159.33" font-family="Times,serif" font-size="14.00">5</text>
</g>
<!-- 3&#45;&#45;5 -->
<g id="edge3" class="edge">
<title>3&#45;&#45;5</title>
<path fill="none" stroke="#4400ce" d="M159.54,-195.76C167.94,-189.7 177.86,-182.55 186.28,-176.48"/>
<text text-anchor="middle" x="168.91" y="-176.52" font-family="Times,serif" font-size="12.00">6</text>
</g>
<!-- 7 -->
<g id="node5" class="node">
<title>7</title>
<ellipse fill="none" stroke="#4400ce" cx="271.95" cy="-208.41" rx="27" ry="18"/>
<text text-anchor="middle" x="271.95" y="-204.71" font-family="Times,serif" font-size="14.00">7</text>
</g>
<!-- 5&#45;&#45;7 -->
<g id="edge4" class="edge">
<title>5&#45;&#45;7</title>
<path fill="none" stroke="#4400ce" d="M223.95,-175.91C232.93,-181.99 243.63,-189.23 252.65,-195.34"/>
<text text-anchor="middle" x="234.3" y="-189.02" font-family="Times,serif" font-size="12.00">8</text>
</g>
<!-- 9 -->
<g id="node6" class="node">
<title>9</title>
<ellipse fill="none" stroke="#4400ce" cx="213.52" cy="-81.77" rx="27" ry="18"/>
<text text-anchor="middle" x="213.52" y="-78.07" font-family="Times,serif" font-size="14.00">9</text>
</g>
<!-- 5&#45;&#45;9 -->
<g id="edge5" class="edge">
<title>5&#45;&#45;9</title>
<path fill="none" stroke="#4400ce" d="M206.83,-144.99C208.26,-131.53 210.19,-113.21 211.62,-99.75"/>
<text text-anchor="middle" x="201.22" y="-125.77" font-family="Times,serif" font-size="12.00">10</text>
</g>
<!-- 11 -->
<g id="node7" class="node">
<title>11</title>
<ellipse fill="none" stroke="#4400ce" cx="166.6" cy="-18" rx="27" ry="18"/>
<text text-anchor="middle" x="166.6" y="-14.3" font-family="Times,serif" font-size="14.00">11</text>
</g>
<!-- 9&#45;&#45;11 -->
<g id="edge6" class="edge">
<title>9&#45;&#45;11</title>
<path fill="none" stroke="#4400ce" d="M201.44,-65.35C194.48,-55.9 185.77,-44.06 178.8,-34.59"/>
<text text-anchor="middle" x="182.12" y="-53.37" font-family="Times,serif" font-size="12.00">12</text>
</g>
<!-- 13 -->
<g id="node8" class="node">
<title>13</title>
<ellipse fill="none" stroke="#4400ce" cx="281.9" cy="-41.73" rx="27" ry="18"/>
<text text-anchor="middle" x="281.9" y="-38.02" font-family="Times,serif" font-size="14.00">13</text>
</g>
<!-- 9&#45;&#45;13 -->
<g id="edge7" class="edge">
<title>9&#45;&#45;13</title>
<path fill="none" stroke="#4400ce" d="M234.03,-69.76C242.69,-64.69 252.74,-58.8 261.4,-53.73"/>
<text text-anchor="middle" x="239.71" y="-52.14" font-family="Times,serif" font-size="12.00">14</text>
</g>
</g>
</svg>
