<?xml version="1.0" encoding="UTF-8" standalone="no"?>
<!DOCTYPE svg PUBLIC "-//W3C//DTD SVG 1.1//EN"
 "http://www.w3.org/Graphics/SVG/1.1/DTD/svg11.dtd">
<!-- Generated by graphviz version 2.43.0 (0)
 -->
<!-- Pages: 1 -->
<svg width="906pt" height="189pt"
 viewBox="0.00 0.00 905.84 188.79" xmlns="http://www.w3.org/2000/svg" xmlns:xlink="http://www.w3.org/1999/xlink">
<g id="graph0" class="graph" transform="scale(1 1) rotate(0) translate(4 184.79)">
<polygon fill="white" stroke="transparent" points="-4,4 -4,-184.79 901.84,-184.79 901.84,4 -4,4"/>
<text text-anchor="middle" x="448.92" y="-169.59" font-family="Times,serif" font-size="14.00">caec0eee6c10426ebef1f08888a8b1f9</text>
<!-- 0 -->
<g id="node1" class="node">
<title>0</title>
<ellipse fill="none" stroke="#cecece" cx="27" cy="-141.97" rx="27" ry="18"/>
<text text-anchor="middle" x="27" y="-138.27" font-family="Times,serif" font-size="14.00">0</text>
</g>
<!-- 1 -->
<g id="node2" class="node">
<title>1</title>
<ellipse fill="none" stroke="#8967ce" cx="98.22" cy="-130.66" rx="27" ry="18"/>
<text text-anchor="middle" x="98.22" y="-126.96" font-family="Times,serif" font-size="14.00">1</text>
</g>
<!-- 0&#45;&#45;1 -->
<g id="edge1" class="edge">
<title>0&#45;&#45;1</title>
<path fill="none" stroke="#4400ce" d="M53.52,-137.76C59.53,-136.8 65.91,-135.79 71.92,-134.84"/>
<text text-anchor="middle" x="58.72" y="-139.7" font-family="Times,serif" font-size="12.00">2</text>
</g>
<!-- 3 -->
<g id="node3" class="node">
<title>3</title>
<ellipse fill="none" stroke="#4400ce" cx="167.58" cy="-110.29" rx="27" ry="18"/>
<text text-anchor="middle" x="167.58" y="-106.59" font-family="Times,serif" font-size="14.00">3</text>
</g>
<!-- 1&#45;&#45;3 -->
<g id="edge2" class="edge">
<title>1&#45;&#45;3</title>
<path fill="none" stroke="#4400ce" d="M123.26,-123.3C129.63,-121.44 136.46,-119.43 142.81,-117.56"/>
<text text-anchor="middle" x="129.04" y="-123.83" font-family="Times,serif" font-size="12.00">4</text>
</g>
<!-- 5 -->
<g id="node4" class="node">
<title>5</title>
<ellipse fill="none" stroke="#4400ce" cx="239.53" cy="-103.35" rx="27" ry="18"/>
<text text-anchor="middle" x="239.53" y="-99.65" font-family="Times,serif" font-size="14.00">5</text>
</g>
<!-- 3&#45;&#45;5 -->
<g id="edge3" class="edge">
<title>3&#45;&#45;5</title>
<path fill="none" stroke="#4400ce" d="M194.38,-107.71C200.29,-107.14 206.56,-106.53 212.48,-105.96"/>
<text text-anchor="middle" x="199.43" y="-110.23" font-family="Times,serif" font-size="12.00">6</text>
</g>
<!-- 7 -->
<g id="node5" class="node">
<title>7</title>
<ellipse fill="none" stroke="#4400ce" cx="310.3" cy="-88.84" rx="27" ry="18"/>
<text text-anchor="middle" x="310.3" y="-85.14" font-family="Times,serif" font-size="14.00">7</text>
</g>
<!-- 5&#45;&#45;7 -->
<g id="edge4" class="edge">
<title>5&#45;&#45;7</title>
<path fill="none" stroke="#4400ce" d="M265.48,-98.03C271.64,-96.77 278.2,-95.42 284.36,-94.16"/>
<text text-anchor="middle" x="270.92" y="-99.49" font-family="Times,serif" font-size="12.00">8</text>
</g>
<!-- 9 -->
<g id="node6" class="node">
<title>9</title>
<ellipse fill="none" stroke="#4400ce" cx="380.69" cy="-71.95" rx="27" ry="18"/>
<text text-anchor="middle" x="380.69" y="-68.25" font-family="Times,serif" font-size="14.00">9</text>
</g>
<!-- 7&#45;&#45;9 -->
<g id="edge5" class="edge">
<title>7&#45;&#45;9</title>
<path fill="none" stroke="#4400ce" d="M335.71,-82.74C342.02,-81.23 348.77,-79.61 355.08,-78.09"/>
<text text-anchor="middle" x="345.4" y="-70.82" font-family="Times,serif" font-size="12.00">10</text>
</g>
<!-- 11 -->
<g id="node7" class="node">
<title>11</title>
<ellipse fill="none" stroke="#4400ce" cx="452.48" cy="-62.26" rx="27" ry="18"/>
<text text-anchor="middle" x="452.48" y="-58.56" font-family="Times,serif" font-size="14.00">11</text>
</g>
<!-- 9&#45;&#45;11 -->
<g id="edge6" class="edge">
<title>9&#45;&#45;11</title>
<path fill="none" stroke="#4400ce" d="M407.42,-68.34C413.48,-67.52 419.91,-66.65 425.96,-65.84"/>
<text text-anchor="middle" x="416.69" y="-57.49" font-family="Times,serif" font-size="12.00">12</text>
</g>
<!-- 13 -->
<g id="node8" class="node">
<title>13</title>
<ellipse fill="none" stroke="#4400ce" cx="524.95" cy="-59.83" rx="27" ry="18"/>
<text text-anchor="middle" x="524.95" y="-56.13" font-family="Times,serif" font-size="14.00">13</text>
</g>
<!-- 11&#45;&#45;13 -->
<g id="edge7" class="edge">
<title>11&#45;&#45;13</title>
<path fill="none" stroke="#4400ce" d="M479.46,-61.35C485.42,-61.15 491.73,-60.94 497.7,-60.74"/>
<text text-anchor="middle" x="488.58" y="-51.45" font-family="Times,serif" font-size="12.00">14</text>
</g>
<!-- 15 -->
<g id="node9" class="node">
<title>15</title>
<ellipse fill="none" stroke="#4400ce" cx="597.49" cy="-61.89" rx="27" ry="18"/>
<text text-anchor="middle" x="597.49" y="-58.19" font-family="Times,serif" font-size="14.00">15</text>
</g>
<!-- 13&#45;&#45;15 -->
<g id="edge8" class="edge">
<title>13&#45;&#45;15</title>
<path fill="none" stroke="#4400ce" d="M551.97,-60.6C557.93,-60.77 564.25,-60.95 570.22,-61.11"/>
<text text-anchor="middle" x="561.09" y="-51.25" font-family="Times,serif" font-size="12.00">16</text>
</g>
<!-- 17 -->
<g id="node10" class="node">
<title>17</title>
<ellipse fill="none" stroke="#4400ce" cx="670.06" cy="-68.23" rx="27" ry="18"/>
<text text-anchor="middle" x="670.06" y="-64.53" font-family="Times,serif" font-size="14.00">17</text>
</g>
<!-- 15&#45;&#45;17 -->
<g id="edge9" class="edge">
<title>15&#45;&#45;17</title>
<path fill="none" stroke="#4400ce" d="M624.52,-64.25C630.64,-64.78 637.14,-65.35 643.26,-65.89"/>
<text text-anchor="middle" x="633.89" y="-55.47" font-family="Times,serif" font-size="12.00">18</text>
</g>
<!-- 19 -->
<g id="node11" class="node">
<title>19</title>
<ellipse fill="none" stroke="#4400ce" cx="743.34" cy="-74.61" rx="27" ry="18"/>
<text text-anchor="middle" x="743.34" y="-70.91" font-family="Times,serif" font-size="14.00">19</text>
</g>
<!-- 17&#45;&#45;19 -->
<g id="edge10" class="edge">
<title>17&#45;&#45;19</title>
<path fill="none" stroke="#4400ce" d="M696.93,-70.57C703.3,-71.12 710.1,-71.72 716.47,-72.27"/>
<text text-anchor="middle" x="706.7" y="-61.82" font-family="Times,serif" font-size="12.00">20</text>
</g>
<!-- 21 -->
<g id="node12" class="node">
<title>21</title>
<ellipse fill="none" stroke="#4400ce" cx="820.05" cy="-78.59" rx="27" ry="18"/>
<text text-anchor="middle" x="820.05" y="-74.89" font-family="Times,serif" font-size="14.00">21</text>
</g>
<!-- 19&#45;&#45;21 -->
<g id="edge11" class="edge">
<title>19&#45;&#45;21</title>
<path fill="none" stroke="#4400ce" d="M770.6,-76.03C777.84,-76.4 785.65,-76.81 792.88,-77.18"/>
<text text-anchor="middle" x="785.74" y="-67" font-family="Times,serif" font-size="12.00">22</text>
</g>
<!-- 23 -->
<g id="node13" class="node">
<title>23</title>
<ellipse fill="none" stroke="#4400ce" cx="870.84" cy="-18" rx="27" ry="18"/>
<text text-anchor="middle" x="870.84" y="-14.3" font-family="Times,serif" font-size="14.00">23</text>
</g>
<!-- 21&#45;&#45;23 -->
<g id="edge12" class="edge">
<title>21&#45;&#45;23</title>
<path fill="none" stroke="#4400ce" d="M833.4,-62.67C840.8,-53.83 849.99,-42.88 857.41,-34.02"/>
<text text-anchor="middle" x="837.41" y="-38.75" font-family="Times,serif" font-size="12.00">24</text>
</g>
<!-- 25 -->
<g id="node14" class="node">
<title>25</title>
<ellipse fill="none" stroke="#4400ce" cx="864.8" cy="-143.79" rx="27" ry="18"/>
<text text-anchor="middle" x="864.8" y="-140.09" font-family="Times,serif" font-size="14.00">25</text>
</g>
<!-- 21&#45;&#45;25 -->
<g id="edge13" class="edge">
<title>21&#45;&#45;25</title>
<path fill="none" stroke="#4400ce" d="M831.34,-95.04C838.07,-104.85 846.6,-117.27 853.35,-127.11"/>
<text text-anchor="middle" x="834.35" y="-114.48" font-family="Times,serif" font-size="12.00">26</text>
</g>
</g>
</svg>
