<?xml version="1.0" encoding="UTF-8" standalone="no"?>
<!DOCTYPE svg PUBLIC "-//W3C//DTD SVG 1.1//EN"
 "http://www.w3.org/Graphics/SVG/1.1/DTD/svg11.dtd">
<!-- Generated by graphviz version 2.43.0 (0)
 -->
<!-- Pages: 1 -->
<svg width="295pt" height="294pt"
 viewBox="0.00 0.00 295.34 293.97" xmlns="http://www.w3.org/2000/svg" xmlns:xlink="http://www.w3.org/1999/xlink">
<g id="graph0" class="graph" transform="scale(1 1) rotate(0) translate(4 289.97)">
<polygon fill="white" stroke="transparent" points="-4,4 -4,-289.97 291.34,-289.97 291.34,4 -4,4"/>
<text text-anchor="middle" x="143.67" y="-274.77" font-family="Times,serif" font-size="14.00">cb40b143b20124def847dac5e5b248a8</text>
<!-- 0 -->
<g id="node1" class="node">
<title>0</title>
<ellipse fill="none" stroke="#cecece" cx="222.71" cy="-18" rx="27" ry="18"/>
<text text-anchor="middle" x="222.71" y="-14.3" font-family="Times,serif" font-size="14.00">0</text>
</g>
<!-- 1 -->
<g id="node2" class="node">
<title>1</title>
<ellipse fill="none" stroke="#8967ce" cx="201.71" cy="-90.02" rx="27" ry="18"/>
<text text-anchor="middle" x="201.71" y="-86.32" font-family="Times,serif" font-size="14.00">1</text>
</g>
<!-- 0&#45;&#45;1 -->
<g id="edge1" class="edge">
<title>0&#45;&#45;1</title>
<path fill="none" stroke="#4400ce" d="M217.52,-35.8C214.29,-46.88 210.15,-61.08 206.92,-72.17"/>
<text text-anchor="middle" x="208.22" y="-57.38" font-family="Times,serif" font-size="12.00">2</text>
</g>
<!-- 3 -->
<g id="node3" class="node">
<title>3</title>
<ellipse fill="none" stroke="#4400ce" cx="182.44" cy="-168.44" rx="27" ry="18"/>
<text text-anchor="middle" x="182.44" y="-164.74" font-family="Times,serif" font-size="14.00">3</text>
</g>
<!-- 1&#45;&#45;3 -->
<g id="edge2" class="edge">
<title>1&#45;&#45;3</title>
<path fill="none" stroke="#4400ce" d="M197.34,-107.81C194.21,-120.55 190,-137.65 186.86,-150.44"/>
<text text-anchor="middle" x="188.1" y="-132.53" font-family="Times,serif" font-size="12.00">4</text>
</g>
<!-- 5 -->
<g id="node4" class="node">
<title>5</title>
<ellipse fill="none" stroke="#4400ce" cx="101.72" cy="-170.96" rx="27" ry="18"/>
<text text-anchor="middle" x="101.72" y="-167.26" font-family="Times,serif" font-size="14.00">5</text>
</g>
<!-- 3&#45;&#45;5 -->
<g id="edge3" class="edge">
<title>3&#45;&#45;5</title>
<path fill="none" stroke="#4400ce" d="M155.11,-169.29C146.6,-169.56 137.23,-169.85 128.74,-170.12"/>
<text text-anchor="middle" x="137.93" y="-173.1" font-family="Times,serif" font-size="12.00">6</text>
</g>
<!-- 9 -->
<g id="node5" class="node">
<title>9</title>
<ellipse fill="none" stroke="#4400ce" cx="260.34" cy="-189.45" rx="27" ry="18"/>
<text text-anchor="middle" x="260.34" y="-185.75" font-family="Times,serif" font-size="14.00">9</text>
</g>
<!-- 3&#45;&#45;9 -->
<g id="edge4" class="edge">
<title>3&#45;&#45;9</title>
<path fill="none" stroke="#4400ce" d="M207.51,-175.2C216.41,-177.6 226.41,-180.3 235.31,-182.7"/>
<text text-anchor="middle" x="225.41" y="-169.35" font-family="Times,serif" font-size="12.00">10</text>
</g>
<!-- 11 -->
<g id="node6" class="node">
<title>11</title>
<ellipse fill="none" stroke="#4400ce" cx="186.88" cy="-248.97" rx="27" ry="18"/>
<text text-anchor="middle" x="186.88" y="-245.27" font-family="Times,serif" font-size="14.00">11</text>
</g>
<!-- 3&#45;&#45;11 -->
<g id="edge5" class="edge">
<title>3&#45;&#45;11</title>
<path fill="none" stroke="#4400ce" d="M183.45,-186.71C184.17,-199.89 185.15,-217.61 185.88,-230.77"/>
<text text-anchor="middle" x="176.66" y="-212.14" font-family="Times,serif" font-size="12.00">12</text>
</g>
<!-- 7 -->
<g id="node7" class="node">
<title>7</title>
<ellipse fill="none" stroke="#4400ce" cx="27" cy="-177.85" rx="27" ry="18"/>
<text text-anchor="middle" x="27" y="-174.15" font-family="Times,serif" font-size="14.00">7</text>
</g>
<!-- 5&#45;&#45;7 -->
<g id="edge6" class="edge">
<title>5&#45;&#45;7</title>
<path fill="none" stroke="#4400ce" d="M74.74,-173.45C68.05,-174.07 60.88,-174.73 54.18,-175.34"/>
<text text-anchor="middle" x="60.46" y="-177.8" font-family="Times,serif" font-size="12.00">8</text>
</g>
</g>
</svg>
