<?xml version="1.0" encoding="UTF-8" standalone="no"?>
<!DOCTYPE svg PUBLIC "-//W3C//DTD SVG 1.1//EN"
 "http://www.w3.org/Graphics/SVG/1.1/DTD/svg11.dtd">
<!-- Generated by graphviz version 2.43.0 (0)
 -->
<!-- Pages: 1 -->
<svg width="273pt" height="257pt"
 viewBox="0.00 0.00 273.00 256.88" xmlns="http://www.w3.org/2000/svg" xmlns:xlink="http://www.w3.org/1999/xlink">
<g id="graph0" class="graph" transform="scale(1 1) rotate(0) translate(4 252.88)">
<polygon fill="white" stroke="transparent" points="-4,4 -4,-252.88 269,-252.88 269,4 -4,4"/>
<text text-anchor="middle" x="132.5" y="-237.68" font-family="Times,serif" font-size="14.00">ddc7b1984f99fbec4f2f9820f562aabb</text>
<!-- 0 -->
<g id="node1" class="node">
<title>0</title>
<ellipse fill="none" stroke="#cecece" cx="129.26" cy="-91.2" rx="27" ry="18"/>
<text text-anchor="middle" x="129.26" y="-87.5" font-family="Times,serif" font-size="14.00">0</text>
</g>
<!-- 1 -->
<g id="node2" class="node">
<title>1</title>
<ellipse fill="none" stroke="#8967ce" cx="131.09" cy="-18" rx="27" ry="18"/>
<text text-anchor="middle" x="131.09" y="-14.3" font-family="Times,serif" font-size="14.00">1</text>
</g>
<!-- 0&#45;&#45;1 -->
<g id="edge1" class="edge">
<title>0&#45;&#45;1</title>
<path fill="none" stroke="#4400ce" d="M129.71,-73.11C129.99,-61.84 130.35,-47.41 130.63,-36.14"/>
<text text-anchor="middle" x="126.17" y="-58.02" font-family="Times,serif" font-size="12.00">2</text>
</g>
<!-- 3 -->
<g id="node3" class="node">
<title>3</title>
<ellipse fill="none" stroke="#4400ce" cx="131.48" cy="-167.96" rx="27" ry="18"/>
<text text-anchor="middle" x="131.48" y="-164.26" font-family="Times,serif" font-size="14.00">3</text>
</g>
<!-- 0&#45;&#45;3 -->
<g id="edge2" class="edge">
<title>0&#45;&#45;3</title>
<path fill="none" stroke="#4400ce" d="M129.78,-109.39C130.14,-121.63 130.6,-137.69 130.95,-149.9"/>
<text text-anchor="middle" x="126.37" y="-133.05" font-family="Times,serif" font-size="12.00">4</text>
</g>
<!-- 5 -->
<g id="node4" class="node">
<title>5</title>
<ellipse fill="none" stroke="#4400ce" cx="67.32" cy="-211.88" rx="27" ry="18"/>
<text text-anchor="middle" x="67.32" y="-208.18" font-family="Times,serif" font-size="14.00">5</text>
</g>
<!-- 3&#45;&#45;5 -->
<g id="edge3" class="edge">
<title>3&#45;&#45;5</title>
<path fill="none" stroke="#4400ce" d="M112.57,-180.9C104.29,-186.57 94.6,-193.21 86.31,-198.88"/>
<text text-anchor="middle" x="95.44" y="-180.29" font-family="Times,serif" font-size="12.00">6</text>
</g>
<!-- 7 -->
<g id="node5" class="node">
<title>7</title>
<ellipse fill="none" stroke="#4400ce" cx="197.68" cy="-208.8" rx="27" ry="18"/>
<text text-anchor="middle" x="197.68" y="-205.1" font-family="Times,serif" font-size="14.00">7</text>
</g>
<!-- 3&#45;&#45;7 -->
<g id="edge4" class="edge">
<title>3&#45;&#45;7</title>
<path fill="none" stroke="#4400ce" d="M151.34,-180.22C159.72,-185.39 169.45,-191.39 177.83,-196.56"/>
<text text-anchor="middle" x="160.59" y="-191.79" font-family="Times,serif" font-size="12.00">8</text>
</g>
</g>
</svg>
