<?xml version="1.0" encoding="UTF-8" standalone="no"?>
<!DOCTYPE svg PUBLIC "-//W3C//DTD SVG 1.1//EN"
 "http://www.w3.org/Graphics/SVG/1.1/DTD/svg11.dtd">
<!-- Generated by graphviz version 2.43.0 (0)
 -->
<!-- Pages: 1 -->
<svg width="338pt" height="286pt"
 viewBox="0.00 0.00 338.16 285.84" xmlns="http://www.w3.org/2000/svg" xmlns:xlink="http://www.w3.org/1999/xlink">
<g id="graph0" class="graph" transform="scale(1 1) rotate(0) translate(4 281.84)">
<polygon fill="white" stroke="transparent" points="-4,4 -4,-281.84 334.16,-281.84 334.16,4 -4,4"/>
<text text-anchor="middle" x="165.08" y="-266.64" font-family="Times,serif" font-size="14.00">df13a7250d78ef9c1faa898d14e6c1d7</text>
<!-- 0 -->
<g id="node1" class="node">
<title>0</title>
<ellipse fill="none" stroke="#cecece" cx="118.47" cy="-129.26" rx="27" ry="18"/>
<text text-anchor="middle" x="118.47" y="-125.56" font-family="Times,serif" font-size="14.00">0</text>
</g>
<!-- 1 -->
<g id="node2" class="node">
<title>1</title>
<ellipse fill="none" stroke="#8967ce" cx="69.09" cy="-182.11" rx="27" ry="18"/>
<text text-anchor="middle" x="69.09" y="-178.41" font-family="Times,serif" font-size="14.00">1</text>
</g>
<!-- 0&#45;&#45;1 -->
<g id="edge1" class="edge">
<title>0&#45;&#45;1</title>
<path fill="none" stroke="#4400ce" d="M104.18,-144.55C97.69,-151.5 90.02,-159.71 83.51,-166.68"/>
<text text-anchor="middle" x="89.85" y="-146.01" font-family="Times,serif" font-size="12.00">2</text>
</g>
<!-- 5 -->
<g id="node3" class="node">
<title>5</title>
<ellipse fill="none" stroke="#4400ce" cx="174.7" cy="-83.71" rx="27" ry="18"/>
<text text-anchor="middle" x="174.7" y="-80.01" font-family="Times,serif" font-size="14.00">5</text>
</g>
<!-- 0&#45;&#45;5 -->
<g id="edge2" class="edge">
<title>0&#45;&#45;5</title>
<path fill="none" stroke="#4400ce" d="M135.64,-115.34C142.49,-109.8 150.36,-103.42 157.24,-97.85"/>
<text text-anchor="middle" x="142.44" y="-97" font-family="Times,serif" font-size="12.00">6</text>
</g>
<!-- 3 -->
<g id="node4" class="node">
<title>3</title>
<ellipse fill="none" stroke="#4400ce" cx="27" cy="-240.84" rx="27" ry="18"/>
<text text-anchor="middle" x="27" y="-237.14" font-family="Times,serif" font-size="14.00">3</text>
</g>
<!-- 1&#45;&#45;3 -->
<g id="edge3" class="edge">
<title>1&#45;&#45;3</title>
<path fill="none" stroke="#4400ce" d="M57.36,-198.47C51.53,-206.62 44.49,-216.44 38.66,-224.57"/>
<text text-anchor="middle" x="44.01" y="-201.92" font-family="Times,serif" font-size="12.00">4</text>
</g>
<!-- 7 -->
<g id="node5" class="node">
<title>7</title>
<ellipse fill="none" stroke="#4400ce" cx="236.63" cy="-46.28" rx="27" ry="18"/>
<text text-anchor="middle" x="236.63" y="-42.58" font-family="Times,serif" font-size="14.00">7</text>
</g>
<!-- 5&#45;&#45;7 -->
<g id="edge4" class="edge">
<title>5&#45;&#45;7</title>
<path fill="none" stroke="#4400ce" d="M194.98,-71.45C201.89,-67.28 209.61,-62.61 216.51,-58.44"/>
<text text-anchor="middle" x="201.75" y="-55.35" font-family="Times,serif" font-size="12.00">8</text>
</g>
<!-- 9 -->
<g id="node6" class="node">
<title>9</title>
<ellipse fill="none" stroke="#4400ce" cx="303.16" cy="-18" rx="27" ry="18"/>
<text text-anchor="middle" x="303.16" y="-14.3" font-family="Times,serif" font-size="14.00">9</text>
</g>
<!-- 7&#45;&#45;9 -->
<g id="edge5" class="edge">
<title>7&#45;&#45;9</title>
<path fill="none" stroke="#4400ce" d="M259.53,-36.55C266.14,-33.74 273.37,-30.67 280,-27.85"/>
<text text-anchor="middle" x="265.76" y="-22.6" font-family="Times,serif" font-size="12.00">10</text>
</g>
</g>
</svg>
