<?xml version="1.0" encoding="UTF-8" standalone="no"?>
<!DOCTYPE svg PUBLIC "-//W3C//DTD SVG 1.1//EN"
 "http://www.w3.org/Graphics/SVG/1.1/DTD/svg11.dtd">
<!-- Generated by graphviz version 2.43.0 (0)
 -->
<!-- Pages: 1 -->
<svg width="325pt" height="325pt"
 viewBox="0.00 0.00 324.74 325.08" xmlns="http://www.w3.org/2000/svg" xmlns:xlink="http://www.w3.org/1999/xlink">
<g id="graph0" class="graph" transform="scale(1 1) rotate(0) translate(4 321.08)">
<polygon fill="white" stroke="transparent" points="-4,4 -4,-321.08 320.74,-321.08 320.74,4 -4,4"/>
<text text-anchor="middle" x="158.37" y="-305.88" font-family="Times,serif" font-size="14.00">e0df2077f87e0f2fd6856c51b2f4ce73</text>
<!-- 0 -->
<g id="node1" class="node">
<title>0</title>
<ellipse fill="none" stroke="#cecece" cx="289.74" cy="-18" rx="27" ry="18"/>
<text text-anchor="middle" x="289.74" y="-14.3" font-family="Times,serif" font-size="14.00">0</text>
</g>
<!-- 1 -->
<g id="node2" class="node">
<title>1</title>
<ellipse fill="none" stroke="#8967ce" cx="256.13" cy="-82.52" rx="27" ry="18"/>
<text text-anchor="middle" x="256.13" y="-78.82" font-family="Times,serif" font-size="14.00">1</text>
</g>
<!-- 0&#45;&#45;1 -->
<g id="edge1" class="edge">
<title>0&#45;&#45;1</title>
<path fill="none" stroke="#4400ce" d="M280.73,-35.29C275.91,-44.55 269.99,-55.92 265.16,-65.18"/>
<text text-anchor="middle" x="268.95" y="-53.64" font-family="Times,serif" font-size="12.00">2</text>
</g>
<!-- 3 -->
<g id="node3" class="node">
<title>3</title>
<ellipse fill="none" stroke="#4400ce" cx="216.06" cy="-144.57" rx="27" ry="18"/>
<text text-anchor="middle" x="216.06" y="-140.87" font-family="Times,serif" font-size="14.00">3</text>
</g>
<!-- 1&#45;&#45;3 -->
<g id="edge2" class="edge">
<title>1&#45;&#45;3</title>
<path fill="none" stroke="#4400ce" d="M245.39,-99.15C239.64,-108.05 232.58,-118.99 226.83,-127.9"/>
<text text-anchor="middle" x="232.11" y="-116.92" font-family="Times,serif" font-size="12.00">4</text>
</g>
<!-- 5 -->
<g id="node4" class="node">
<title>5</title>
<ellipse fill="none" stroke="#4400ce" cx="177.42" cy="-212.17" rx="27" ry="18"/>
<text text-anchor="middle" x="177.42" y="-208.47" font-family="Times,serif" font-size="14.00">5</text>
</g>
<!-- 3&#45;&#45;5 -->
<g id="edge3" class="edge">
<title>3&#45;&#45;5</title>
<path fill="none" stroke="#4400ce" d="M206.31,-161.63C200.5,-171.79 193.14,-184.67 187.3,-194.88"/>
<text text-anchor="middle" x="192.81" y="-181.65" font-family="Times,serif" font-size="12.00">6</text>
</g>
<!-- 7 -->
<g id="node5" class="node">
<title>7</title>
<ellipse fill="none" stroke="#4400ce" cx="218.9" cy="-280.08" rx="27" ry="18"/>
<text text-anchor="middle" x="218.9" y="-276.38" font-family="Times,serif" font-size="14.00">7</text>
</g>
<!-- 5&#45;&#45;7 -->
<g id="edge4" class="edge">
<title>5&#45;&#45;7</title>
<path fill="none" stroke="#4400ce" d="M187.68,-228.95C194.01,-239.32 202.11,-252.59 208.48,-263.01"/>
<text text-anchor="middle" x="194.08" y="-249.38" font-family="Times,serif" font-size="12.00">8</text>
</g>
<!-- 9 -->
<g id="node6" class="node">
<title>9</title>
<ellipse fill="none" stroke="#4400ce" cx="99.6" cy="-221.16" rx="27" ry="18"/>
<text text-anchor="middle" x="99.6" y="-217.46" font-family="Times,serif" font-size="14.00">9</text>
</g>
<!-- 5&#45;&#45;9 -->
<g id="edge5" class="edge">
<title>5&#45;&#45;9</title>
<path fill="none" stroke="#4400ce" d="M150.64,-215.26C142.81,-216.17 134.26,-217.16 126.43,-218.06"/>
<text text-anchor="middle" x="142.53" y="-207.06" font-family="Times,serif" font-size="12.00">10</text>
</g>
<!-- 11 -->
<g id="node7" class="node">
<title>11</title>
<ellipse fill="none" stroke="#4400ce" cx="27" cy="-235.22" rx="27" ry="18"/>
<text text-anchor="middle" x="27" y="-231.52" font-family="Times,serif" font-size="14.00">11</text>
</g>
<!-- 9&#45;&#45;11 -->
<g id="edge6" class="edge">
<title>9&#45;&#45;11</title>
<path fill="none" stroke="#4400ce" d="M73.39,-226.24C66.89,-227.5 59.92,-228.85 53.41,-230.11"/>
<text text-anchor="middle" x="63.4" y="-218.57" font-family="Times,serif" font-size="12.00">12</text>
</g>
</g>
</svg>
