<?xml version="1.0" encoding="UTF-8" standalone="no"?>
<!DOCTYPE svg PUBLIC "-//W3C//DTD SVG 1.1//EN"
 "http://www.w3.org/Graphics/SVG/1.1/DTD/svg11.dtd">
<!-- Generated by graphviz version 2.43.0 (0)
 -->
<!-- Pages: 1 -->
<svg width="513pt" height="581pt"
 viewBox="0.00 0.00 513.41 581.09" xmlns="http://www.w3.org/2000/svg" xmlns:xlink="http://www.w3.org/1999/xlink">
<g id="graph0" class="graph" transform="scale(1 1) rotate(0) translate(4 577.09)">
<polygon fill="white" stroke="transparent" points="-4,4 -4,-577.09 509.41,-577.09 509.41,4 -4,4"/>
<text text-anchor="middle" x="252.71" y="-561.89" font-family="Times,serif" font-size="14.00">fadc4f31b42be7a6bcf79df71e073956</text>
<!-- 0 -->
<g id="node1" class="node">
<title>0</title>
<ellipse fill="none" stroke="#cecece" cx="27" cy="-536.09" rx="27" ry="18"/>
<text text-anchor="middle" x="27" y="-532.39" font-family="Times,serif" font-size="14.00">0</text>
</g>
<!-- 1 -->
<g id="node2" class="node">
<title>1</title>
<ellipse fill="none" stroke="#8967ce" cx="87.78" cy="-496.6" rx="27" ry="18"/>
<text text-anchor="middle" x="87.78" y="-492.9" font-family="Times,serif" font-size="14.00">1</text>
</g>
<!-- 0&#45;&#45;1 -->
<g id="edge1" class="edge">
<title>0&#45;&#45;1</title>
<path fill="none" stroke="#4400ce" d="M46.57,-523.38C53.51,-518.87 61.32,-513.8 68.25,-509.29"/>
<text text-anchor="middle" x="53.41" y="-506.73" font-family="Times,serif" font-size="12.00">2</text>
</g>
<!-- 3 -->
<g id="node3" class="node">
<title>3</title>
<ellipse fill="none" stroke="#4400ce" cx="138.07" cy="-444.44" rx="27" ry="18"/>
<text text-anchor="middle" x="138.07" y="-440.74" font-family="Times,serif" font-size="14.00">3</text>
</g>
<!-- 1&#45;&#45;3 -->
<g id="edge2" class="edge">
<title>1&#45;&#45;3</title>
<path fill="none" stroke="#4400ce" d="M102.6,-481.23C109.09,-474.5 116.69,-466.62 123.19,-459.88"/>
<text text-anchor="middle" x="108.89" y="-460.96" font-family="Times,serif" font-size="12.00">4</text>
</g>
<!-- 5 -->
<g id="node4" class="node">
<title>5</title>
<ellipse fill="none" stroke="#4400ce" cx="193.42" cy="-397.47" rx="27" ry="18"/>
<text text-anchor="middle" x="193.42" y="-393.77" font-family="Times,serif" font-size="14.00">5</text>
</g>
<!-- 3&#45;&#45;5 -->
<g id="edge3" class="edge">
<title>3&#45;&#45;5</title>
<path fill="none" stroke="#4400ce" d="M154.98,-430.09C161.85,-424.26 169.76,-417.55 176.62,-411.73"/>
<text text-anchor="middle" x="161.8" y="-411.31" font-family="Times,serif" font-size="12.00">6</text>
</g>
<!-- 7 -->
<g id="node5" class="node">
<title>7</title>
<ellipse fill="none" stroke="#4400ce" cx="239.59" cy="-341.37" rx="27" ry="18"/>
<text text-anchor="middle" x="239.59" y="-337.67" font-family="Times,serif" font-size="14.00">7</text>
</g>
<!-- 5&#45;&#45;7 -->
<g id="edge4" class="edge">
<title>5&#45;&#45;7</title>
<path fill="none" stroke="#4400ce" d="M206.53,-381.54C212.72,-374.03 220.09,-365.08 226.29,-357.53"/>
<text text-anchor="middle" x="212.41" y="-359.94" font-family="Times,serif" font-size="12.00">8</text>
</g>
<!-- 9 -->
<g id="node6" class="node">
<title>9</title>
<ellipse fill="none" stroke="#4400ce" cx="276.64" cy="-278.85" rx="27" ry="18"/>
<text text-anchor="middle" x="276.64" y="-275.15" font-family="Times,serif" font-size="14.00">9</text>
</g>
<!-- 7&#45;&#45;9 -->
<g id="edge5" class="edge">
<title>7&#45;&#45;9</title>
<path fill="none" stroke="#4400ce" d="M249.52,-324.62C254.84,-315.65 261.36,-304.63 266.68,-295.65"/>
<text text-anchor="middle" x="250.1" y="-313.53" font-family="Times,serif" font-size="12.00">10</text>
</g>
<!-- 11 -->
<g id="node7" class="node">
<title>11</title>
<ellipse fill="none" stroke="#4400ce" cx="313.32" cy="-215.96" rx="27" ry="18"/>
<text text-anchor="middle" x="313.32" y="-212.26" font-family="Times,serif" font-size="14.00">11</text>
</g>
<!-- 9&#45;&#45;11 -->
<g id="edge6" class="edge">
<title>9&#45;&#45;11</title>
<path fill="none" stroke="#4400ce" d="M286.47,-262C291.73,-252.97 298.2,-241.89 303.46,-232.86"/>
<text text-anchor="middle" x="286.97" y="-250.83" font-family="Times,serif" font-size="12.00">12</text>
</g>
<!-- 13 -->
<g id="node8" class="node">
<title>13</title>
<ellipse fill="none" stroke="#4400ce" cx="356.03" cy="-156.12" rx="27" ry="18"/>
<text text-anchor="middle" x="356.03" y="-152.42" font-family="Times,serif" font-size="14.00">13</text>
</g>
<!-- 11&#45;&#45;13 -->
<g id="edge7" class="edge">
<title>11&#45;&#45;13</title>
<path fill="none" stroke="#4400ce" d="M324.99,-199.61C331.02,-191.16 338.35,-180.89 344.37,-172.45"/>
<text text-anchor="middle" x="326.68" y="-176.43" font-family="Times,serif" font-size="12.00">14</text>
</g>
<!-- 15 -->
<g id="node9" class="node">
<title>15</title>
<ellipse fill="none" stroke="#4400ce" cx="399.52" cy="-92.81" rx="27" ry="18"/>
<text text-anchor="middle" x="399.52" y="-89.11" font-family="Times,serif" font-size="14.00">15</text>
</g>
<!-- 13&#45;&#45;15 -->
<g id="edge8" class="edge">
<title>13&#45;&#45;15</title>
<path fill="none" stroke="#4400ce" d="M367.46,-139.48C373.8,-130.25 381.67,-118.8 388.02,-109.55"/>
<text text-anchor="middle" x="369.74" y="-127.92" font-family="Times,serif" font-size="12.00">16</text>
</g>
<!-- 17 -->
<g id="node10" class="node">
<title>17</title>
<ellipse fill="none" stroke="#4400ce" cx="374.33" cy="-18" rx="27" ry="18"/>
<text text-anchor="middle" x="374.33" y="-14.3" font-family="Times,serif" font-size="14.00">17</text>
</g>
<!-- 15&#45;&#45;17 -->
<g id="edge9" class="edge">
<title>15&#45;&#45;17</title>
<path fill="none" stroke="#4400ce" d="M393.55,-75.08C389.54,-63.16 384.26,-47.5 380.25,-35.6"/>
<text text-anchor="middle" x="378.9" y="-58.74" font-family="Times,serif" font-size="12.00">18</text>
</g>
<!-- 19 -->
<g id="node11" class="node">
<title>19</title>
<ellipse fill="none" stroke="#4400ce" cx="478.41" cy="-89.94" rx="27" ry="18"/>
<text text-anchor="middle" x="478.41" y="-86.24" font-family="Times,serif" font-size="14.00">19</text>
</g>
<!-- 15&#45;&#45;19 -->
<g id="edge10" class="edge">
<title>15&#45;&#45;19</title>
<path fill="none" stroke="#4400ce" d="M426.67,-91.82C434.61,-91.54 443.28,-91.22 451.21,-90.93"/>
<text text-anchor="middle" x="442.94" y="-81.78" font-family="Times,serif" font-size="12.00">20</text>
</g>
</g>
</svg>
