<?xml version="1.0" encoding="UTF-8" standalone="no"?>
<!DOCTYPE svg PUBLIC "-//W3C//DTD SVG 1.1//EN"
 "http://www.w3.org/Graphics/SVG/1.1/DTD/svg11.dtd">
<!-- Generated by graphviz version 2.43.0 (0)
 -->
<!-- Pages: 1 -->
<svg width="365pt" height="428pt"
 viewBox="0.00 0.00 364.81 428.47" xmlns="http://www.w3.org/2000/svg" xmlns:xlink="http://www.w3.org/1999/xlink">
<g id="graph0" class="graph" transform="scale(1 1) rotate(0) translate(4 424.47)">
<polygon fill="white" stroke="transparent" points="-4,4 -4,-424.47 360.81,-424.47 360.81,4 -4,4"/>
<text text-anchor="middle" x="178.41" y="-409.27" font-family="Times,serif" font-size="14.00">fc6548199215ed85b145967895bce022</text>
<!-- 0 -->
<g id="node1" class="node">
<title>0</title>
<ellipse fill="none" stroke="#cecece" cx="62.03" cy="-320.12" rx="27" ry="18"/>
<text text-anchor="middle" x="62.03" y="-316.42" font-family="Times,serif" font-size="14.00">0</text>
</g>
<!-- 1 -->
<g id="node2" class="node">
<title>1</title>
<ellipse fill="none" stroke="#8967ce" cx="27" cy="-383.47" rx="27" ry="18"/>
<text text-anchor="middle" x="27" y="-379.77" font-family="Times,serif" font-size="14.00">1</text>
</g>
<!-- 0&#45;&#45;1 -->
<g id="edge1" class="edge">
<title>0&#45;&#45;1</title>
<path fill="none" stroke="#4400ce" d="M52.64,-337.1C47.62,-346.19 41.44,-357.35 36.41,-366.44"/>
<text text-anchor="middle" x="40.53" y="-355.17" font-family="Times,serif" font-size="12.00">2</text>
</g>
<!-- 3 -->
<g id="node3" class="node">
<title>3</title>
<ellipse fill="none" stroke="#4400ce" cx="108.86" cy="-264.87" rx="27" ry="18"/>
<text text-anchor="middle" x="108.86" y="-261.17" font-family="Times,serif" font-size="14.00">3</text>
</g>
<!-- 0&#45;&#45;3 -->
<g id="edge2" class="edge">
<title>0&#45;&#45;3</title>
<path fill="none" stroke="#4400ce" d="M75.32,-304.44C81.6,-297.04 89.07,-288.22 95.37,-280.79"/>
<text text-anchor="middle" x="81.35" y="-283.01" font-family="Times,serif" font-size="12.00">4</text>
</g>
<!-- 5 -->
<g id="node4" class="node">
<title>5</title>
<ellipse fill="none" stroke="#4400ce" cx="159.03" cy="-212.28" rx="27" ry="18"/>
<text text-anchor="middle" x="159.03" y="-208.58" font-family="Times,serif" font-size="14.00">5</text>
</g>
<!-- 3&#45;&#45;5 -->
<g id="edge3" class="edge">
<title>3&#45;&#45;5</title>
<path fill="none" stroke="#4400ce" d="M123.37,-249.66C129.97,-242.74 137.76,-234.57 144.38,-227.64"/>
<text text-anchor="middle" x="129.88" y="-229.05" font-family="Times,serif" font-size="12.00">6</text>
</g>
<!-- 7 -->
<g id="node5" class="node">
<title>7</title>
<ellipse fill="none" stroke="#4400ce" cx="203.91" cy="-154.14" rx="27" ry="18"/>
<text text-anchor="middle" x="203.91" y="-150.44" font-family="Times,serif" font-size="14.00">7</text>
</g>
<!-- 5&#45;&#45;7 -->
<g id="edge4" class="edge">
<title>5&#45;&#45;7</title>
<path fill="none" stroke="#4400ce" d="M171.53,-196.08C177.76,-188.02 185.26,-178.3 191.47,-170.25"/>
<text text-anchor="middle" x="177.5" y="-173.57" font-family="Times,serif" font-size="12.00">8</text>
</g>
<!-- 9 -->
<g id="node6" class="node">
<title>9</title>
<ellipse fill="none" stroke="#4400ce" cx="251.23" cy="-93.67" rx="27" ry="18"/>
<text text-anchor="middle" x="251.23" y="-89.97" font-family="Times,serif" font-size="14.00">9</text>
</g>
<!-- 7&#45;&#45;9 -->
<g id="edge5" class="edge">
<title>7&#45;&#45;9</title>
<path fill="none" stroke="#4400ce" d="M216.59,-137.93C223.38,-129.26 231.72,-118.6 238.52,-109.92"/>
<text text-anchor="middle" x="219.55" y="-127.32" font-family="Times,serif" font-size="12.00">10</text>
</g>
<!-- 11 -->
<g id="node7" class="node">
<title>11</title>
<ellipse fill="none" stroke="#4400ce" cx="229.71" cy="-18" rx="27" ry="18"/>
<text text-anchor="middle" x="229.71" y="-14.3" font-family="Times,serif" font-size="14.00">11</text>
</g>
<!-- 9&#45;&#45;11 -->
<g id="edge6" class="edge">
<title>9&#45;&#45;11</title>
<path fill="none" stroke="#4400ce" d="M246.13,-75.73C242.7,-63.67 238.2,-47.84 234.78,-35.8"/>
<text text-anchor="middle" x="232.46" y="-59.17" font-family="Times,serif" font-size="12.00">12</text>
</g>
<!-- 13 -->
<g id="node8" class="node">
<title>13</title>
<ellipse fill="none" stroke="#4400ce" cx="329.81" cy="-97.14" rx="27" ry="18"/>
<text text-anchor="middle" x="329.81" y="-93.44" font-family="Times,serif" font-size="14.00">13</text>
</g>
<!-- 9&#45;&#45;13 -->
<g id="edge7" class="edge">
<title>9&#45;&#45;13</title>
<path fill="none" stroke="#4400ce" d="M278.28,-94.86C286.18,-95.21 294.82,-95.59 302.72,-95.94"/>
<text text-anchor="middle" x="294.5" y="-85.8" font-family="Times,serif" font-size="12.00">14</text>
</g>
</g>
</svg>
