<?xml version="1.0" encoding="UTF-8" standalone="no"?>
<!DOCTYPE svg PUBLIC "-//W3C//DTD SVG 1.1//EN"
 "http://www.w3.org/Graphics/SVG/1.1/DTD/svg11.dtd">
<!-- Generated by graphviz version 2.43.0 (0)
 -->
<!-- Pages: 1 -->
<svg width="336pt" height="480pt"
 viewBox="0.00 0.00 335.60 480.39" xmlns="http://www.w3.org/2000/svg" xmlns:xlink="http://www.w3.org/1999/xlink">
<g id="graph0" class="graph" transform="scale(1 1) rotate(0) translate(4 476.39)">
<polygon fill="white" stroke="transparent" points="-4,4 -4,-476.39 331.6,-476.39 331.6,4 -4,4"/>
<text text-anchor="middle" x="163.8" y="-461.19" font-family="Times,serif" font-size="14.00">fef9bf06419c4f65623bd719770cba8a</text>
<!-- 0 -->
<g id="node1" class="node">
<title>0</title>
<ellipse fill="none" stroke="#cecece" cx="27" cy="-435.39" rx="27" ry="18"/>
<text text-anchor="middle" x="27" y="-431.69" font-family="Times,serif" font-size="14.00">0</text>
</g>
<!-- 1 -->
<g id="node2" class="node">
<title>1</title>
<ellipse fill="none" stroke="#8967ce" cx="81.32" cy="-387.75" rx="27" ry="18"/>
<text text-anchor="middle" x="81.32" y="-384.05" font-family="Times,serif" font-size="14.00">1</text>
</g>
<!-- 0&#45;&#45;1 -->
<g id="edge1" class="edge">
<title>0&#45;&#45;1</title>
<path fill="none" stroke="#4400ce" d="M43.59,-420.84C50.33,-414.93 58.1,-408.12 64.83,-402.21"/>
<text text-anchor="middle" x="50.21" y="-401.93" font-family="Times,serif" font-size="12.00">2</text>
</g>
<!-- 3 -->
<g id="node3" class="node">
<title>3</title>
<ellipse fill="none" stroke="#4400ce" cx="128.54" cy="-333.07" rx="27" ry="18"/>
<text text-anchor="middle" x="128.54" y="-329.37" font-family="Times,serif" font-size="14.00">3</text>
</g>
<!-- 1&#45;&#45;3 -->
<g id="edge2" class="edge">
<title>1&#45;&#45;3</title>
<path fill="none" stroke="#4400ce" d="M94.97,-371.93C101.18,-364.74 108.52,-356.25 114.75,-349.04"/>
<text text-anchor="middle" x="100.86" y="-350.89" font-family="Times,serif" font-size="12.00">4</text>
</g>
<!-- 5 -->
<g id="node4" class="node">
<title>5</title>
<ellipse fill="none" stroke="#4400ce" cx="174.2" cy="-277.01" rx="27" ry="18"/>
<text text-anchor="middle" x="174.2" y="-273.31" font-family="Times,serif" font-size="14.00">5</text>
</g>
<!-- 3&#45;&#45;5 -->
<g id="edge3" class="edge">
<title>3&#45;&#45;5</title>
<path fill="none" stroke="#4400ce" d="M141.5,-317.15C147.62,-309.64 154.91,-300.7 161.05,-293.16"/>
<text text-anchor="middle" x="147.27" y="-295.56" font-family="Times,serif" font-size="12.00">6</text>
</g>
<!-- 7 -->
<g id="node5" class="node">
<title>7</title>
<ellipse fill="none" stroke="#4400ce" cx="212.54" cy="-215.65" rx="27" ry="18"/>
<text text-anchor="middle" x="212.54" y="-211.95" font-family="Times,serif" font-size="14.00">7</text>
</g>
<!-- 5&#45;&#45;7 -->
<g id="edge4" class="edge">
<title>5&#45;&#45;7</title>
<path fill="none" stroke="#4400ce" d="M184.68,-260.24C190.09,-251.59 196.67,-241.05 202.08,-232.4"/>
<text text-anchor="middle" x="189.38" y="-249.72" font-family="Times,serif" font-size="12.00">8</text>
</g>
<!-- 9 -->
<g id="node6" class="node">
<title>9</title>
<ellipse fill="none" stroke="#4400ce" cx="242.78" cy="-149.96" rx="27" ry="18"/>
<text text-anchor="middle" x="242.78" y="-146.26" font-family="Times,serif" font-size="14.00">9</text>
</g>
<!-- 7&#45;&#45;9 -->
<g id="edge5" class="edge">
<title>7&#45;&#45;9</title>
<path fill="none" stroke="#4400ce" d="M220.49,-198.39C224.9,-188.81 230.37,-176.93 234.79,-167.33"/>
<text text-anchor="middle" x="219.64" y="-186.26" font-family="Times,serif" font-size="12.00">10</text>
</g>
<!-- 11 -->
<g id="node7" class="node">
<title>11</title>
<ellipse fill="none" stroke="#4400ce" cx="267.39" cy="-82.01" rx="27" ry="18"/>
<text text-anchor="middle" x="267.39" y="-78.31" font-family="Times,serif" font-size="14.00">11</text>
</g>
<!-- 9&#45;&#45;11 -->
<g id="edge6" class="edge">
<title>9&#45;&#45;11</title>
<path fill="none" stroke="#4400ce" d="M249.12,-132.46C252.77,-122.39 257.33,-109.78 260.99,-99.69"/>
<text text-anchor="middle" x="247.05" y="-119.47" font-family="Times,serif" font-size="12.00">12</text>
</g>
<!-- 13 -->
<g id="node8" class="node">
<title>13</title>
<ellipse fill="none" stroke="#4400ce" cx="300.6" cy="-18" rx="27" ry="18"/>
<text text-anchor="middle" x="300.6" y="-14.3" font-family="Times,serif" font-size="14.00">13</text>
</g>
<!-- 11&#45;&#45;13 -->
<g id="edge7" class="edge">
<title>11&#45;&#45;13</title>
<path fill="none" stroke="#4400ce" d="M276.29,-64.86C281.06,-55.67 286.91,-44.39 291.68,-35.2"/>
<text text-anchor="middle" x="275.98" y="-53.43" font-family="Times,serif" font-size="12.00">14</text>
</g>
</g>
</svg>
